M48
; DRILL file {KiCad 7.0.2} date Tue Jan 30 17:08:11 2024
; FORMAT={-:-/ absolute / metric / decimal}
; #@! TF.CreationDate,2024-01-30T17:08:11-08:00
; #@! TF.GenerationSoftware,Kicad,Pcbnew,7.0.2
; #@! TF.FileFunction,Plated,1,2,PTH
FMAT,2
METRIC
; #@! TA.AperFunction,Plated,PTH,ViaDrill
T1C0.400
; #@! TA.AperFunction,Plated,PTH,ComponentDrill
T2C1.000
%
G90
G05
T1
X66.2Y-72.6
X66.2Y-76.8
X66.2Y-78.1
X66.2Y-82.2
X66.25Y-83.6
X66.25Y-87.6
X78.1Y-87.4
X78.15Y-83.55
X79.45Y-72.55
X81.75Y-81.95
X81.8Y-78.15
X93.6Y-72.55
X94.2Y-110.25
X98.05Y-78.1
X101.9Y-67.0
X102.05Y-110.25
X103.95Y-85.6
X106.35Y-83.65
X107.3Y-87.65
X108.0Y-78.25
X111.7Y-72.65
X119.9Y-102.45
X120.0Y-98.8
X120.95Y-98.1
X121.064Y-101.746
X121.15Y-78.1
X121.2Y-102.751
X121.35Y-97.15
X122.5Y-82.1
X123.35Y-83.2
X124.05Y-102.45
X124.75Y-103.85
X125.9Y-102.2
T2
X98.72Y-88.51
X98.72Y-91.05
X101.26Y-88.51
X101.26Y-91.05
X103.8Y-88.51
X103.8Y-91.05
X136.4Y-93.72
X136.4Y-96.26
X136.4Y-98.8
T0
M30
