M48
; DRILL file {KiCad 8.0.2} date 2024-06-12T11:35:40-0700
; FORMAT={-:-/ absolute / metric / decimal}
; #@! TF.CreationDate,2024-06-12T11:35:40-07:00
; #@! TF.GenerationSoftware,Kicad,Pcbnew,8.0.2
; #@! TF.FileFunction,Plated,1,2,PTH
FMAT,2
METRIC
; #@! TA.AperFunction,Plated,PTH,ViaDrill
T1C0.400
; #@! TA.AperFunction,Plated,PTH,ComponentDrill
T2C1.000
%
G90
G05
T1
X66.2Y-72.6
X66.2Y-78.1
X66.25Y-83.6
X78.136Y-83.65
X79.45Y-72.55
X79.8Y-89.25
X81.8Y-78.2
X93.6Y-72.55
X98.0Y-78.2
X106.35Y-83.65
X108.0Y-78.25
X111.7Y-72.65
X121.2Y-78.2
X132.55Y-89.95
X135.6Y-86.75
X136.725Y-89.479
T2
X98.72Y-88.51
X98.72Y-91.05
X101.26Y-88.51
X101.26Y-91.05
X103.8Y-88.51
X103.8Y-91.05
X115.06Y-93.05
X117.6Y-93.05
X120.15Y-93.05
X122.69Y-93.05
X125.23Y-93.05
M30
