G04 #@! TF.GenerationSoftware,KiCad,Pcbnew,7.0.2*
G04 #@! TF.CreationDate,2024-01-30T17:08:08-08:00*
G04 #@! TF.ProjectId,fuck-sao,6675636b-2d73-4616-9f2e-6b696361645f,rev?*
G04 #@! TF.SameCoordinates,Original*
G04 #@! TF.FileFunction,Copper,L1,Top*
G04 #@! TF.FilePolarity,Positive*
%FSLAX46Y46*%
G04 Gerber Fmt 4.6, Leading zero omitted, Abs format (unit mm)*
G04 Created by KiCad (PCBNEW 7.0.2) date 2024-01-30 17:08:08*
%MOMM*%
%LPD*%
G01*
G04 APERTURE LIST*
G04 Aperture macros list*
%AMRoundRect*
0 Rectangle with rounded corners*
0 $1 Rounding radius*
0 $2 $3 $4 $5 $6 $7 $8 $9 X,Y pos of 4 corners*
0 Add a 4 corners polygon primitive as box body*
4,1,4,$2,$3,$4,$5,$6,$7,$8,$9,$2,$3,0*
0 Add four circle primitives for the rounded corners*
1,1,$1+$1,$2,$3*
1,1,$1+$1,$4,$5*
1,1,$1+$1,$6,$7*
1,1,$1+$1,$8,$9*
0 Add four rect primitives between the rounded corners*
20,1,$1+$1,$2,$3,$4,$5,0*
20,1,$1+$1,$4,$5,$6,$7,0*
20,1,$1+$1,$6,$7,$8,$9,0*
20,1,$1+$1,$8,$9,$2,$3,0*%
%AMFreePoly0*
4,1,14,0.085355,0.385355,0.100000,0.350000,0.100000,-0.350000,0.085355,-0.385355,0.050000,-0.400000,0.000711,-0.400000,-0.034644,-0.385355,-0.085355,-0.334644,-0.100000,-0.299289,-0.100000,0.350000,-0.085355,0.385355,-0.050000,0.400000,0.050000,0.400000,0.085355,0.385355,0.085355,0.385355,$1*%
%AMFreePoly1*
4,1,14,0.085355,0.385355,0.100000,0.350000,0.100000,-0.299289,0.085355,-0.334644,0.034644,-0.385355,-0.000711,-0.400000,-0.050000,-0.400000,-0.085355,-0.385355,-0.100000,-0.350000,-0.100000,0.350000,-0.085355,0.385355,-0.050000,0.400000,0.050000,0.400000,0.085355,0.385355,0.085355,0.385355,$1*%
%AMFreePoly2*
4,1,14,0.385355,0.085355,0.400000,0.050000,0.400000,-0.050000,0.385355,-0.085355,0.350000,-0.100000,-0.350000,-0.100000,-0.385355,-0.085355,-0.400000,-0.050000,-0.400000,-0.000711,-0.385355,0.034644,-0.334644,0.085355,-0.299289,0.100000,0.350000,0.100000,0.385355,0.085355,0.385355,0.085355,$1*%
%AMFreePoly3*
4,1,14,0.385355,0.085355,0.400000,0.050000,0.400000,-0.050000,0.385355,-0.085355,0.350000,-0.100000,-0.299289,-0.100000,-0.334644,-0.085355,-0.385355,-0.034644,-0.400000,0.000711,-0.400000,0.050000,-0.385355,0.085355,-0.350000,0.100000,0.350000,0.100000,0.385355,0.085355,0.385355,0.085355,$1*%
%AMFreePoly4*
4,1,14,0.034644,0.385355,0.085355,0.334644,0.100000,0.299289,0.100000,-0.350000,0.085355,-0.385355,0.050000,-0.400000,-0.050000,-0.400000,-0.085355,-0.385355,-0.100000,-0.350000,-0.100000,0.350000,-0.085355,0.385355,-0.050000,0.400000,-0.000711,0.400000,0.034644,0.385355,0.034644,0.385355,$1*%
%AMFreePoly5*
4,1,14,0.085355,0.385355,0.100000,0.350000,0.100000,-0.350000,0.085355,-0.385355,0.050000,-0.400000,-0.050000,-0.400000,-0.085355,-0.385355,-0.100000,-0.350000,-0.100000,0.299289,-0.085355,0.334644,-0.034644,0.385355,0.000711,0.400000,0.050000,0.400000,0.085355,0.385355,0.085355,0.385355,$1*%
%AMFreePoly6*
4,1,14,0.385355,0.085355,0.400000,0.050000,0.400000,0.000711,0.385355,-0.034644,0.334644,-0.085355,0.299289,-0.100000,-0.350000,-0.100000,-0.385355,-0.085355,-0.400000,-0.050000,-0.400000,0.050000,-0.385355,0.085355,-0.350000,0.100000,0.350000,0.100000,0.385355,0.085355,0.385355,0.085355,$1*%
%AMFreePoly7*
4,1,14,0.334644,0.085355,0.385355,0.034644,0.400000,-0.000711,0.400000,-0.050000,0.385355,-0.085355,0.350000,-0.100000,-0.350000,-0.100000,-0.385355,-0.085355,-0.400000,-0.050000,-0.400000,0.050000,-0.385355,0.085355,-0.350000,0.100000,0.299289,0.100000,0.334644,0.085355,0.334644,0.085355,$1*%
G04 Aperture macros list end*
G04 #@! TA.AperFunction,SMDPad,CuDef*
%ADD10R,1.700000X1.700000*%
G04 #@! TD*
G04 #@! TA.AperFunction,SMDPad,CuDef*
%ADD11FreePoly0,180.000000*%
G04 #@! TD*
G04 #@! TA.AperFunction,SMDPad,CuDef*
%ADD12RoundRect,0.050000X0.050000X0.350000X-0.050000X0.350000X-0.050000X-0.350000X0.050000X-0.350000X0*%
G04 #@! TD*
G04 #@! TA.AperFunction,SMDPad,CuDef*
%ADD13FreePoly1,180.000000*%
G04 #@! TD*
G04 #@! TA.AperFunction,SMDPad,CuDef*
%ADD14FreePoly2,180.000000*%
G04 #@! TD*
G04 #@! TA.AperFunction,SMDPad,CuDef*
%ADD15RoundRect,0.050000X0.350000X0.050000X-0.350000X0.050000X-0.350000X-0.050000X0.350000X-0.050000X0*%
G04 #@! TD*
G04 #@! TA.AperFunction,SMDPad,CuDef*
%ADD16FreePoly3,180.000000*%
G04 #@! TD*
G04 #@! TA.AperFunction,SMDPad,CuDef*
%ADD17FreePoly4,180.000000*%
G04 #@! TD*
G04 #@! TA.AperFunction,SMDPad,CuDef*
%ADD18FreePoly5,180.000000*%
G04 #@! TD*
G04 #@! TA.AperFunction,SMDPad,CuDef*
%ADD19FreePoly6,180.000000*%
G04 #@! TD*
G04 #@! TA.AperFunction,SMDPad,CuDef*
%ADD20FreePoly7,180.000000*%
G04 #@! TD*
G04 #@! TA.AperFunction,SMDPad,CuDef*
%ADD21R,1.250000X1.000000*%
G04 #@! TD*
G04 #@! TA.AperFunction,SMDPad,CuDef*
%ADD22RoundRect,0.200000X-0.200000X-0.275000X0.200000X-0.275000X0.200000X0.275000X-0.200000X0.275000X0*%
G04 #@! TD*
G04 #@! TA.AperFunction,ComponentPad*
%ADD23R,1.700000X1.700000*%
G04 #@! TD*
G04 #@! TA.AperFunction,ComponentPad*
%ADD24O,1.700000X1.700000*%
G04 #@! TD*
G04 #@! TA.AperFunction,SMDPad,CuDef*
%ADD25RoundRect,0.218750X-0.218750X-0.256250X0.218750X-0.256250X0.218750X0.256250X-0.218750X0.256250X0*%
G04 #@! TD*
G04 #@! TA.AperFunction,SMDPad,CuDef*
%ADD26RoundRect,0.225000X-0.250000X0.225000X-0.250000X-0.225000X0.250000X-0.225000X0.250000X0.225000X0*%
G04 #@! TD*
G04 #@! TA.AperFunction,ViaPad*
%ADD27C,0.800000*%
G04 #@! TD*
G04 #@! TA.AperFunction,Conductor*
%ADD28C,0.200000*%
G04 #@! TD*
G04 #@! TA.AperFunction,Conductor*
%ADD29C,0.250000*%
G04 #@! TD*
G04 APERTURE END LIST*
D10*
X122500000Y-99900000D03*
D11*
X123300000Y-101350000D03*
D12*
X122900000Y-101350000D03*
X122500000Y-101350000D03*
X122100000Y-101350000D03*
D13*
X121700000Y-101350000D03*
D14*
X121050000Y-100700000D03*
D15*
X121050000Y-100300000D03*
X121050000Y-99900000D03*
X121050000Y-99500000D03*
D16*
X121050000Y-99100000D03*
D17*
X121700000Y-98450000D03*
D12*
X122100000Y-98450000D03*
X122500000Y-98450000D03*
X122900000Y-98450000D03*
D18*
X123300000Y-98450000D03*
D19*
X123950000Y-99100000D03*
D15*
X123950000Y-99500000D03*
X123950000Y-99900000D03*
X123950000Y-100300000D03*
D20*
X123950000Y-100700000D03*
D21*
X92800000Y-110250000D03*
X100550000Y-110250000D03*
D22*
X106275000Y-86500000D03*
X107925000Y-86500000D03*
X78125000Y-86500000D03*
X79775000Y-86500000D03*
X66225000Y-86500000D03*
X67875000Y-86500000D03*
X121125000Y-81000000D03*
X122775000Y-81000000D03*
X107975000Y-81000000D03*
X109625000Y-81000000D03*
X97975000Y-81000000D03*
X99625000Y-81000000D03*
X81775000Y-81000000D03*
X83425000Y-81000000D03*
X66175000Y-81000000D03*
X67825000Y-81000000D03*
X111625000Y-75500000D03*
X113275000Y-75500000D03*
X93575000Y-75500000D03*
X95225000Y-75500000D03*
X79425000Y-75500000D03*
X81075000Y-75500000D03*
X66175000Y-75500000D03*
X67825000Y-75500000D03*
X101825000Y-69800000D03*
X103475000Y-69800000D03*
D23*
X98720000Y-88510000D03*
D24*
X98720000Y-91050000D03*
X101260000Y-88510000D03*
X101260000Y-91050000D03*
X103800000Y-88510000D03*
X103800000Y-91050000D03*
D23*
X136400000Y-93720000D03*
D24*
X136400000Y-96260000D03*
X136400000Y-98800000D03*
D25*
X106312500Y-84750000D03*
X107887500Y-84750000D03*
X78150000Y-84750000D03*
X79725000Y-84750000D03*
X66262500Y-84750000D03*
X67837500Y-84750000D03*
X121162500Y-79250000D03*
X122737500Y-79250000D03*
X108012500Y-79250000D03*
X109587500Y-79250000D03*
X98012500Y-79250000D03*
X99587500Y-79250000D03*
X81812500Y-79250000D03*
X83387500Y-79250000D03*
X66212500Y-79250000D03*
X67787500Y-79250000D03*
X111662500Y-73750000D03*
X113237500Y-73750000D03*
X95187500Y-73750000D03*
X93612500Y-73750000D03*
X79462500Y-73750000D03*
X81037500Y-73750000D03*
X66212500Y-73750000D03*
X67787500Y-73750000D03*
X101862500Y-68050000D03*
X103437500Y-68050000D03*
D26*
X125900000Y-101075000D03*
X125900000Y-99525000D03*
D27*
X102050000Y-110250000D03*
X119900000Y-102450000D03*
X103950000Y-85600000D03*
X124750000Y-103850000D03*
X66200000Y-76800000D03*
X124050000Y-102450000D03*
X121200000Y-102751000D03*
X66200000Y-82200000D03*
X123350000Y-83200000D03*
X81750000Y-81950000D03*
X122500000Y-82100500D03*
X66250000Y-87600000D03*
X120000000Y-98800000D03*
X78100000Y-87400000D03*
X120950000Y-98100000D03*
X121350000Y-97150000D03*
X107300000Y-87650000D03*
X121064425Y-101746331D03*
X66250000Y-83600000D03*
X78150000Y-83550000D03*
X106350000Y-83650000D03*
X121150000Y-78100000D03*
X111700000Y-72650000D03*
X108000000Y-78250000D03*
X98050000Y-78100000D03*
X93600000Y-72550000D03*
X81800000Y-78150000D03*
X79450000Y-72550000D03*
X66200000Y-78100000D03*
X66200000Y-72600000D03*
X101900000Y-67000000D03*
X125900000Y-102200000D03*
X94200000Y-110250000D03*
D28*
X95225000Y-75500000D02*
X95225000Y-73787500D01*
X95225000Y-73787500D02*
X95187500Y-73750000D01*
X121810661Y-103500000D02*
X101900000Y-103500000D01*
X123300000Y-101350000D02*
X123300000Y-102010661D01*
X101900000Y-103500000D02*
X92350000Y-93950000D01*
X123300000Y-102010661D02*
X121810661Y-103500000D01*
X92350000Y-93950000D02*
X92350000Y-72350000D01*
X92350000Y-72350000D02*
X94900000Y-69800000D01*
X94900000Y-69800000D02*
X101825000Y-69800000D01*
X100550000Y-110250000D02*
X102050000Y-110250000D01*
X124250000Y-104350000D02*
X124750000Y-103850000D01*
X101600000Y-104350000D02*
X124250000Y-104350000D01*
X74050000Y-76800000D02*
X101600000Y-104350000D01*
X66200000Y-76800000D02*
X74050000Y-76800000D01*
X124800000Y-100655025D02*
X124444975Y-100300000D01*
X124800000Y-102800000D02*
X124800000Y-100655025D01*
X123700000Y-103900000D02*
X124800000Y-102800000D01*
X101735020Y-103900000D02*
X123700000Y-103900000D01*
X79425000Y-81589980D02*
X101735020Y-103900000D01*
X124444975Y-100300000D02*
X123950000Y-100300000D01*
X79425000Y-75500000D02*
X79425000Y-81589980D01*
X121901000Y-102050000D02*
X121200000Y-102751000D01*
X122694975Y-102050000D02*
X121901000Y-102050000D01*
X122900000Y-101844975D02*
X122694975Y-102050000D01*
X122900000Y-101350000D02*
X122900000Y-101844975D01*
X119900000Y-101850000D02*
X119900000Y-102450000D01*
X121050000Y-100700000D02*
X119900000Y-101850000D01*
X121700000Y-101350000D02*
X121303669Y-101746331D01*
X121303669Y-101746331D02*
X121064425Y-101746331D01*
X101630000Y-85600000D02*
X103950000Y-85600000D01*
X98720000Y-88510000D02*
X101630000Y-85600000D01*
X104850000Y-83850000D02*
X103300000Y-82300000D01*
X103300000Y-82300000D02*
X99275000Y-82300000D01*
X104850000Y-87250000D02*
X104850000Y-83850000D01*
X117900000Y-100300000D02*
X104850000Y-87250000D01*
X121050000Y-100300000D02*
X117900000Y-100300000D01*
X99275000Y-82300000D02*
X97975000Y-81000000D01*
X105249501Y-87049501D02*
X118100000Y-99900000D01*
X107975000Y-81000000D02*
X105249501Y-83725499D01*
X105249501Y-83725499D02*
X105249501Y-87049501D01*
X118100000Y-99900000D02*
X121050000Y-99900000D01*
X123950000Y-100700000D02*
X123950000Y-102350000D01*
X123950000Y-102350000D02*
X124050000Y-102450000D01*
X118100000Y-71900000D02*
X110000000Y-71900000D01*
X110000000Y-71900000D02*
X105250000Y-76650000D01*
X105250000Y-76650000D02*
X94725000Y-76650000D01*
X94725000Y-76650000D02*
X93575000Y-75500000D01*
X125050000Y-98000000D02*
X125050000Y-78850000D01*
X125050000Y-78850000D02*
X118100000Y-71900000D01*
X123950000Y-99100000D02*
X125050000Y-98000000D01*
X113025000Y-76900000D02*
X111625000Y-75500000D01*
X122535020Y-76900000D02*
X113025000Y-76900000D01*
X123300000Y-98450000D02*
X124650000Y-97100000D01*
X124650000Y-79014980D02*
X122535020Y-76900000D01*
X124650000Y-97100000D02*
X124650000Y-79014980D01*
X122500000Y-98450000D02*
X122500000Y-82100500D01*
X81775000Y-81925000D02*
X81750000Y-81950000D01*
X81775000Y-81000000D02*
X81775000Y-81925000D01*
X124725499Y-99900499D02*
X125900000Y-101075000D01*
X123950499Y-99900499D02*
X124725499Y-99900499D01*
X123950000Y-99900000D02*
X123950499Y-99900499D01*
X125900000Y-101075000D02*
X125900000Y-102200000D01*
X125875000Y-99500000D02*
X123950000Y-99500000D01*
X125900000Y-99525000D02*
X125875000Y-99500000D01*
X131255000Y-93720000D02*
X136400000Y-93720000D01*
X125900000Y-99075000D02*
X131255000Y-93720000D01*
X125900000Y-99525000D02*
X125900000Y-99075000D01*
X66175000Y-76775000D02*
X66200000Y-76800000D01*
X66175000Y-75500000D02*
X66175000Y-76775000D01*
X66200000Y-82200000D02*
X66200000Y-81025000D01*
X66200000Y-81025000D02*
X66175000Y-81000000D01*
X122900000Y-83650000D02*
X123350000Y-83200000D01*
X122900000Y-98450000D02*
X122900000Y-83650000D01*
X122100000Y-97900000D02*
X121350000Y-97150000D01*
X122100000Y-98450000D02*
X122100000Y-97900000D01*
X115850000Y-86275000D02*
X121125000Y-81000000D01*
X115850000Y-96850000D02*
X115850000Y-86275000D01*
X118500000Y-99500000D02*
X115850000Y-96850000D01*
X121050000Y-99500000D02*
X118500000Y-99500000D01*
X66250000Y-86525000D02*
X66225000Y-86500000D01*
X66250000Y-87600000D02*
X66250000Y-86525000D01*
X120300000Y-99100000D02*
X120000000Y-98800000D01*
X121050000Y-99100000D02*
X120300000Y-99100000D01*
X121700000Y-98450000D02*
X121300000Y-98450000D01*
X121300000Y-98450000D02*
X120950000Y-98100000D01*
X78100000Y-86525000D02*
X78125000Y-86500000D01*
X78100000Y-87400000D02*
X78100000Y-86525000D01*
X106275000Y-86625000D02*
X107300000Y-87650000D01*
X106275000Y-86500000D02*
X106275000Y-86625000D01*
X67875000Y-84787500D02*
X67837500Y-84750000D01*
X67875000Y-86500000D02*
X67875000Y-84787500D01*
X66262500Y-83612500D02*
X66250000Y-83600000D01*
X66262500Y-84750000D02*
X66262500Y-83612500D01*
X79775000Y-84800000D02*
X79725000Y-84750000D01*
X79775000Y-86500000D02*
X79775000Y-84800000D01*
X78150000Y-84750000D02*
X78150000Y-83550000D01*
X107925000Y-84787500D02*
X107887500Y-84750000D01*
X107925000Y-86500000D02*
X107925000Y-84787500D01*
X106312500Y-83687500D02*
X106350000Y-83650000D01*
X106312500Y-84750000D02*
X106312500Y-83687500D01*
X122775000Y-79287500D02*
X122737500Y-79250000D01*
X122775000Y-81000000D02*
X122775000Y-79287500D01*
X121162500Y-78112500D02*
X121150000Y-78100000D01*
X121162500Y-79250000D02*
X121162500Y-78112500D01*
X113275000Y-75500000D02*
X113275000Y-73787500D01*
X113275000Y-73787500D02*
X113237500Y-73750000D01*
X111662500Y-72687500D02*
X111700000Y-72650000D01*
X111662500Y-73750000D02*
X111662500Y-72687500D01*
X109625000Y-79287500D02*
X109587500Y-79250000D01*
X109625000Y-81000000D02*
X109625000Y-79287500D01*
X108012500Y-78262500D02*
X108000000Y-78250000D01*
X108012500Y-79250000D02*
X108012500Y-78262500D01*
X99625000Y-79287500D02*
X99587500Y-79250000D01*
X99625000Y-81000000D02*
X99625000Y-79287500D01*
X98012500Y-78137500D02*
X98050000Y-78100000D01*
X98012500Y-79250000D02*
X98012500Y-78137500D01*
X93612500Y-72562500D02*
X93600000Y-72550000D01*
X93612500Y-73750000D02*
X93612500Y-72562500D01*
X83425000Y-79287500D02*
X83387500Y-79250000D01*
X83425000Y-81000000D02*
X83425000Y-79287500D01*
X81812500Y-78162500D02*
X81800000Y-78150000D01*
X81812500Y-79250000D02*
X81812500Y-78162500D01*
X81075000Y-73787500D02*
X81037500Y-73750000D01*
X81075000Y-75500000D02*
X81075000Y-73787500D01*
X79462500Y-72562500D02*
X79450000Y-72550000D01*
X79462500Y-73750000D02*
X79462500Y-72562500D01*
X67825000Y-79287500D02*
X67787500Y-79250000D01*
X67825000Y-81000000D02*
X67825000Y-79287500D01*
X66212500Y-79250000D02*
X66212500Y-78112500D01*
X66212500Y-78112500D02*
X66200000Y-78100000D01*
X67825000Y-73787500D02*
X67787500Y-73750000D01*
X67825000Y-75500000D02*
X67825000Y-73787500D01*
X66212500Y-72612500D02*
X66200000Y-72600000D01*
X66212500Y-73750000D02*
X66212500Y-72612500D01*
X103475000Y-68087500D02*
X103437500Y-68050000D01*
X103475000Y-69800000D02*
X103475000Y-68087500D01*
X101862500Y-67037500D02*
X101900000Y-67000000D01*
X101862500Y-68050000D02*
X101862500Y-67037500D01*
X123950000Y-99900000D02*
X122500000Y-99900000D01*
D29*
X92800000Y-110250000D02*
X94200000Y-110250000D01*
M02*
