G04 #@! TF.GenerationSoftware,KiCad,Pcbnew,8.0.2*
G04 #@! TF.CreationDate,2024-06-12T11:35:42-07:00*
G04 #@! TF.ProjectId,fuck-sao,6675636b-2d73-4616-9f2e-6b696361645f,rev?*
G04 #@! TF.SameCoordinates,Original*
G04 #@! TF.FileFunction,Legend,Bot*
G04 #@! TF.FilePolarity,Positive*
%FSLAX46Y46*%
G04 Gerber Fmt 4.6, Leading zero omitted, Abs format (unit mm)*
G04 Created by KiCad (PCBNEW 8.0.2) date 2024-06-12 11:35:42*
%MOMM*%
%LPD*%
G01*
G04 APERTURE LIST*
G04 Aperture macros list*
%AMRoundRect*
0 Rectangle with rounded corners*
0 $1 Rounding radius*
0 $2 $3 $4 $5 $6 $7 $8 $9 X,Y pos of 4 corners*
0 Add a 4 corners polygon primitive as box body*
4,1,4,$2,$3,$4,$5,$6,$7,$8,$9,$2,$3,0*
0 Add four circle primitives for the rounded corners*
1,1,$1+$1,$2,$3*
1,1,$1+$1,$4,$5*
1,1,$1+$1,$6,$7*
1,1,$1+$1,$8,$9*
0 Add four rect primitives between the rounded corners*
20,1,$1+$1,$2,$3,$4,$5,0*
20,1,$1+$1,$4,$5,$6,$7,0*
20,1,$1+$1,$6,$7,$8,$9,0*
20,1,$1+$1,$8,$9,$2,$3,0*%
G04 Aperture macros list end*
%ADD10C,0.150000*%
%ADD11C,0.300000*%
%ADD12C,0.000000*%
%ADD13C,0.120000*%
%ADD14R,1.700000X1.700000*%
%ADD15O,1.700000X1.700000*%
%ADD16RoundRect,0.050800X0.825000X3.050000X-0.825000X3.050000X-0.825000X-3.050000X0.825000X-3.050000X0*%
%ADD17O,16.101600X16.101600*%
G04 APERTURE END LIST*
D10*
X112710839Y-93622200D02*
X112567982Y-93669819D01*
X112567982Y-93669819D02*
X112329887Y-93669819D01*
X112329887Y-93669819D02*
X112234649Y-93622200D01*
X112234649Y-93622200D02*
X112187030Y-93574580D01*
X112187030Y-93574580D02*
X112139411Y-93479342D01*
X112139411Y-93479342D02*
X112139411Y-93384104D01*
X112139411Y-93384104D02*
X112187030Y-93288866D01*
X112187030Y-93288866D02*
X112234649Y-93241247D01*
X112234649Y-93241247D02*
X112329887Y-93193628D01*
X112329887Y-93193628D02*
X112520363Y-93146009D01*
X112520363Y-93146009D02*
X112615601Y-93098390D01*
X112615601Y-93098390D02*
X112663220Y-93050771D01*
X112663220Y-93050771D02*
X112710839Y-92955533D01*
X112710839Y-92955533D02*
X112710839Y-92860295D01*
X112710839Y-92860295D02*
X112663220Y-92765057D01*
X112663220Y-92765057D02*
X112615601Y-92717438D01*
X112615601Y-92717438D02*
X112520363Y-92669819D01*
X112520363Y-92669819D02*
X112282268Y-92669819D01*
X112282268Y-92669819D02*
X112139411Y-92717438D01*
X111806077Y-93003152D02*
X111615601Y-93669819D01*
X111615601Y-93669819D02*
X111425125Y-93193628D01*
X111425125Y-93193628D02*
X111234649Y-93669819D01*
X111234649Y-93669819D02*
X111044173Y-93003152D01*
X110663220Y-93669819D02*
X110663220Y-93003152D01*
X110663220Y-92669819D02*
X110710839Y-92717438D01*
X110710839Y-92717438D02*
X110663220Y-92765057D01*
X110663220Y-92765057D02*
X110615601Y-92717438D01*
X110615601Y-92717438D02*
X110663220Y-92669819D01*
X110663220Y-92669819D02*
X110663220Y-92765057D01*
X110329887Y-93003152D02*
X109948935Y-93003152D01*
X110187030Y-92669819D02*
X110187030Y-93526961D01*
X110187030Y-93526961D02*
X110139411Y-93622200D01*
X110139411Y-93622200D02*
X110044173Y-93669819D01*
X110044173Y-93669819D02*
X109948935Y-93669819D01*
X109187030Y-93622200D02*
X109282268Y-93669819D01*
X109282268Y-93669819D02*
X109472744Y-93669819D01*
X109472744Y-93669819D02*
X109567982Y-93622200D01*
X109567982Y-93622200D02*
X109615601Y-93574580D01*
X109615601Y-93574580D02*
X109663220Y-93479342D01*
X109663220Y-93479342D02*
X109663220Y-93193628D01*
X109663220Y-93193628D02*
X109615601Y-93098390D01*
X109615601Y-93098390D02*
X109567982Y-93050771D01*
X109567982Y-93050771D02*
X109472744Y-93003152D01*
X109472744Y-93003152D02*
X109282268Y-93003152D01*
X109282268Y-93003152D02*
X109187030Y-93050771D01*
X108758458Y-93669819D02*
X108758458Y-92669819D01*
X108329887Y-93669819D02*
X108329887Y-93146009D01*
X108329887Y-93146009D02*
X108377506Y-93050771D01*
X108377506Y-93050771D02*
X108472744Y-93003152D01*
X108472744Y-93003152D02*
X108615601Y-93003152D01*
X108615601Y-93003152D02*
X108710839Y-93050771D01*
X108710839Y-93050771D02*
X108758458Y-93098390D01*
X113300000Y-91250000D02*
X121450000Y-91250000D01*
X121450000Y-94800000D01*
X113300000Y-94800000D01*
X113300000Y-91250000D01*
X122319819Y-88136779D02*
X123129342Y-88136779D01*
X123129342Y-88136779D02*
X123224580Y-88184398D01*
X123224580Y-88184398D02*
X123272200Y-88232017D01*
X123272200Y-88232017D02*
X123319819Y-88327255D01*
X123319819Y-88327255D02*
X123319819Y-88517731D01*
X123319819Y-88517731D02*
X123272200Y-88612969D01*
X123272200Y-88612969D02*
X123224580Y-88660588D01*
X123224580Y-88660588D02*
X123129342Y-88708207D01*
X123129342Y-88708207D02*
X122319819Y-88708207D01*
X123319819Y-89184398D02*
X122319819Y-89184398D01*
X122319819Y-89184398D02*
X122319819Y-89565350D01*
X122319819Y-89565350D02*
X122367438Y-89660588D01*
X122367438Y-89660588D02*
X122415057Y-89708207D01*
X122415057Y-89708207D02*
X122510295Y-89755826D01*
X122510295Y-89755826D02*
X122653152Y-89755826D01*
X122653152Y-89755826D02*
X122748390Y-89708207D01*
X122748390Y-89708207D02*
X122796009Y-89660588D01*
X122796009Y-89660588D02*
X122843628Y-89565350D01*
X122843628Y-89565350D02*
X122843628Y-89184398D01*
X123319819Y-90184398D02*
X122319819Y-90184398D01*
X122319819Y-90184398D02*
X122319819Y-90422493D01*
X122319819Y-90422493D02*
X122367438Y-90565350D01*
X122367438Y-90565350D02*
X122462676Y-90660588D01*
X122462676Y-90660588D02*
X122557914Y-90708207D01*
X122557914Y-90708207D02*
X122748390Y-90755826D01*
X122748390Y-90755826D02*
X122891247Y-90755826D01*
X122891247Y-90755826D02*
X123081723Y-90708207D01*
X123081723Y-90708207D02*
X123176961Y-90660588D01*
X123176961Y-90660588D02*
X123272200Y-90565350D01*
X123272200Y-90565350D02*
X123319819Y-90422493D01*
X123319819Y-90422493D02*
X123319819Y-90184398D01*
X123319819Y-91184398D02*
X122319819Y-91184398D01*
G36*
X93535229Y-61705165D02*
G01*
X93673394Y-61765729D01*
X93681227Y-61770914D01*
X93794800Y-61869466D01*
X93881310Y-61989142D01*
X93886391Y-61998060D01*
X93948561Y-62133259D01*
X93992477Y-62275881D01*
X94005826Y-62335115D01*
X94029491Y-62483149D01*
X94042233Y-62638189D01*
X94044660Y-62745443D01*
X94040331Y-62905234D01*
X94027344Y-63055155D01*
X94008024Y-63182882D01*
X93970768Y-63333959D01*
X93915230Y-63476372D01*
X93891520Y-63522135D01*
X93800662Y-63647798D01*
X93686356Y-63741953D01*
X93547687Y-63800755D01*
X93394726Y-63820279D01*
X93383739Y-63820355D01*
X93231562Y-63802001D01*
X93092664Y-63741963D01*
X93084786Y-63736824D01*
X92969931Y-63637723D01*
X92882551Y-63517864D01*
X92877424Y-63508946D01*
X92814392Y-63374026D01*
X92770430Y-63232168D01*
X92757256Y-63173356D01*
X92733145Y-63025116D01*
X92720162Y-62869457D01*
X92717689Y-62761563D01*
X92722018Y-62603109D01*
X92735005Y-62454180D01*
X92754325Y-62327055D01*
X92790874Y-62175382D01*
X92846733Y-62032328D01*
X92870829Y-61986336D01*
X92956009Y-61866552D01*
X93069582Y-61770015D01*
X93077459Y-61765052D01*
X93217410Y-61706250D01*
X93372571Y-61686726D01*
X93383739Y-61686650D01*
X93535229Y-61705165D01*
G37*
G36*
X105057843Y-62280358D02*
G01*
X105127179Y-62305806D01*
X105252588Y-62387930D01*
X105294242Y-62430369D01*
X105377486Y-62555772D01*
X105407082Y-62623077D01*
X105446794Y-62764824D01*
X105460571Y-62870739D01*
X104372469Y-62870739D01*
X104379199Y-62718904D01*
X104399580Y-62624542D01*
X104461888Y-62485633D01*
X104501429Y-62432568D01*
X104618230Y-62334874D01*
X104673621Y-62306538D01*
X104815014Y-62267498D01*
X104912490Y-62261109D01*
X105057843Y-62280358D01*
G37*
G36*
X109679072Y-62300493D02*
G01*
X109804918Y-62348304D01*
X109926191Y-62438374D01*
X109992497Y-62517564D01*
X110062641Y-62647394D01*
X110100208Y-62763761D01*
X110126508Y-62916388D01*
X110133914Y-63057585D01*
X110126900Y-63206420D01*
X110101376Y-63358920D01*
X110091415Y-63396106D01*
X110036335Y-63536605D01*
X109971248Y-63637906D01*
X109860365Y-63740202D01*
X109781471Y-63783719D01*
X109639139Y-63824098D01*
X109530145Y-63832079D01*
X109380669Y-63816325D01*
X109254639Y-63769064D01*
X109133367Y-63678640D01*
X109067061Y-63599804D01*
X108997148Y-63469613D01*
X108960082Y-63353607D01*
X108934254Y-63209260D01*
X108925644Y-63057585D01*
X108932658Y-62908517D01*
X108958182Y-62756651D01*
X108968142Y-62719797D01*
X109023430Y-62579870D01*
X109089043Y-62478729D01*
X109200211Y-62376720D01*
X109279552Y-62333649D01*
X109421979Y-62292659D01*
X109530145Y-62284556D01*
X109679072Y-62300493D01*
G37*
G36*
X130430767Y-62280358D02*
G01*
X130500103Y-62305806D01*
X130625512Y-62387930D01*
X130667166Y-62430369D01*
X130750410Y-62555772D01*
X130780006Y-62623077D01*
X130819718Y-62764824D01*
X130833495Y-62870739D01*
X129745393Y-62870739D01*
X129752123Y-62718904D01*
X129772504Y-62624542D01*
X129834812Y-62485633D01*
X129874353Y-62432568D01*
X129991154Y-62334874D01*
X130046544Y-62306538D01*
X130187938Y-62267498D01*
X130285414Y-62261109D01*
X130430767Y-62280358D01*
G37*
G36*
X96153453Y-63199002D02*
G01*
X95242671Y-63199002D01*
X95698429Y-61755526D01*
X96153453Y-63199002D01*
G37*
G36*
X101608433Y-56665165D02*
G01*
X101746598Y-56725729D01*
X101754431Y-56730914D01*
X101868004Y-56829466D01*
X101954514Y-56949142D01*
X101959595Y-56958060D01*
X102021765Y-57093259D01*
X102065681Y-57235881D01*
X102079029Y-57295115D01*
X102102694Y-57443149D01*
X102115437Y-57598189D01*
X102117864Y-57705443D01*
X102113535Y-57865234D01*
X102100548Y-58015155D01*
X102081228Y-58142882D01*
X102043972Y-58293959D01*
X101988434Y-58436372D01*
X101964724Y-58482135D01*
X101873865Y-58607798D01*
X101759560Y-58701953D01*
X101620891Y-58760755D01*
X101467930Y-58780279D01*
X101456943Y-58780355D01*
X101304766Y-58762001D01*
X101165868Y-58701963D01*
X101157990Y-58696824D01*
X101043134Y-58597723D01*
X100955754Y-58477864D01*
X100950627Y-58468946D01*
X100887596Y-58334026D01*
X100843633Y-58192168D01*
X100830460Y-58133356D01*
X100806349Y-57985116D01*
X100793366Y-57829457D01*
X100790893Y-57721563D01*
X100795222Y-57563109D01*
X100808209Y-57414180D01*
X100827529Y-57287055D01*
X100864077Y-57135382D01*
X100919937Y-56992328D01*
X100944033Y-56946336D01*
X101029213Y-56826552D01*
X101142785Y-56730015D01*
X101150662Y-56725052D01*
X101290613Y-56666250D01*
X101445774Y-56646726D01*
X101456943Y-56646650D01*
X101608433Y-56665165D01*
G37*
G36*
X110824417Y-57240358D02*
G01*
X110893754Y-57265806D01*
X111019162Y-57347930D01*
X111060816Y-57390369D01*
X111144061Y-57515772D01*
X111173656Y-57583077D01*
X111213369Y-57724824D01*
X111227145Y-57830739D01*
X110139043Y-57830739D01*
X110145773Y-57678904D01*
X110166154Y-57584542D01*
X110228462Y-57445633D01*
X110268004Y-57392568D01*
X110384804Y-57294874D01*
X110440195Y-57266538D01*
X110581588Y-57227498D01*
X110679064Y-57221109D01*
X110824417Y-57240358D01*
G37*
G36*
X122357564Y-57240358D02*
G01*
X122426901Y-57265806D01*
X122552309Y-57347930D01*
X122593963Y-57390369D01*
X122677208Y-57515772D01*
X122706803Y-57583077D01*
X122746516Y-57724824D01*
X122760292Y-57830739D01*
X121672191Y-57830739D01*
X121678920Y-57678904D01*
X121699302Y-57584542D01*
X121761609Y-57445633D01*
X121801151Y-57392568D01*
X121917952Y-57294874D01*
X121973342Y-57266538D01*
X122114736Y-57227498D01*
X122212212Y-57221109D01*
X122357564Y-57240358D01*
G37*
G36*
X129287986Y-56665165D02*
G01*
X129426152Y-56725729D01*
X129433984Y-56730914D01*
X129547557Y-56829466D01*
X129634068Y-56949142D01*
X129639148Y-56958060D01*
X129701318Y-57093259D01*
X129745234Y-57235881D01*
X129758583Y-57295115D01*
X129782248Y-57443149D01*
X129794990Y-57598189D01*
X129797417Y-57705443D01*
X129793088Y-57865234D01*
X129780101Y-58015155D01*
X129760781Y-58142882D01*
X129723526Y-58293959D01*
X129667987Y-58436372D01*
X129644277Y-58482135D01*
X129553419Y-58607798D01*
X129439113Y-58701953D01*
X129300444Y-58760755D01*
X129147484Y-58780279D01*
X129136496Y-58780355D01*
X128984319Y-58762001D01*
X128845421Y-58701963D01*
X128837543Y-58696824D01*
X128722688Y-58597723D01*
X128635308Y-58477864D01*
X128630181Y-58468946D01*
X128567149Y-58334026D01*
X128523187Y-58192168D01*
X128510013Y-58133356D01*
X128485902Y-57985116D01*
X128472919Y-57829457D01*
X128470446Y-57721563D01*
X128474775Y-57563109D01*
X128487762Y-57414180D01*
X128507082Y-57287055D01*
X128543631Y-57135382D01*
X128599490Y-56992328D01*
X128623586Y-56946336D01*
X128708766Y-56826552D01*
X128822339Y-56730015D01*
X128830216Y-56725052D01*
X128970167Y-56666250D01*
X129125328Y-56646726D01*
X129136496Y-56646650D01*
X129287986Y-56665165D01*
G37*
G36*
X104226657Y-58159002D02*
G01*
X103315875Y-58159002D01*
X103771632Y-56715526D01*
X104226657Y-58159002D01*
G37*
G36*
X105388031Y-54029783D02*
G01*
X105456907Y-54124305D01*
X105491346Y-54220293D01*
X105501604Y-54317013D01*
X105458590Y-54460772D01*
X105349196Y-54547090D01*
X105205654Y-54594056D01*
X105053403Y-54615096D01*
X104924946Y-54619630D01*
X104776440Y-54612224D01*
X104637717Y-54585924D01*
X104498996Y-54530197D01*
X104450138Y-54497997D01*
X104353687Y-54385754D01*
X104347556Y-54372700D01*
X104316782Y-54229085D01*
X104357139Y-54086489D01*
X104420096Y-54027585D01*
X104560109Y-53974378D01*
X104709038Y-53954341D01*
X104735170Y-53952847D01*
X105275191Y-53934528D01*
X105388031Y-54029783D01*
G37*
G36*
X105092741Y-52189993D02*
G01*
X105135972Y-52206022D01*
X105261956Y-52287366D01*
X105276656Y-52302009D01*
X105357253Y-52425229D01*
X105363118Y-52439762D01*
X105392170Y-52587282D01*
X105392427Y-52603161D01*
X105370660Y-52749689D01*
X105359454Y-52780481D01*
X105278027Y-52907312D01*
X105267131Y-52918234D01*
X105140777Y-53000035D01*
X105125714Y-53006161D01*
X104981939Y-53035854D01*
X104945463Y-53036936D01*
X104798184Y-53017152D01*
X104754953Y-53001765D01*
X104629531Y-52920581D01*
X104615002Y-52905778D01*
X104534280Y-52781105D01*
X104528540Y-52766559D01*
X104498762Y-52619040D01*
X104498498Y-52603161D01*
X104520266Y-52456632D01*
X104531471Y-52425840D01*
X104613500Y-52299611D01*
X104624528Y-52288820D01*
X104750155Y-52206895D01*
X104765212Y-52200893D01*
X104908987Y-52170493D01*
X104945463Y-52169385D01*
X105092741Y-52189993D01*
G37*
G36*
X114614549Y-54029783D02*
G01*
X114683425Y-54124305D01*
X114717863Y-54220293D01*
X114728122Y-54317013D01*
X114685108Y-54460772D01*
X114575714Y-54547090D01*
X114432171Y-54594056D01*
X114279921Y-54615096D01*
X114151464Y-54619630D01*
X114002958Y-54612224D01*
X113864235Y-54585924D01*
X113725514Y-54530197D01*
X113676656Y-54497997D01*
X113580205Y-54385754D01*
X113574074Y-54372700D01*
X113543300Y-54229085D01*
X113583657Y-54086489D01*
X113646614Y-54027585D01*
X113786627Y-53974378D01*
X113935555Y-53954341D01*
X113961688Y-53952847D01*
X114501708Y-53934528D01*
X114614549Y-54029783D01*
G37*
G36*
X114319259Y-52189993D02*
G01*
X114362490Y-52206022D01*
X114488474Y-52287366D01*
X114503174Y-52302009D01*
X114583771Y-52425229D01*
X114589636Y-52439762D01*
X114618687Y-52587282D01*
X114618945Y-52603161D01*
X114597178Y-52749689D01*
X114585972Y-52780481D01*
X114504545Y-52907312D01*
X114493648Y-52918234D01*
X114367295Y-53000035D01*
X114352232Y-53006161D01*
X114208457Y-53035854D01*
X114171981Y-53036936D01*
X114024702Y-53017152D01*
X113981471Y-53001765D01*
X113856049Y-52920581D01*
X113841520Y-52905778D01*
X113760798Y-52781105D01*
X113755058Y-52766559D01*
X113725280Y-52619040D01*
X113725016Y-52603161D01*
X113746783Y-52456632D01*
X113757989Y-52425840D01*
X113840018Y-52299611D01*
X113851045Y-52288820D01*
X113976673Y-52206895D01*
X113991729Y-52200893D01*
X114135504Y-52170493D01*
X114171981Y-52169385D01*
X114319259Y-52189993D01*
G37*
G36*
X130760955Y-54029783D02*
G01*
X130829831Y-54124305D01*
X130864269Y-54220293D01*
X130874528Y-54317013D01*
X130831514Y-54460772D01*
X130722120Y-54547090D01*
X130578578Y-54594056D01*
X130426327Y-54615096D01*
X130297870Y-54619630D01*
X130149364Y-54612224D01*
X130010641Y-54585924D01*
X129871920Y-54530197D01*
X129823062Y-54497997D01*
X129726611Y-54385754D01*
X129720480Y-54372700D01*
X129689706Y-54229085D01*
X129730063Y-54086489D01*
X129793020Y-54027585D01*
X129933033Y-53974378D01*
X130081962Y-53954341D01*
X130108094Y-53952847D01*
X130648115Y-53934528D01*
X130760955Y-54029783D01*
G37*
G36*
X130465665Y-52189993D02*
G01*
X130508896Y-52206022D01*
X130634880Y-52287366D01*
X130649580Y-52302009D01*
X130730177Y-52425229D01*
X130736042Y-52439762D01*
X130765094Y-52587282D01*
X130765351Y-52603161D01*
X130743584Y-52749689D01*
X130732378Y-52780481D01*
X130650951Y-52907312D01*
X130640055Y-52918234D01*
X130513701Y-53000035D01*
X130498638Y-53006161D01*
X130354863Y-53035854D01*
X130318387Y-53036936D01*
X130171108Y-53017152D01*
X130127877Y-53001765D01*
X130002455Y-52920581D01*
X129987926Y-52905778D01*
X129907204Y-52781105D01*
X129901464Y-52766559D01*
X129871686Y-52619040D01*
X129871422Y-52603161D01*
X129893190Y-52456632D01*
X129904395Y-52425840D01*
X129986424Y-52299611D01*
X129997452Y-52288820D01*
X130123079Y-52206895D01*
X130138136Y-52200893D01*
X130281911Y-52170493D01*
X130318387Y-52169385D01*
X130465665Y-52189993D01*
G37*
G36*
X95839296Y-52220493D02*
G01*
X95965142Y-52268304D01*
X96086414Y-52358374D01*
X96152720Y-52437564D01*
X96222865Y-52567394D01*
X96260431Y-52683761D01*
X96286731Y-52836388D01*
X96294137Y-52977585D01*
X96287123Y-53126420D01*
X96261599Y-53278920D01*
X96251639Y-53316106D01*
X96196558Y-53456605D01*
X96131471Y-53557906D01*
X96020589Y-53660202D01*
X95941694Y-53703719D01*
X95799363Y-53744098D01*
X95690369Y-53752079D01*
X95540892Y-53736325D01*
X95414863Y-53689064D01*
X95293590Y-53598640D01*
X95227284Y-53519804D01*
X95157372Y-53389613D01*
X95120306Y-53273607D01*
X95094477Y-53129260D01*
X95085868Y-52977585D01*
X95092881Y-52828517D01*
X95118405Y-52676651D01*
X95128366Y-52639797D01*
X95183653Y-52499870D01*
X95249266Y-52398729D01*
X95360435Y-52296720D01*
X95439775Y-52253649D01*
X95582202Y-52212659D01*
X95690369Y-52204556D01*
X95839296Y-52220493D01*
G37*
G36*
X102751213Y-52200358D02*
G01*
X102820550Y-52225806D01*
X102945958Y-52307930D01*
X102987612Y-52350369D01*
X103070857Y-52475772D01*
X103100452Y-52543077D01*
X103140165Y-52684824D01*
X103153942Y-52790739D01*
X102065840Y-52790739D01*
X102072569Y-52638904D01*
X102092951Y-52544542D01*
X102155258Y-52405633D01*
X102194800Y-52352568D01*
X102311601Y-52254874D01*
X102366991Y-52226538D01*
X102508385Y-52187498D01*
X102605861Y-52181109D01*
X102751213Y-52200358D01*
G37*
G36*
X107326155Y-52208134D02*
G01*
X107474075Y-52261028D01*
X107596807Y-52351703D01*
X107628715Y-52386273D01*
X107707701Y-52512413D01*
X107756210Y-52653635D01*
X107781901Y-52799669D01*
X107791954Y-52966671D01*
X107792113Y-52992240D01*
X107786854Y-53150570D01*
X107767963Y-53308680D01*
X107730289Y-53457431D01*
X107682204Y-53563768D01*
X107586342Y-53678520D01*
X107453423Y-53743068D01*
X107369329Y-53752079D01*
X107220752Y-53717131D01*
X107091563Y-53635866D01*
X107082099Y-53628248D01*
X106966179Y-53518030D01*
X106866273Y-53400521D01*
X106773789Y-53274819D01*
X106763362Y-53259685D01*
X106763362Y-52279295D01*
X106907069Y-52227088D01*
X106959734Y-52214815D01*
X107105790Y-52194979D01*
X107171492Y-52192833D01*
X107326155Y-52208134D01*
G37*
G36*
X109678763Y-53082697D02*
G01*
X109756558Y-53099218D01*
X109890994Y-53157561D01*
X109915560Y-53175422D01*
X110007152Y-53294124D01*
X110036346Y-53438723D01*
X110036461Y-53449462D01*
X110018142Y-53563768D01*
X109958791Y-53660488D01*
X109851080Y-53727899D01*
X109702316Y-53751985D01*
X109690613Y-53752079D01*
X109539943Y-53728431D01*
X109407047Y-53677341D01*
X109274360Y-53601630D01*
X109146728Y-53506198D01*
X109069992Y-53439204D01*
X109069992Y-53072107D01*
X109525749Y-53072107D01*
X109678763Y-53082697D01*
G37*
G36*
X112304256Y-53705184D02*
G01*
X111916642Y-53705184D01*
X111769135Y-53697949D01*
X111612958Y-53668554D01*
X111477362Y-53610103D01*
X111446963Y-53589413D01*
X111346862Y-53473824D01*
X111299756Y-53328915D01*
X111292357Y-53227445D01*
X111318744Y-53081526D01*
X111335588Y-53044996D01*
X111431959Y-52929760D01*
X111461618Y-52907976D01*
X111598513Y-52840499D01*
X111662385Y-52821514D01*
X111813677Y-52795818D01*
X111929099Y-52790739D01*
X112304256Y-52790739D01*
X112304256Y-53705184D01*
G37*
G36*
X112304256Y-52485924D02*
G01*
X111937159Y-52485924D01*
X111789697Y-52475620D01*
X111710013Y-52459546D01*
X111573038Y-52402805D01*
X111534891Y-52376748D01*
X111434716Y-52262953D01*
X111421318Y-52237529D01*
X111383536Y-52094098D01*
X111381018Y-52038227D01*
X111402914Y-51891352D01*
X111405930Y-51882156D01*
X111488537Y-51760131D01*
X111492392Y-51756859D01*
X111621433Y-51685641D01*
X111659454Y-51673328D01*
X111812183Y-51646252D01*
X111924702Y-51641821D01*
X112304256Y-51641821D01*
X112304256Y-52485924D01*
G37*
G36*
X135370550Y-53705184D02*
G01*
X134982937Y-53705184D01*
X134835429Y-53697949D01*
X134679252Y-53668554D01*
X134543657Y-53610103D01*
X134513258Y-53589413D01*
X134413156Y-53473824D01*
X134366050Y-53328915D01*
X134358652Y-53227445D01*
X134385038Y-53081526D01*
X134401883Y-53044996D01*
X134498254Y-52929760D01*
X134527912Y-52907976D01*
X134664808Y-52840499D01*
X134728680Y-52821514D01*
X134879971Y-52795818D01*
X134995393Y-52790739D01*
X135370550Y-52790739D01*
X135370550Y-53705184D01*
G37*
G36*
X135370550Y-52485924D02*
G01*
X135003453Y-52485924D01*
X134855991Y-52475620D01*
X134776307Y-52459546D01*
X134639333Y-52402805D01*
X134601185Y-52376748D01*
X134501011Y-52262953D01*
X134487612Y-52237529D01*
X134449831Y-52094098D01*
X134447312Y-52038227D01*
X134469208Y-51891352D01*
X134472225Y-51882156D01*
X134554831Y-51760131D01*
X134558687Y-51756859D01*
X134687727Y-51685641D01*
X134725749Y-51673328D01*
X134878477Y-51646252D01*
X134990997Y-51641821D01*
X135370550Y-51641821D01*
X135370550Y-52485924D01*
G37*
G36*
X136218991Y-64470227D02*
G01*
X92003337Y-64470227D01*
X92003337Y-62735917D01*
X92336670Y-62735917D01*
X92337353Y-62761563D01*
X92340772Y-62889865D01*
X92355507Y-63054214D01*
X92380958Y-63206198D01*
X92422399Y-63362400D01*
X92475021Y-63503533D01*
X92544773Y-63643352D01*
X92626403Y-63765283D01*
X92653209Y-63798374D01*
X92758839Y-63905861D01*
X92887502Y-63999422D01*
X92993195Y-64053363D01*
X93142019Y-64104265D01*
X93297231Y-64131673D01*
X93404256Y-64136894D01*
X93559860Y-64127735D01*
X93715984Y-64096502D01*
X93733076Y-64090000D01*
X94550243Y-64090000D01*
X94950313Y-64090000D01*
X95137891Y-63527264D01*
X96258966Y-63527264D01*
X96448743Y-64090000D01*
X96829761Y-64090000D01*
X96588928Y-63370460D01*
X97102336Y-63370460D01*
X97115276Y-63518579D01*
X97158152Y-63660511D01*
X97180738Y-63706782D01*
X97267764Y-63830956D01*
X97381838Y-63934200D01*
X97399092Y-63946385D01*
X97532488Y-64021117D01*
X97675947Y-64073935D01*
X97736147Y-64090000D01*
X97889195Y-64118576D01*
X98039628Y-64133185D01*
X98169922Y-64136894D01*
X98316671Y-64132738D01*
X98383146Y-64128101D01*
X98531710Y-64114244D01*
X98587577Y-64107585D01*
X98733139Y-64085886D01*
X98771492Y-64079009D01*
X98914965Y-64046658D01*
X98928296Y-64043105D01*
X98928296Y-63684801D01*
X98785723Y-63730682D01*
X98640274Y-63764747D01*
X98580983Y-63775659D01*
X98429033Y-63795752D01*
X98276711Y-63806024D01*
X98142811Y-63808632D01*
X97988165Y-63802675D01*
X97840927Y-63781521D01*
X97697002Y-63733931D01*
X97637228Y-63700188D01*
X97533750Y-63591996D01*
X97521457Y-63568297D01*
X97486430Y-63421581D01*
X97485554Y-63390976D01*
X97519763Y-63245347D01*
X97546370Y-63204863D01*
X97653477Y-63101920D01*
X97706105Y-63066378D01*
X97840629Y-62994650D01*
X97931785Y-62955736D01*
X97995790Y-62930090D01*
X103999510Y-62930090D01*
X104001708Y-63056852D01*
X104007570Y-63152107D01*
X105460571Y-63152107D01*
X105449488Y-63306713D01*
X105410526Y-63457872D01*
X105334334Y-63597549D01*
X105283251Y-63656224D01*
X105157184Y-63748960D01*
X105017662Y-63803056D01*
X104872913Y-63827786D01*
X104772539Y-63832079D01*
X104624894Y-63827242D01*
X104590822Y-63824752D01*
X104442193Y-63807499D01*
X104415700Y-63803503D01*
X104268990Y-63777190D01*
X104254500Y-63774193D01*
X104110885Y-63738290D01*
X104110885Y-64031381D01*
X104256644Y-64071481D01*
X104407792Y-64101935D01*
X104442078Y-64107585D01*
X104593807Y-64126562D01*
X104750131Y-64135864D01*
X104823830Y-64136894D01*
X104982841Y-64129810D01*
X105141058Y-64105654D01*
X105281785Y-64064354D01*
X105415634Y-64000778D01*
X105539009Y-63911207D01*
X105596126Y-63854061D01*
X105685027Y-63731383D01*
X105752887Y-63588390D01*
X105777110Y-63515540D01*
X105810483Y-63371782D01*
X105830004Y-63215557D01*
X105835728Y-63062714D01*
X105828282Y-62914446D01*
X105803175Y-62759216D01*
X105772713Y-62647257D01*
X105717415Y-62506779D01*
X105639370Y-62369944D01*
X105589531Y-62302875D01*
X105482351Y-62192178D01*
X105357273Y-62101798D01*
X105293509Y-62066936D01*
X105188812Y-62026636D01*
X106386740Y-62026636D01*
X106386740Y-62331451D01*
X107315840Y-62331451D01*
X107315840Y-63387313D01*
X107299250Y-63539056D01*
X107237961Y-63675979D01*
X107197870Y-63721437D01*
X107061954Y-63800853D01*
X106917750Y-63829378D01*
X106848359Y-63832079D01*
X106696700Y-63826401D01*
X106632204Y-63821088D01*
X106481021Y-63801568D01*
X106386740Y-63785184D01*
X106386740Y-64090000D01*
X106534020Y-64114675D01*
X106638066Y-64125903D01*
X106785361Y-64134790D01*
X106901848Y-64136894D01*
X107062638Y-64128444D01*
X107223300Y-64098093D01*
X107374595Y-64037564D01*
X107482902Y-63960307D01*
X107575348Y-63845610D01*
X107637539Y-63701007D01*
X107667421Y-63547362D01*
X107674144Y-63416622D01*
X107674144Y-63041465D01*
X108559280Y-63041465D01*
X108560005Y-63057585D01*
X108565935Y-63189499D01*
X108588627Y-63343080D01*
X108627424Y-63486964D01*
X108686534Y-63630499D01*
X108762750Y-63757753D01*
X108823062Y-63833545D01*
X108935963Y-63939711D01*
X109067487Y-64024835D01*
X109134472Y-64057027D01*
X109278865Y-64105696D01*
X109423536Y-64130576D01*
X109550662Y-64136894D01*
X109697930Y-64128669D01*
X109846342Y-64100934D01*
X109879786Y-64090000D01*
X110919399Y-64090000D01*
X111397138Y-64090000D01*
X112182623Y-62422309D01*
X112409036Y-61885952D01*
X112409036Y-63234905D01*
X112409036Y-64090000D01*
X112751220Y-64090000D01*
X115419085Y-64090000D01*
X115911478Y-64090000D01*
X116876482Y-62982847D01*
X116876482Y-64090000D01*
X117234786Y-64090000D01*
X117234786Y-62085254D01*
X117979238Y-62085254D01*
X117979238Y-62425240D01*
X118114610Y-62361859D01*
X118252546Y-62318262D01*
X118402947Y-62291962D01*
X118539775Y-62284556D01*
X118690471Y-62301713D01*
X118800627Y-62338778D01*
X118929015Y-62414023D01*
X119016049Y-62493384D01*
X119103390Y-62612863D01*
X119162595Y-62739581D01*
X119200988Y-62883966D01*
X119215614Y-63033831D01*
X119216084Y-63067843D01*
X119207353Y-63226279D01*
X119175995Y-63384766D01*
X119113456Y-63534271D01*
X119033634Y-63641570D01*
X118905793Y-63742034D01*
X118767121Y-63800638D01*
X118606076Y-63829102D01*
X118527319Y-63832079D01*
X118374874Y-63822153D01*
X118244486Y-63796908D01*
X118101383Y-63749613D01*
X117979238Y-63691395D01*
X117979238Y-64031381D01*
X118121204Y-64077909D01*
X118267200Y-64110516D01*
X118416677Y-64130300D01*
X118570550Y-64136894D01*
X118718455Y-64130311D01*
X118881396Y-64105032D01*
X118931370Y-64090000D01*
X120230180Y-64090000D01*
X120551848Y-64090000D01*
X120564304Y-63757341D01*
X120665387Y-63869165D01*
X120740159Y-63939790D01*
X120859857Y-64029682D01*
X120906489Y-64057027D01*
X121046018Y-64112436D01*
X121072085Y-64118576D01*
X121219825Y-64136447D01*
X121248673Y-64136894D01*
X121398607Y-64125170D01*
X121543855Y-64083954D01*
X121676147Y-64003354D01*
X121730808Y-63949316D01*
X121816589Y-63812945D01*
X121866628Y-63658276D01*
X121889503Y-63495392D01*
X121893474Y-63381451D01*
X121893474Y-62026636D01*
X121535170Y-62026636D01*
X121535170Y-63354340D01*
X121522547Y-63516697D01*
X121475915Y-63663657D01*
X121380545Y-63775627D01*
X121240297Y-63827880D01*
X121176133Y-63832079D01*
X121047905Y-63812295D01*
X120916014Y-63744152D01*
X120801436Y-63647570D01*
X120767270Y-63612993D01*
X120666323Y-63499430D01*
X120589217Y-63404166D01*
X120589217Y-62026636D01*
X120230180Y-62026636D01*
X120230180Y-64090000D01*
X118931370Y-64090000D01*
X119028468Y-64060793D01*
X119179997Y-63985219D01*
X119309928Y-63883839D01*
X119326726Y-63867250D01*
X119429794Y-63737395D01*
X119497989Y-63607169D01*
X119547586Y-63459479D01*
X119578583Y-63294323D01*
X119590208Y-63143351D01*
X119591241Y-63079567D01*
X119583799Y-62928442D01*
X119558423Y-62772783D01*
X119515037Y-62628206D01*
X119448782Y-62484225D01*
X119365423Y-62356730D01*
X119300348Y-62280893D01*
X119189408Y-62181906D01*
X119063218Y-62101466D01*
X118970620Y-62058143D01*
X118821178Y-62010367D01*
X118674594Y-61985943D01*
X118547835Y-61979741D01*
X118392497Y-61985969D01*
X118247417Y-62004654D01*
X118102027Y-62039444D01*
X117979238Y-62085254D01*
X117234786Y-62085254D01*
X117234786Y-61733545D01*
X122588833Y-61733545D01*
X123732623Y-61733545D01*
X123732623Y-62612819D01*
X122648184Y-62612819D01*
X122648184Y-62917634D01*
X123732623Y-62917634D01*
X123732623Y-64090000D01*
X124107047Y-64090000D01*
X124107047Y-62930090D01*
X129372434Y-62930090D01*
X129374632Y-63056852D01*
X129380494Y-63152107D01*
X130833495Y-63152107D01*
X130822412Y-63306713D01*
X130783450Y-63457872D01*
X130707258Y-63597549D01*
X130656175Y-63656224D01*
X130530108Y-63748960D01*
X130390586Y-63803056D01*
X130245837Y-63827786D01*
X130145463Y-63832079D01*
X129997818Y-63827242D01*
X129963746Y-63824752D01*
X129815117Y-63807499D01*
X129788624Y-63803503D01*
X129641914Y-63777190D01*
X129627424Y-63774193D01*
X129483809Y-63738290D01*
X129483809Y-64031381D01*
X129629568Y-64071481D01*
X129780716Y-64101935D01*
X129815002Y-64107585D01*
X129966731Y-64126562D01*
X130123054Y-64135864D01*
X130196754Y-64136894D01*
X130355764Y-64129810D01*
X130513982Y-64105654D01*
X130654709Y-64064354D01*
X130788558Y-64000778D01*
X130911933Y-63911207D01*
X130969050Y-63854061D01*
X131057951Y-63731383D01*
X131125811Y-63588390D01*
X131150034Y-63515540D01*
X131183407Y-63371782D01*
X131202927Y-63215557D01*
X131208652Y-63062714D01*
X131201206Y-62914446D01*
X131176098Y-62759216D01*
X131170158Y-62737383D01*
X131763327Y-62737383D01*
X131763327Y-64090000D01*
X132122364Y-64090000D01*
X132122364Y-62763028D01*
X132132927Y-62612170D01*
X132172648Y-62470944D01*
X132211757Y-62403991D01*
X132328658Y-62310799D01*
X132468212Y-62284556D01*
X132603767Y-62304340D01*
X132734193Y-62372484D01*
X132848270Y-62469513D01*
X132882937Y-62504375D01*
X132986820Y-62617164D01*
X133068317Y-62711004D01*
X133068317Y-64090000D01*
X133426621Y-64090000D01*
X133426621Y-61733545D01*
X133919748Y-61733545D01*
X134716956Y-61733545D01*
X134716956Y-64090000D01*
X135088450Y-64090000D01*
X135088450Y-61733545D01*
X135885658Y-61733545D01*
X135885658Y-61417006D01*
X133919748Y-61417006D01*
X133919748Y-61733545D01*
X133426621Y-61733545D01*
X133426621Y-61182533D01*
X133068317Y-61182533D01*
X133068317Y-62020041D01*
X133080041Y-62343175D01*
X132981011Y-62234465D01*
X132914444Y-62173182D01*
X132792445Y-62083606D01*
X132751778Y-62060341D01*
X132612442Y-62005125D01*
X132586182Y-61998792D01*
X132438577Y-61980206D01*
X132410327Y-61979741D01*
X132247820Y-61994695D01*
X132107338Y-62039556D01*
X131977078Y-62124478D01*
X131932588Y-62168785D01*
X131843329Y-62305542D01*
X131791262Y-62460437D01*
X131767460Y-62623423D01*
X131763327Y-62737383D01*
X131170158Y-62737383D01*
X131145637Y-62647257D01*
X131090339Y-62506779D01*
X131012294Y-62369944D01*
X130962455Y-62302875D01*
X130855275Y-62192178D01*
X130730197Y-62101798D01*
X130666433Y-62066936D01*
X130528394Y-62013802D01*
X130376959Y-61985191D01*
X130268561Y-61979741D01*
X130113349Y-61989221D01*
X129960783Y-62020886D01*
X129885344Y-62047152D01*
X129749263Y-62116295D01*
X129633377Y-62207036D01*
X129603976Y-62236929D01*
X129514618Y-62354878D01*
X129446577Y-62493304D01*
X129431052Y-62536615D01*
X129393099Y-62686390D01*
X129375239Y-62836880D01*
X129374220Y-62870739D01*
X129372434Y-62930090D01*
X124107047Y-62930090D01*
X124107047Y-61417006D01*
X122588833Y-61417006D01*
X122588833Y-61733545D01*
X117234786Y-61733545D01*
X117234786Y-61182533D01*
X125439147Y-61182533D01*
X125499231Y-62167320D01*
X125853139Y-62167320D01*
X125911025Y-61182533D01*
X125439147Y-61182533D01*
X117234786Y-61182533D01*
X116876482Y-61182533D01*
X116876482Y-62968925D01*
X115946649Y-62026636D01*
X115472574Y-62026636D01*
X116443439Y-62976985D01*
X115419085Y-64090000D01*
X112751220Y-64090000D01*
X112751220Y-61417006D01*
X112279343Y-61417006D01*
X111531227Y-63005561D01*
X111261583Y-63621053D01*
X111261583Y-62180509D01*
X111261583Y-61417006D01*
X110919399Y-61417006D01*
X110919399Y-64090000D01*
X109879786Y-64090000D01*
X109949266Y-64067285D01*
X110083441Y-63999965D01*
X110200203Y-63911119D01*
X110248219Y-63862854D01*
X110338209Y-63742790D01*
X110409334Y-63601685D01*
X110435798Y-63529462D01*
X110472509Y-63385342D01*
X110493981Y-63227023D01*
X110500278Y-63070774D01*
X110493695Y-62923341D01*
X110471246Y-62770752D01*
X110432867Y-62628206D01*
X110373413Y-62485667D01*
X110297266Y-62359203D01*
X110237228Y-62283824D01*
X110123974Y-62177183D01*
X109992580Y-62091826D01*
X109925819Y-62059609D01*
X109780979Y-62010940D01*
X109636080Y-61986059D01*
X109508896Y-61979741D01*
X109361714Y-61987967D01*
X109213594Y-62015702D01*
X109111025Y-62049351D01*
X108976496Y-62116550D01*
X108851634Y-62212720D01*
X108812071Y-62253049D01*
X108721728Y-62372285D01*
X108650734Y-62513288D01*
X108624493Y-62585708D01*
X108587365Y-62729151D01*
X108565648Y-62886447D01*
X108559280Y-63041465D01*
X107674144Y-63041465D01*
X107674144Y-62331451D01*
X108253732Y-62331451D01*
X108253732Y-62026636D01*
X107674144Y-62026636D01*
X107674144Y-61462435D01*
X107315840Y-61370111D01*
X107315840Y-62026636D01*
X106386740Y-62026636D01*
X105188812Y-62026636D01*
X105155470Y-62013802D01*
X105004035Y-61985191D01*
X104895637Y-61979741D01*
X104740425Y-61989221D01*
X104587859Y-62020886D01*
X104512420Y-62047152D01*
X104376339Y-62116295D01*
X104260453Y-62207036D01*
X104231052Y-62236929D01*
X104141694Y-62354878D01*
X104073653Y-62493304D01*
X104058129Y-62536615D01*
X104020175Y-62686390D01*
X104002315Y-62836880D01*
X104001296Y-62870739D01*
X103999510Y-62930090D01*
X97995790Y-62930090D01*
X98067917Y-62901190D01*
X98190438Y-62851688D01*
X98329125Y-62791803D01*
X98449092Y-62735184D01*
X98582889Y-62657106D01*
X98674772Y-62586441D01*
X98778805Y-62474304D01*
X98834507Y-62385673D01*
X98883683Y-62242344D01*
X98895323Y-62111632D01*
X98877008Y-61957820D01*
X98837438Y-61839790D01*
X98757943Y-61705799D01*
X98657919Y-61601653D01*
X98528754Y-61512964D01*
X98392328Y-61450425D01*
X98345777Y-61433859D01*
X98192591Y-61395012D01*
X98034067Y-61375154D01*
X97891485Y-61370111D01*
X97744207Y-61376706D01*
X97593897Y-61392849D01*
X97583739Y-61394291D01*
X97438129Y-61417221D01*
X97423272Y-61419937D01*
X97279531Y-61448973D01*
X97275260Y-61449979D01*
X97275260Y-61778974D01*
X97424325Y-61741214D01*
X97573389Y-61713114D01*
X97593265Y-61710097D01*
X97739388Y-61693267D01*
X97890284Y-61686673D01*
X97899545Y-61686650D01*
X98047007Y-61693244D01*
X98201967Y-61720035D01*
X98344849Y-61779386D01*
X98364095Y-61792163D01*
X98465275Y-61898231D01*
X98510805Y-62042380D01*
X98512106Y-62074996D01*
X98477897Y-62221450D01*
X98451290Y-62262575D01*
X98344183Y-62366571D01*
X98291555Y-62402526D01*
X98157031Y-62475169D01*
X98065875Y-62514633D01*
X97929742Y-62569178D01*
X97807221Y-62618681D01*
X97668535Y-62678615D01*
X97548568Y-62736650D01*
X97421742Y-62810999D01*
X97322888Y-62887592D01*
X97218855Y-63001985D01*
X97163153Y-63092756D01*
X97113977Y-63238326D01*
X97102336Y-63370460D01*
X96588928Y-63370460D01*
X95935100Y-61417006D01*
X95432448Y-61417006D01*
X94844311Y-63199002D01*
X94550243Y-64090000D01*
X93733076Y-64090000D01*
X93856349Y-64043105D01*
X93991606Y-63961119D01*
X94108316Y-63855847D01*
X94175819Y-63772728D01*
X94255348Y-63641729D01*
X94314425Y-63506861D01*
X94360907Y-63356967D01*
X94364863Y-63341151D01*
X94394615Y-63192619D01*
X94414631Y-63033886D01*
X94424248Y-62884226D01*
X94426412Y-62766692D01*
X94422380Y-62614457D01*
X94407897Y-62451551D01*
X94382881Y-62300460D01*
X94342148Y-62144605D01*
X94289585Y-62003531D01*
X94220033Y-61863912D01*
X94129972Y-61731157D01*
X94112071Y-61709364D01*
X94006197Y-61601459D01*
X93877861Y-61507642D01*
X93772818Y-61453642D01*
X93624440Y-61402740D01*
X93469468Y-61375332D01*
X93362490Y-61370111D01*
X93206885Y-61379413D01*
X93050762Y-61411134D01*
X92910397Y-61465366D01*
X92775036Y-61547695D01*
X92658017Y-61652899D01*
X92590194Y-61735743D01*
X92509830Y-61865821D01*
X92450296Y-62000002D01*
X92403642Y-62149352D01*
X92399685Y-62165122D01*
X92369224Y-62312771D01*
X92348731Y-62470506D01*
X92338885Y-62619181D01*
X92336670Y-62735917D01*
X92003337Y-62735917D01*
X92003337Y-61182533D01*
X102372853Y-61182533D01*
X102432937Y-62167320D01*
X102786845Y-62167320D01*
X102844730Y-61182533D01*
X102372853Y-61182533D01*
X92003337Y-61182533D01*
X92003337Y-58491660D01*
X98342114Y-58491660D01*
X98361419Y-58637921D01*
X98379483Y-58688764D01*
X98457398Y-58816688D01*
X98480599Y-58842637D01*
X98597733Y-58939120D01*
X98628611Y-58957676D01*
X98761601Y-59020049D01*
X98808862Y-59036810D01*
X98955728Y-59073905D01*
X99005966Y-59082240D01*
X99154893Y-59095978D01*
X99203803Y-59096894D01*
X99356680Y-59094215D01*
X99511366Y-59085266D01*
X99589951Y-59077843D01*
X99742561Y-59057327D01*
X99892648Y-59027834D01*
X99935066Y-59017759D01*
X99935066Y-58687299D01*
X99788258Y-58724982D01*
X99641934Y-58754684D01*
X99574563Y-58765701D01*
X99417905Y-58783733D01*
X99262089Y-58791667D01*
X99217724Y-58792079D01*
X99070005Y-58785210D01*
X98916909Y-58755740D01*
X98836706Y-58721737D01*
X98733311Y-58616412D01*
X98712874Y-58520237D01*
X98732658Y-58419853D01*
X98803733Y-58334856D01*
X98937250Y-58261366D01*
X98963468Y-58250593D01*
X99110506Y-58197785D01*
X99259490Y-58150942D01*
X99402191Y-58104036D01*
X99518143Y-58057152D01*
X99647382Y-57986918D01*
X99723307Y-57931123D01*
X99824876Y-57819605D01*
X99859595Y-57761130D01*
X99879330Y-57695917D01*
X100409874Y-57695917D01*
X100410557Y-57721563D01*
X100413976Y-57849865D01*
X100428711Y-58014214D01*
X100454162Y-58166198D01*
X100495603Y-58322400D01*
X100548224Y-58463533D01*
X100617977Y-58603352D01*
X100699607Y-58725283D01*
X100726412Y-58758374D01*
X100832043Y-58865861D01*
X100960705Y-58959422D01*
X101066399Y-59013363D01*
X101215223Y-59064265D01*
X101370435Y-59091673D01*
X101477459Y-59096894D01*
X101633064Y-59087735D01*
X101789187Y-59056502D01*
X101806279Y-59050000D01*
X102623447Y-59050000D01*
X103023516Y-59050000D01*
X103211095Y-58487264D01*
X104332170Y-58487264D01*
X104521946Y-59050000D01*
X104902965Y-59050000D01*
X104662132Y-58330460D01*
X105175540Y-58330460D01*
X105188480Y-58478579D01*
X105231356Y-58620511D01*
X105253942Y-58666782D01*
X105340968Y-58790956D01*
X105455042Y-58894200D01*
X105472295Y-58906385D01*
X105605692Y-58981117D01*
X105749151Y-59033935D01*
X105809350Y-59050000D01*
X105962399Y-59078576D01*
X106112832Y-59093185D01*
X106243126Y-59096894D01*
X106389875Y-59092738D01*
X106456350Y-59088101D01*
X106604914Y-59074244D01*
X106660781Y-59067585D01*
X106806343Y-59045886D01*
X106844696Y-59039009D01*
X106988169Y-59006658D01*
X107001500Y-59003105D01*
X107001500Y-58644801D01*
X106858927Y-58690682D01*
X106713477Y-58724747D01*
X106654186Y-58735659D01*
X106502237Y-58755752D01*
X106349915Y-58766024D01*
X106216015Y-58768632D01*
X106061369Y-58762675D01*
X105914131Y-58741521D01*
X105770205Y-58693931D01*
X105710432Y-58660188D01*
X105606954Y-58551996D01*
X105594661Y-58528297D01*
X105559634Y-58381581D01*
X105558757Y-58350976D01*
X105592966Y-58205347D01*
X105619574Y-58164863D01*
X105726681Y-58061920D01*
X105779309Y-58026378D01*
X105913833Y-57954650D01*
X106004989Y-57915736D01*
X106068994Y-57890090D01*
X109766084Y-57890090D01*
X109768283Y-58016852D01*
X109774145Y-58112107D01*
X111227145Y-58112107D01*
X111216063Y-58266713D01*
X111177101Y-58417872D01*
X111100908Y-58557549D01*
X111049825Y-58616224D01*
X110923758Y-58708960D01*
X110784236Y-58763056D01*
X110639488Y-58787786D01*
X110539113Y-58792079D01*
X110391468Y-58787242D01*
X110357396Y-58784752D01*
X110208768Y-58767499D01*
X110182274Y-58763503D01*
X110035564Y-58737190D01*
X110021074Y-58734193D01*
X109877459Y-58698290D01*
X109877459Y-58991381D01*
X110023218Y-59031481D01*
X110174366Y-59061935D01*
X110208653Y-59067585D01*
X110360381Y-59086562D01*
X110516705Y-59095864D01*
X110590404Y-59096894D01*
X110749415Y-59089810D01*
X110907632Y-59065654D01*
X111048359Y-59024354D01*
X111182208Y-58960778D01*
X111305584Y-58871207D01*
X111362700Y-58814061D01*
X111451601Y-58691383D01*
X111519461Y-58548390D01*
X111543684Y-58475540D01*
X111577057Y-58331782D01*
X111596578Y-58175557D01*
X111602302Y-58022714D01*
X111594856Y-57874446D01*
X111569749Y-57719216D01*
X111539288Y-57607257D01*
X111483989Y-57466779D01*
X111405944Y-57329944D01*
X111356105Y-57262875D01*
X111248925Y-57152178D01*
X111123848Y-57061798D01*
X111060083Y-57026936D01*
X110955386Y-56986636D01*
X111979657Y-56986636D01*
X112792253Y-59050000D01*
X113204047Y-59050000D01*
X113323657Y-58745184D01*
X114443091Y-58745184D01*
X114443091Y-59050000D01*
X116101988Y-59050000D01*
X116101988Y-58745184D01*
X115422016Y-58745184D01*
X115422016Y-58491660D01*
X116795149Y-58491660D01*
X116814454Y-58637921D01*
X116832519Y-58688764D01*
X116910434Y-58816688D01*
X116933635Y-58842637D01*
X117050769Y-58939120D01*
X117081646Y-58957676D01*
X117214636Y-59020049D01*
X117261897Y-59036810D01*
X117408764Y-59073905D01*
X117459001Y-59082240D01*
X117607929Y-59095978D01*
X117656838Y-59096894D01*
X117809715Y-59094215D01*
X117964402Y-59085266D01*
X118042986Y-59077843D01*
X118195597Y-59057327D01*
X118345683Y-59027834D01*
X118388101Y-59017759D01*
X118388101Y-58687299D01*
X118241294Y-58724982D01*
X118094970Y-58754684D01*
X118027599Y-58765701D01*
X117870941Y-58783733D01*
X117715124Y-58791667D01*
X117670760Y-58792079D01*
X117523041Y-58785210D01*
X117369945Y-58755740D01*
X117289741Y-58721737D01*
X117186347Y-58616412D01*
X117165910Y-58520237D01*
X117185694Y-58419853D01*
X117256768Y-58334856D01*
X117390285Y-58261366D01*
X117416503Y-58250593D01*
X117563541Y-58197785D01*
X117712526Y-58150942D01*
X117855227Y-58104036D01*
X117971179Y-58057152D01*
X118100418Y-57986918D01*
X118176343Y-57931123D01*
X118277911Y-57819605D01*
X118312630Y-57761130D01*
X118331922Y-57697383D01*
X119076866Y-57697383D01*
X119076866Y-59050000D01*
X119435903Y-59050000D01*
X119435903Y-57723028D01*
X119446639Y-57569927D01*
X119487011Y-57428059D01*
X119526761Y-57361793D01*
X119647749Y-57270316D01*
X119796406Y-57244556D01*
X119925366Y-57264340D01*
X120055791Y-57332484D01*
X120169422Y-57429513D01*
X120203803Y-57464375D01*
X120304750Y-57577164D01*
X120381856Y-57671004D01*
X120381856Y-59050000D01*
X120740160Y-59050000D01*
X120740160Y-57890090D01*
X121299232Y-57890090D01*
X121301430Y-58016852D01*
X121307292Y-58112107D01*
X122760292Y-58112107D01*
X122749210Y-58266713D01*
X122710248Y-58417872D01*
X122634056Y-58557549D01*
X122582972Y-58616224D01*
X122456906Y-58708960D01*
X122317383Y-58763056D01*
X122172635Y-58787786D01*
X122072260Y-58792079D01*
X121924616Y-58787242D01*
X121890544Y-58784752D01*
X121741915Y-58767499D01*
X121715422Y-58763503D01*
X121568711Y-58737190D01*
X121554221Y-58734193D01*
X121410606Y-58698290D01*
X121410606Y-58991381D01*
X121556365Y-59031481D01*
X121707513Y-59061935D01*
X121741800Y-59067585D01*
X121893528Y-59086562D01*
X122049852Y-59095864D01*
X122123551Y-59096894D01*
X122282562Y-59089810D01*
X122440779Y-59065654D01*
X122581507Y-59024354D01*
X122715356Y-58960778D01*
X122838731Y-58871207D01*
X122895847Y-58814061D01*
X122984749Y-58691383D01*
X123052608Y-58548390D01*
X123076831Y-58475540D01*
X123110205Y-58331782D01*
X123129725Y-58175557D01*
X123135449Y-58022714D01*
X123128003Y-57874446D01*
X123102896Y-57719216D01*
X123072435Y-57607257D01*
X123017137Y-57466779D01*
X122939091Y-57329944D01*
X122889253Y-57262875D01*
X122782073Y-57152178D01*
X122656995Y-57061798D01*
X122593230Y-57026936D01*
X122455191Y-56973802D01*
X122303757Y-56945191D01*
X122195359Y-56939741D01*
X122040146Y-56949221D01*
X121887581Y-56980886D01*
X121812142Y-57007152D01*
X121676060Y-57076295D01*
X121560175Y-57167036D01*
X121530774Y-57196929D01*
X121441415Y-57314878D01*
X121373375Y-57453304D01*
X121357850Y-57496615D01*
X121319897Y-57646390D01*
X121302037Y-57796880D01*
X121301018Y-57830739D01*
X121299232Y-57890090D01*
X120740160Y-57890090D01*
X120740160Y-56986636D01*
X120420690Y-56986636D01*
X120406036Y-57319295D01*
X120306499Y-57207471D01*
X120231646Y-57136845D01*
X120111356Y-57047331D01*
X120065317Y-57020341D01*
X119925981Y-56964217D01*
X119899720Y-56958060D01*
X119752115Y-56940189D01*
X119723865Y-56939741D01*
X119573885Y-56951557D01*
X119428476Y-56993095D01*
X119295870Y-57074324D01*
X119240997Y-57128785D01*
X119154444Y-57265542D01*
X119103954Y-57420437D01*
X119080873Y-57583423D01*
X119076866Y-57697383D01*
X118331922Y-57697383D01*
X118355922Y-57618076D01*
X118361723Y-57531053D01*
X118337126Y-57384973D01*
X118321423Y-57340544D01*
X118244231Y-57210293D01*
X118184403Y-57147103D01*
X118061834Y-57060809D01*
X117922086Y-56999092D01*
X117774590Y-56960665D01*
X117628628Y-56943451D01*
X117510292Y-56939741D01*
X117356554Y-56944649D01*
X117240648Y-56953663D01*
X117088974Y-56971981D01*
X116941455Y-56998471D01*
X116931437Y-57000558D01*
X116931437Y-57325157D01*
X117075673Y-57293320D01*
X117223052Y-57268236D01*
X117251639Y-57264340D01*
X117401420Y-57248903D01*
X117514689Y-57244556D01*
X117665356Y-57252571D01*
X117740369Y-57265073D01*
X117881190Y-57317065D01*
X117888380Y-57321493D01*
X117969713Y-57405024D01*
X117994626Y-57508339D01*
X117973377Y-57610188D01*
X117892777Y-57698115D01*
X117760995Y-57769831D01*
X117729378Y-57783112D01*
X117590506Y-57833241D01*
X117454605Y-57875436D01*
X117305400Y-57923862D01*
X117162015Y-57981610D01*
X117146126Y-57989009D01*
X117013257Y-58063526D01*
X116941695Y-58120167D01*
X116849234Y-58239693D01*
X116829588Y-58284298D01*
X116797874Y-58428156D01*
X116795149Y-58491660D01*
X115422016Y-58491660D01*
X115422016Y-57279727D01*
X116033844Y-57279727D01*
X116033844Y-56986636D01*
X115059315Y-56986636D01*
X115059315Y-58745184D01*
X114443091Y-58745184D01*
X113323657Y-58745184D01*
X114013712Y-56986636D01*
X113605582Y-56986636D01*
X113099267Y-58351709D01*
X112990090Y-58684368D01*
X112876517Y-58342916D01*
X112373865Y-56986636D01*
X111979657Y-56986636D01*
X110955386Y-56986636D01*
X110922044Y-56973802D01*
X110770610Y-56945191D01*
X110662212Y-56939741D01*
X110506999Y-56949221D01*
X110354433Y-56980886D01*
X110278994Y-57007152D01*
X110142913Y-57076295D01*
X110027027Y-57167036D01*
X109997627Y-57196929D01*
X109908268Y-57314878D01*
X109840227Y-57453304D01*
X109824703Y-57496615D01*
X109786750Y-57646390D01*
X109768889Y-57796880D01*
X109767870Y-57830739D01*
X109766084Y-57890090D01*
X106068994Y-57890090D01*
X106141121Y-57861190D01*
X106263642Y-57811688D01*
X106402329Y-57751803D01*
X106522295Y-57695184D01*
X106656093Y-57617106D01*
X106747976Y-57546441D01*
X106852009Y-57434304D01*
X106907710Y-57345673D01*
X106956886Y-57202344D01*
X106968527Y-57071632D01*
X106950212Y-56917820D01*
X106910641Y-56799790D01*
X106831147Y-56665799D01*
X106731123Y-56561653D01*
X106601958Y-56472964D01*
X106494927Y-56423900D01*
X115013886Y-56423900D01*
X115035868Y-56533077D01*
X115095219Y-56623203D01*
X115185345Y-56684019D01*
X115296720Y-56705268D01*
X115408094Y-56684019D01*
X115497487Y-56623203D01*
X115557571Y-56533077D01*
X115578820Y-56423900D01*
X115557571Y-56313991D01*
X115497487Y-56224598D01*
X115408094Y-56164515D01*
X115315279Y-56146196D01*
X123517201Y-56146196D01*
X123517201Y-56460537D01*
X123669739Y-56431492D01*
X123824814Y-56410369D01*
X123977875Y-56400688D01*
X124003733Y-56400453D01*
X124168331Y-56417764D01*
X124317320Y-56481717D01*
X124419957Y-56592794D01*
X124476242Y-56750995D01*
X124488066Y-56892847D01*
X124488066Y-57244556D01*
X123580948Y-57244556D01*
X123580948Y-57549371D01*
X124488066Y-57549371D01*
X124488066Y-59050000D01*
X124852965Y-59050000D01*
X124852965Y-57549371D01*
X125518283Y-57549371D01*
X125518283Y-57244556D01*
X124852965Y-57244556D01*
X124852965Y-56914096D01*
X124839501Y-56722270D01*
X124799110Y-56556021D01*
X124731790Y-56415348D01*
X124637543Y-56300252D01*
X124516368Y-56210734D01*
X124368265Y-56146792D01*
X124365546Y-56146196D01*
X125823830Y-56146196D01*
X125823830Y-56460537D01*
X125976368Y-56431492D01*
X126131443Y-56410369D01*
X126284505Y-56400688D01*
X126310362Y-56400453D01*
X126474960Y-56417764D01*
X126623949Y-56481717D01*
X126726586Y-56592794D01*
X126782871Y-56750995D01*
X126794696Y-56892847D01*
X126794696Y-57244556D01*
X125887578Y-57244556D01*
X125887578Y-57549371D01*
X126794696Y-57549371D01*
X126794696Y-59050000D01*
X127159595Y-59050000D01*
X127159595Y-57695917D01*
X128089427Y-57695917D01*
X128090110Y-57721563D01*
X128093529Y-57849865D01*
X128108264Y-58014214D01*
X128133715Y-58166198D01*
X128175156Y-58322400D01*
X128227778Y-58463533D01*
X128297530Y-58603352D01*
X128379160Y-58725283D01*
X128405966Y-58758374D01*
X128511596Y-58865861D01*
X128640259Y-58959422D01*
X128745952Y-59013363D01*
X128894776Y-59064265D01*
X129049988Y-59091673D01*
X129157013Y-59096894D01*
X129312617Y-59087735D01*
X129468741Y-59056502D01*
X129609106Y-59003105D01*
X129744363Y-58921119D01*
X129861073Y-58815847D01*
X129928576Y-58732728D01*
X130008105Y-58601729D01*
X130067182Y-58466861D01*
X130113664Y-58316967D01*
X130117620Y-58301151D01*
X130147373Y-58152619D01*
X130167388Y-57993886D01*
X130177005Y-57844226D01*
X130179169Y-57726692D01*
X130175137Y-57574457D01*
X130160654Y-57411551D01*
X130135638Y-57260460D01*
X130094905Y-57104605D01*
X130042342Y-56963531D01*
X129972790Y-56823912D01*
X129882729Y-56691157D01*
X129864828Y-56669364D01*
X129758954Y-56561459D01*
X129630618Y-56467642D01*
X129525575Y-56413642D01*
X129377198Y-56362740D01*
X129222225Y-56335332D01*
X129115247Y-56330111D01*
X128959642Y-56339413D01*
X128803519Y-56371134D01*
X128663154Y-56425366D01*
X128527793Y-56507695D01*
X128410774Y-56612899D01*
X128342951Y-56695743D01*
X128262587Y-56825821D01*
X128203053Y-56960002D01*
X128156399Y-57109352D01*
X128152442Y-57125122D01*
X128121981Y-57272771D01*
X128101489Y-57430506D01*
X128091642Y-57579181D01*
X128089427Y-57695917D01*
X127159595Y-57695917D01*
X127159595Y-57549371D01*
X127824912Y-57549371D01*
X127824912Y-57244556D01*
X127159595Y-57244556D01*
X127159595Y-56914096D01*
X127146131Y-56722270D01*
X127105739Y-56556021D01*
X127038420Y-56415348D01*
X126944172Y-56300252D01*
X126822997Y-56210734D01*
X126674895Y-56146792D01*
X126499864Y-56108426D01*
X126350920Y-56096437D01*
X126297906Y-56095638D01*
X126145025Y-56101612D01*
X125996877Y-56117412D01*
X125839998Y-56143086D01*
X125823830Y-56146196D01*
X124365546Y-56146196D01*
X124193235Y-56108426D01*
X124044290Y-56096437D01*
X123991276Y-56095638D01*
X123838396Y-56101612D01*
X123690247Y-56117412D01*
X123533369Y-56143086D01*
X123517201Y-56146196D01*
X115315279Y-56146196D01*
X115296720Y-56142533D01*
X115185345Y-56164515D01*
X115095219Y-56224598D01*
X115035868Y-56313991D01*
X115013886Y-56423900D01*
X106494927Y-56423900D01*
X106465532Y-56410425D01*
X106418981Y-56393859D01*
X106265794Y-56355012D01*
X106107270Y-56335154D01*
X105964689Y-56330111D01*
X105817410Y-56336706D01*
X105667101Y-56352849D01*
X105656943Y-56354291D01*
X105511332Y-56377221D01*
X105496475Y-56379937D01*
X105352735Y-56408973D01*
X105348464Y-56409979D01*
X105348464Y-56738974D01*
X105497529Y-56701214D01*
X105646593Y-56673114D01*
X105666468Y-56670097D01*
X105812592Y-56653267D01*
X105963488Y-56646673D01*
X105972749Y-56646650D01*
X106120210Y-56653244D01*
X106275171Y-56680035D01*
X106418053Y-56739386D01*
X106437299Y-56752163D01*
X106538478Y-56858231D01*
X106584009Y-57002380D01*
X106585310Y-57034996D01*
X106551101Y-57181450D01*
X106524493Y-57222575D01*
X106417386Y-57326571D01*
X106364759Y-57362526D01*
X106230234Y-57435169D01*
X106139078Y-57474633D01*
X106002946Y-57529178D01*
X105880425Y-57578681D01*
X105741738Y-57638615D01*
X105621772Y-57696650D01*
X105494945Y-57770999D01*
X105396091Y-57847592D01*
X105292058Y-57961985D01*
X105236357Y-58052756D01*
X105187181Y-58198326D01*
X105175540Y-58330460D01*
X104662132Y-58330460D01*
X104008304Y-56377006D01*
X103505652Y-56377006D01*
X102917515Y-58159002D01*
X102623447Y-59050000D01*
X101806279Y-59050000D01*
X101929553Y-59003105D01*
X102064810Y-58921119D01*
X102181520Y-58815847D01*
X102249022Y-58732728D01*
X102328552Y-58601729D01*
X102387628Y-58466861D01*
X102434111Y-58316967D01*
X102438066Y-58301151D01*
X102467819Y-58152619D01*
X102487835Y-57993886D01*
X102497452Y-57844226D01*
X102499616Y-57726692D01*
X102495583Y-57574457D01*
X102481101Y-57411551D01*
X102456085Y-57260460D01*
X102415352Y-57104605D01*
X102362789Y-56963531D01*
X102293237Y-56823912D01*
X102203175Y-56691157D01*
X102185275Y-56669364D01*
X102079401Y-56561459D01*
X101951064Y-56467642D01*
X101846022Y-56413642D01*
X101697644Y-56362740D01*
X101542672Y-56335332D01*
X101435694Y-56330111D01*
X101280089Y-56339413D01*
X101123966Y-56371134D01*
X100983600Y-56425366D01*
X100848240Y-56507695D01*
X100731221Y-56612899D01*
X100663398Y-56695743D01*
X100583034Y-56825821D01*
X100523500Y-56960002D01*
X100476845Y-57109352D01*
X100472888Y-57125122D01*
X100442427Y-57272771D01*
X100421935Y-57430506D01*
X100412089Y-57579181D01*
X100409874Y-57695917D01*
X99879330Y-57695917D01*
X99902886Y-57618076D01*
X99908687Y-57531053D01*
X99884090Y-57384973D01*
X99868387Y-57340544D01*
X99791195Y-57210293D01*
X99731367Y-57147103D01*
X99608798Y-57060809D01*
X99469050Y-56999092D01*
X99321554Y-56960665D01*
X99175593Y-56943451D01*
X99057257Y-56939741D01*
X98903518Y-56944649D01*
X98787613Y-56953663D01*
X98635938Y-56971981D01*
X98488419Y-56998471D01*
X98478401Y-57000558D01*
X98478401Y-57325157D01*
X98622637Y-57293320D01*
X98770017Y-57268236D01*
X98798604Y-57264340D01*
X98948384Y-57248903D01*
X99061653Y-57244556D01*
X99212321Y-57252571D01*
X99287334Y-57265073D01*
X99428155Y-57317065D01*
X99435345Y-57321493D01*
X99516678Y-57405024D01*
X99541590Y-57508339D01*
X99520341Y-57610188D01*
X99439741Y-57698115D01*
X99307960Y-57769831D01*
X99276343Y-57783112D01*
X99137471Y-57833241D01*
X99001569Y-57875436D01*
X98852365Y-57923862D01*
X98708979Y-57981610D01*
X98693091Y-57989009D01*
X98560221Y-58063526D01*
X98488660Y-58120167D01*
X98396198Y-58239693D01*
X98376552Y-58284298D01*
X98344838Y-58428156D01*
X98342114Y-58491660D01*
X92003337Y-58491660D01*
X92003337Y-52500579D01*
X92408477Y-52500579D01*
X92408477Y-54010000D01*
X92738205Y-54010000D01*
X92738205Y-52525491D01*
X92744645Y-52375053D01*
X92745533Y-52367222D01*
X92768247Y-52269769D01*
X92807815Y-52219211D01*
X92866433Y-52204556D01*
X92942637Y-52229469D01*
X93017375Y-52309337D01*
X93094071Y-52434278D01*
X93106035Y-52456615D01*
X93173354Y-52587705D01*
X93220341Y-52682295D01*
X93220341Y-54010000D01*
X93548603Y-54010000D01*
X93548603Y-52565059D01*
X93553075Y-52414434D01*
X93555930Y-52381877D01*
X93577912Y-52272700D01*
X93618212Y-52219211D01*
X93678296Y-52204556D01*
X93747905Y-52225073D01*
X93821178Y-52299078D01*
X93902045Y-52428524D01*
X93911304Y-52445624D01*
X93980111Y-52581351D01*
X94028540Y-52682295D01*
X94028540Y-54010000D01*
X94358268Y-54010000D01*
X94358268Y-52961465D01*
X94719503Y-52961465D01*
X94720228Y-52977585D01*
X94726158Y-53109499D01*
X94748850Y-53263080D01*
X94787647Y-53406964D01*
X94846758Y-53550499D01*
X94922973Y-53677753D01*
X94983286Y-53753545D01*
X95096187Y-53859711D01*
X95227711Y-53944835D01*
X95294695Y-53977027D01*
X95439088Y-54025696D01*
X95583759Y-54050576D01*
X95710885Y-54056894D01*
X95858153Y-54048669D01*
X96006565Y-54020934D01*
X96109489Y-53987285D01*
X96243665Y-53919965D01*
X96360426Y-53831119D01*
X96408443Y-53782854D01*
X96498432Y-53662790D01*
X96569557Y-53521685D01*
X96596021Y-53449462D01*
X96632732Y-53305342D01*
X96654204Y-53147023D01*
X96660501Y-52990774D01*
X96653918Y-52843341D01*
X96631470Y-52690752D01*
X96593090Y-52548206D01*
X96533636Y-52405667D01*
X96457490Y-52279203D01*
X96397452Y-52203824D01*
X96284197Y-52097183D01*
X96152803Y-52011826D01*
X96139184Y-52005254D01*
X97219573Y-52005254D01*
X97219573Y-52345240D01*
X97354945Y-52281859D01*
X97492881Y-52238262D01*
X97643282Y-52211962D01*
X97780110Y-52204556D01*
X97930806Y-52221713D01*
X98040962Y-52258778D01*
X98169350Y-52334023D01*
X98256384Y-52413384D01*
X98343725Y-52532863D01*
X98402930Y-52659581D01*
X98441323Y-52803966D01*
X98455949Y-52953831D01*
X98456419Y-52987843D01*
X98447688Y-53146279D01*
X98416330Y-53304766D01*
X98353791Y-53454271D01*
X98273969Y-53561570D01*
X98146128Y-53662034D01*
X98007456Y-53720638D01*
X97846411Y-53749102D01*
X97767654Y-53752079D01*
X97615209Y-53742153D01*
X97484821Y-53716908D01*
X97341718Y-53669613D01*
X97219573Y-53611395D01*
X97219573Y-53951381D01*
X97361539Y-53997909D01*
X97507535Y-54030516D01*
X97657012Y-54050300D01*
X97810885Y-54056894D01*
X97958790Y-54050311D01*
X98121731Y-54025032D01*
X98268803Y-53980793D01*
X98420332Y-53905219D01*
X98550262Y-53803839D01*
X98567061Y-53787250D01*
X98625219Y-53713977D01*
X99977563Y-53713977D01*
X100004674Y-53847334D01*
X100077947Y-53956510D01*
X100187124Y-54029783D01*
X100319748Y-54056894D01*
X100453837Y-54029783D01*
X100562281Y-53956510D01*
X100635554Y-53847334D01*
X100661932Y-53713977D01*
X100635554Y-53578422D01*
X100562281Y-53467048D01*
X100453837Y-53392309D01*
X100319748Y-53365198D01*
X100187124Y-53392309D01*
X100077947Y-53467048D01*
X100004674Y-53578422D01*
X99977563Y-53713977D01*
X98625219Y-53713977D01*
X98670129Y-53657395D01*
X98738324Y-53527169D01*
X98787921Y-53379479D01*
X98818918Y-53214323D01*
X98830543Y-53063351D01*
X98831576Y-52999567D01*
X98824215Y-52850090D01*
X101692881Y-52850090D01*
X101695079Y-52976852D01*
X101700941Y-53072107D01*
X103153942Y-53072107D01*
X103142859Y-53226713D01*
X103103897Y-53377872D01*
X103027705Y-53517549D01*
X102976621Y-53576224D01*
X102850555Y-53668960D01*
X102711032Y-53723056D01*
X102566284Y-53747786D01*
X102465909Y-53752079D01*
X102318265Y-53747242D01*
X102284193Y-53744752D01*
X102135564Y-53727499D01*
X102109071Y-53723503D01*
X101962360Y-53697190D01*
X101947870Y-53694193D01*
X101804256Y-53658290D01*
X101804256Y-53951381D01*
X101950014Y-53991481D01*
X102101162Y-54021935D01*
X102135449Y-54027585D01*
X102287177Y-54046562D01*
X102443501Y-54055864D01*
X102517200Y-54056894D01*
X102676211Y-54049810D01*
X102834428Y-54025654D01*
X102975156Y-53984354D01*
X103109005Y-53920778D01*
X103232380Y-53831207D01*
X103289496Y-53774061D01*
X103378398Y-53651383D01*
X103446257Y-53508390D01*
X103470480Y-53435540D01*
X103503854Y-53291782D01*
X103523374Y-53135557D01*
X103529099Y-52982714D01*
X103521652Y-52834446D01*
X103496545Y-52679216D01*
X103466084Y-52567257D01*
X103410786Y-52426779D01*
X103332740Y-52289944D01*
X103282902Y-52222875D01*
X103175722Y-52112178D01*
X103050644Y-52021798D01*
X102986879Y-51986936D01*
X102882182Y-51946636D01*
X103925505Y-51946636D01*
X103925505Y-52239727D01*
X104257431Y-52239727D01*
X104180780Y-52365456D01*
X104168038Y-52398729D01*
X104137813Y-52543260D01*
X104135798Y-52595101D01*
X104136578Y-52603161D01*
X104150452Y-52746592D01*
X104194416Y-52884528D01*
X104270346Y-53013338D01*
X104360013Y-53109476D01*
X104485671Y-53197340D01*
X104616468Y-53255289D01*
X104763203Y-53292104D01*
X104912067Y-53306129D01*
X104945463Y-53306580D01*
X105093790Y-53296764D01*
X105188729Y-53278736D01*
X105331611Y-53229552D01*
X105367514Y-53209860D01*
X105434193Y-53319036D01*
X105460571Y-53435540D01*
X105385833Y-53565966D01*
X105245424Y-53617211D01*
X105186530Y-53622386D01*
X104642113Y-53642170D01*
X104493919Y-53654626D01*
X104357082Y-53683203D01*
X104214505Y-53737462D01*
X104132134Y-53787983D01*
X104027023Y-53891622D01*
X103986321Y-53957243D01*
X103939799Y-54102881D01*
X103933565Y-54190251D01*
X103938007Y-54229085D01*
X103950522Y-54338499D01*
X103993648Y-54462093D01*
X104075114Y-54589649D01*
X104177563Y-54687773D01*
X104309154Y-54770441D01*
X104447162Y-54828022D01*
X104494102Y-54843112D01*
X104648181Y-54878386D01*
X104807162Y-54896419D01*
X104949859Y-54900997D01*
X105099639Y-54896847D01*
X105247537Y-54882695D01*
X105377773Y-54858499D01*
X105519724Y-54815783D01*
X105652761Y-54751853D01*
X105667200Y-54742728D01*
X105779758Y-54644772D01*
X105832064Y-54566140D01*
X105877295Y-54422981D01*
X105883355Y-54341193D01*
X105865770Y-54193365D01*
X105813013Y-54064954D01*
X105716975Y-53941887D01*
X105605898Y-53843953D01*
X105596858Y-53837076D01*
X105689915Y-53775526D01*
X105753662Y-53694193D01*
X105790299Y-53600404D01*
X105802755Y-53503684D01*
X105780540Y-53352719D01*
X105739741Y-53258953D01*
X105656645Y-53131087D01*
X105590264Y-53048660D01*
X105659873Y-52957069D01*
X105711164Y-52861081D01*
X105744137Y-52748974D01*
X105755128Y-52611221D01*
X105740473Y-52459729D01*
X105696510Y-52321793D01*
X105671486Y-52279295D01*
X106402860Y-52279295D01*
X106402860Y-54010000D01*
X106724528Y-54010000D01*
X106736984Y-53623119D01*
X106833298Y-53750187D01*
X106944863Y-53864011D01*
X107062316Y-53950648D01*
X107197779Y-54015392D01*
X107341485Y-54050254D01*
X107441869Y-54056894D01*
X107588890Y-54042589D01*
X107728359Y-53995512D01*
X107754011Y-53982156D01*
X107877659Y-53891481D01*
X107973282Y-53778856D01*
X107978959Y-53770397D01*
X108048763Y-53639986D01*
X108098511Y-53500053D01*
X108113781Y-53441402D01*
X108141018Y-53291548D01*
X108154942Y-53143862D01*
X108158477Y-53015687D01*
X108151465Y-52854787D01*
X108130428Y-52705479D01*
X108098012Y-52581179D01*
X108709489Y-52581179D01*
X108709489Y-53439204D01*
X108709489Y-54010000D01*
X109031157Y-54010000D01*
X109039217Y-53733028D01*
X109156190Y-53839650D01*
X109285179Y-53930291D01*
X109382867Y-53980690D01*
X109526986Y-54030029D01*
X109677152Y-54054215D01*
X109748498Y-54056894D01*
X109903466Y-54046912D01*
X110051848Y-54011465D01*
X110185139Y-53945635D01*
X110258477Y-53886901D01*
X110349877Y-53764269D01*
X110377912Y-53700055D01*
X110411512Y-53551111D01*
X110416014Y-53467048D01*
X110401543Y-53319494D01*
X110364779Y-53214256D01*
X110902546Y-53214256D01*
X110903654Y-53227445D01*
X110915002Y-53362506D01*
X110956275Y-53506201D01*
X110978017Y-53553510D01*
X111062778Y-53681601D01*
X111175553Y-53789729D01*
X111192706Y-53802637D01*
X111325101Y-53882359D01*
X111468132Y-53939558D01*
X111528296Y-53957243D01*
X111682306Y-53989392D01*
X111834345Y-54005826D01*
X111966468Y-54010000D01*
X112671353Y-54010000D01*
X112671353Y-51946636D01*
X113152022Y-51946636D01*
X113152022Y-52239727D01*
X113483948Y-52239727D01*
X113407298Y-52365456D01*
X113394556Y-52398729D01*
X113364331Y-52543260D01*
X113362316Y-52595101D01*
X113363096Y-52603161D01*
X113376970Y-52746592D01*
X113420934Y-52884528D01*
X113496864Y-53013338D01*
X113586530Y-53109476D01*
X113712189Y-53197340D01*
X113842985Y-53255289D01*
X113989721Y-53292104D01*
X114138585Y-53306129D01*
X114171981Y-53306580D01*
X114320308Y-53296764D01*
X114415246Y-53278736D01*
X114558129Y-53229552D01*
X114594032Y-53209860D01*
X114660711Y-53319036D01*
X114687089Y-53435540D01*
X114612350Y-53565966D01*
X114471941Y-53617211D01*
X114413048Y-53622386D01*
X113868631Y-53642170D01*
X113720437Y-53654626D01*
X113583600Y-53683203D01*
X113441023Y-53737462D01*
X113358652Y-53787983D01*
X113253540Y-53891622D01*
X113212839Y-53957243D01*
X113166316Y-54102881D01*
X113160082Y-54190251D01*
X113164524Y-54229085D01*
X113177040Y-54338499D01*
X113220166Y-54462093D01*
X113301631Y-54589649D01*
X113404081Y-54687773D01*
X113535672Y-54770441D01*
X113673679Y-54828022D01*
X113720620Y-54843112D01*
X113874699Y-54878386D01*
X114033680Y-54896419D01*
X114176377Y-54900997D01*
X114326157Y-54896847D01*
X114474055Y-54882695D01*
X114604290Y-54858499D01*
X114746242Y-54815783D01*
X114879278Y-54751853D01*
X114893718Y-54742728D01*
X115006276Y-54644772D01*
X115058582Y-54566140D01*
X115103812Y-54422981D01*
X115109873Y-54341193D01*
X115092288Y-54193365D01*
X115039531Y-54064954D01*
X114943493Y-53941887D01*
X114832416Y-53843953D01*
X114823376Y-53837076D01*
X114916433Y-53775526D01*
X114980180Y-53694193D01*
X115016817Y-53600404D01*
X115029273Y-53503684D01*
X115007058Y-53352719D01*
X114966258Y-53258953D01*
X114883162Y-53131087D01*
X114816782Y-53048660D01*
X114886391Y-52957069D01*
X114937682Y-52861081D01*
X114970655Y-52748974D01*
X114977963Y-52657383D01*
X115616921Y-52657383D01*
X115616921Y-54010000D01*
X115975958Y-54010000D01*
X115975958Y-52683028D01*
X115986694Y-52529927D01*
X116027066Y-52388059D01*
X116066817Y-52321793D01*
X116187804Y-52230316D01*
X116336461Y-52204556D01*
X116465421Y-52224340D01*
X116595847Y-52292484D01*
X116709477Y-52389513D01*
X116743858Y-52424375D01*
X116844805Y-52537164D01*
X116921911Y-52631004D01*
X116921911Y-54010000D01*
X117280215Y-54010000D01*
X117280215Y-53705184D01*
X117903034Y-53705184D01*
X117903034Y-54010000D01*
X119561932Y-54010000D01*
X120032343Y-54010000D01*
X120524737Y-54010000D01*
X121489741Y-52902847D01*
X121489741Y-54010000D01*
X121848045Y-54010000D01*
X121848045Y-52005254D01*
X122592497Y-52005254D01*
X122592497Y-52345240D01*
X122727869Y-52281859D01*
X122865805Y-52238262D01*
X123016206Y-52211962D01*
X123153034Y-52204556D01*
X123303730Y-52221713D01*
X123413886Y-52258778D01*
X123542273Y-52334023D01*
X123629308Y-52413384D01*
X123716649Y-52532863D01*
X123775854Y-52659581D01*
X123814247Y-52803966D01*
X123828873Y-52953831D01*
X123829343Y-52987843D01*
X123820612Y-53146279D01*
X123789254Y-53304766D01*
X123726715Y-53454271D01*
X123646893Y-53561570D01*
X123519052Y-53662034D01*
X123380380Y-53720638D01*
X123219335Y-53749102D01*
X123140578Y-53752079D01*
X122988133Y-53742153D01*
X122857745Y-53716908D01*
X122714642Y-53669613D01*
X122592497Y-53611395D01*
X122592497Y-53951381D01*
X122734463Y-53997909D01*
X122880459Y-54030516D01*
X123029936Y-54050300D01*
X123183809Y-54056894D01*
X123331714Y-54050311D01*
X123494655Y-54025032D01*
X123544629Y-54010000D01*
X124843439Y-54010000D01*
X125165107Y-54010000D01*
X125177563Y-53677341D01*
X125278645Y-53789165D01*
X125353418Y-53859790D01*
X125473115Y-53949682D01*
X125519748Y-53977027D01*
X125659276Y-54032436D01*
X125685344Y-54038576D01*
X125833084Y-54056447D01*
X125861932Y-54056894D01*
X126011866Y-54045170D01*
X126157114Y-54003954D01*
X126289406Y-53923354D01*
X126344067Y-53869316D01*
X126429848Y-53732945D01*
X126479887Y-53578276D01*
X126502762Y-53415392D01*
X126506733Y-53301451D01*
X126506733Y-51946636D01*
X126148429Y-51946636D01*
X126148429Y-53274340D01*
X126135806Y-53436697D01*
X126089173Y-53583657D01*
X125993804Y-53695627D01*
X125853555Y-53747880D01*
X125789392Y-53752079D01*
X125661164Y-53732295D01*
X125529273Y-53664152D01*
X125414695Y-53567570D01*
X125380529Y-53532993D01*
X125279582Y-53419430D01*
X125202476Y-53324166D01*
X125202476Y-51946636D01*
X124843439Y-51946636D01*
X124843439Y-54010000D01*
X123544629Y-54010000D01*
X123641727Y-53980793D01*
X123793256Y-53905219D01*
X123923186Y-53803839D01*
X123939985Y-53787250D01*
X124043053Y-53657395D01*
X124111248Y-53527169D01*
X124160844Y-53379479D01*
X124191842Y-53214323D01*
X124203467Y-53063351D01*
X124204500Y-52999567D01*
X124197058Y-52848442D01*
X124171682Y-52692783D01*
X124128296Y-52548206D01*
X124062041Y-52404225D01*
X123978682Y-52276730D01*
X123913607Y-52200893D01*
X123802667Y-52101906D01*
X123676477Y-52021466D01*
X123583879Y-51978143D01*
X123434436Y-51930367D01*
X123287853Y-51905943D01*
X123161094Y-51899741D01*
X123005756Y-51905969D01*
X122860676Y-51924654D01*
X122715286Y-51959444D01*
X122592497Y-52005254D01*
X121848045Y-52005254D01*
X121848045Y-51653545D01*
X127202092Y-51653545D01*
X128345882Y-51653545D01*
X128345882Y-52532819D01*
X127261443Y-52532819D01*
X127261443Y-52837634D01*
X128345882Y-52837634D01*
X128345882Y-54010000D01*
X128720306Y-54010000D01*
X128720306Y-51946636D01*
X129298429Y-51946636D01*
X129298429Y-52239727D01*
X129630355Y-52239727D01*
X129553704Y-52365456D01*
X129540962Y-52398729D01*
X129510737Y-52543260D01*
X129508722Y-52595101D01*
X129509502Y-52603161D01*
X129523376Y-52746592D01*
X129567340Y-52884528D01*
X129643270Y-53013338D01*
X129732937Y-53109476D01*
X129858595Y-53197340D01*
X129989392Y-53255289D01*
X130136127Y-53292104D01*
X130284991Y-53306129D01*
X130318387Y-53306580D01*
X130466714Y-53296764D01*
X130561653Y-53278736D01*
X130704535Y-53229552D01*
X130740438Y-53209860D01*
X130807117Y-53319036D01*
X130833495Y-53435540D01*
X130758757Y-53565966D01*
X130618347Y-53617211D01*
X130559454Y-53622386D01*
X130015037Y-53642170D01*
X129866843Y-53654626D01*
X129730006Y-53683203D01*
X129587429Y-53737462D01*
X129505058Y-53787983D01*
X129399947Y-53891622D01*
X129359245Y-53957243D01*
X129312723Y-54102881D01*
X129306489Y-54190251D01*
X129310931Y-54229085D01*
X129323446Y-54338499D01*
X129366572Y-54462093D01*
X129448038Y-54589649D01*
X129550487Y-54687773D01*
X129682078Y-54770441D01*
X129820086Y-54828022D01*
X129867026Y-54843112D01*
X130021105Y-54878386D01*
X130180086Y-54896419D01*
X130322783Y-54900997D01*
X130472563Y-54896847D01*
X130620461Y-54882695D01*
X130750697Y-54858499D01*
X130892648Y-54815783D01*
X131025684Y-54751853D01*
X131040124Y-54742728D01*
X131152682Y-54644772D01*
X131204988Y-54566140D01*
X131250219Y-54422981D01*
X131256279Y-54341193D01*
X131238694Y-54193365D01*
X131185937Y-54064954D01*
X131089899Y-53941887D01*
X130978822Y-53843953D01*
X130969782Y-53837076D01*
X131062839Y-53775526D01*
X131117971Y-53705184D01*
X131742811Y-53705184D01*
X131742811Y-54010000D01*
X133401708Y-54010000D01*
X133401708Y-53705184D01*
X132721736Y-53705184D01*
X132721736Y-53214256D01*
X133968840Y-53214256D01*
X133969948Y-53227445D01*
X133981296Y-53362506D01*
X134022569Y-53506201D01*
X134044311Y-53553510D01*
X134129072Y-53681601D01*
X134241848Y-53789729D01*
X134259001Y-53802637D01*
X134391396Y-53882359D01*
X134534427Y-53939558D01*
X134594591Y-53957243D01*
X134748601Y-53989392D01*
X134900639Y-54005826D01*
X135032762Y-54010000D01*
X135737647Y-54010000D01*
X135737647Y-51337006D01*
X134966817Y-51337006D01*
X134805883Y-51342750D01*
X134615929Y-51368281D01*
X134454116Y-51414237D01*
X134320445Y-51480618D01*
X134192929Y-51592316D01*
X134109385Y-51735928D01*
X134069811Y-51911454D01*
X134066293Y-51990600D01*
X134070789Y-52038227D01*
X134080925Y-52145606D01*
X134129799Y-52293762D01*
X134170341Y-52365024D01*
X134276405Y-52478651D01*
X134412520Y-52560138D01*
X134508861Y-52597299D01*
X134364285Y-52639016D01*
X134302232Y-52666908D01*
X134178655Y-52747256D01*
X134130041Y-52792937D01*
X134042829Y-52912578D01*
X134012804Y-52976120D01*
X133975023Y-53118601D01*
X133968840Y-53214256D01*
X132721736Y-53214256D01*
X132721736Y-52239727D01*
X133333565Y-52239727D01*
X133333565Y-51946636D01*
X132359036Y-51946636D01*
X132359036Y-53705184D01*
X131742811Y-53705184D01*
X131117971Y-53705184D01*
X131126586Y-53694193D01*
X131163223Y-53600404D01*
X131175679Y-53503684D01*
X131153464Y-53352719D01*
X131112664Y-53258953D01*
X131029568Y-53131087D01*
X130963188Y-53048660D01*
X131032797Y-52957069D01*
X131084088Y-52861081D01*
X131117061Y-52748974D01*
X131128052Y-52611221D01*
X131113397Y-52459729D01*
X131069433Y-52321793D01*
X130993710Y-52193190D01*
X130904570Y-52097578D01*
X130779483Y-52009714D01*
X130648847Y-51951765D01*
X130501790Y-51914424D01*
X130352044Y-51900199D01*
X130318387Y-51899741D01*
X130172574Y-51912930D01*
X130048010Y-51946636D01*
X129298429Y-51946636D01*
X128720306Y-51946636D01*
X128720306Y-51383900D01*
X132313607Y-51383900D01*
X132335588Y-51493077D01*
X132394939Y-51583203D01*
X132485065Y-51644019D01*
X132596440Y-51665268D01*
X132707815Y-51644019D01*
X132797207Y-51583203D01*
X132857291Y-51493077D01*
X132878540Y-51383900D01*
X132857291Y-51273991D01*
X132797207Y-51184598D01*
X132707815Y-51124515D01*
X132596440Y-51102533D01*
X132485065Y-51124515D01*
X132394939Y-51184598D01*
X132335588Y-51273991D01*
X132313607Y-51383900D01*
X128720306Y-51383900D01*
X128720306Y-51337006D01*
X127202092Y-51337006D01*
X127202092Y-51653545D01*
X121848045Y-51653545D01*
X121848045Y-51102533D01*
X121489741Y-51102533D01*
X121489741Y-52888925D01*
X120559908Y-51946636D01*
X120085833Y-51946636D01*
X121056698Y-52896985D01*
X120032343Y-54010000D01*
X119561932Y-54010000D01*
X119561932Y-53705184D01*
X118881960Y-53705184D01*
X118881960Y-52239727D01*
X119493788Y-52239727D01*
X119493788Y-51946636D01*
X118519259Y-51946636D01*
X118519259Y-53705184D01*
X117903034Y-53705184D01*
X117280215Y-53705184D01*
X117280215Y-51946636D01*
X116960745Y-51946636D01*
X116946091Y-52279295D01*
X116846554Y-52167471D01*
X116771701Y-52096845D01*
X116651412Y-52007331D01*
X116605372Y-51980341D01*
X116466036Y-51924217D01*
X116439775Y-51918060D01*
X116292171Y-51900189D01*
X116263921Y-51899741D01*
X116113940Y-51911557D01*
X115968532Y-51953095D01*
X115835925Y-52034324D01*
X115781052Y-52088785D01*
X115694499Y-52225542D01*
X115644009Y-52380437D01*
X115620928Y-52543423D01*
X115616921Y-52657383D01*
X114977963Y-52657383D01*
X114981646Y-52611221D01*
X114966991Y-52459729D01*
X114923027Y-52321793D01*
X114847304Y-52193190D01*
X114758163Y-52097578D01*
X114633077Y-52009714D01*
X114502441Y-51951765D01*
X114355384Y-51914424D01*
X114205638Y-51900199D01*
X114171981Y-51899741D01*
X114026168Y-51912930D01*
X113901604Y-51946636D01*
X113152022Y-51946636D01*
X112671353Y-51946636D01*
X112671353Y-51383900D01*
X118473830Y-51383900D01*
X118495812Y-51493077D01*
X118555163Y-51583203D01*
X118645288Y-51644019D01*
X118756663Y-51665268D01*
X118868038Y-51644019D01*
X118957431Y-51583203D01*
X119017514Y-51493077D01*
X119038764Y-51383900D01*
X119017514Y-51273991D01*
X118957431Y-51184598D01*
X118868038Y-51124515D01*
X118756663Y-51102533D01*
X118645288Y-51124515D01*
X118555163Y-51184598D01*
X118495812Y-51273991D01*
X118473830Y-51383900D01*
X112671353Y-51383900D01*
X112671353Y-51337006D01*
X111900522Y-51337006D01*
X111739589Y-51342750D01*
X111549635Y-51368281D01*
X111387822Y-51414237D01*
X111254150Y-51480618D01*
X111126635Y-51592316D01*
X111043090Y-51735928D01*
X111003516Y-51911454D01*
X110999999Y-51990600D01*
X111004495Y-52038227D01*
X111014630Y-52145606D01*
X111063504Y-52293762D01*
X111104046Y-52365024D01*
X111210110Y-52478651D01*
X111346226Y-52560138D01*
X111442567Y-52597299D01*
X111297990Y-52639016D01*
X111235937Y-52666908D01*
X111112361Y-52747256D01*
X111063746Y-52792937D01*
X110976534Y-52912578D01*
X110946510Y-52976120D01*
X110908728Y-53118601D01*
X110902546Y-53214256D01*
X110364779Y-53214256D01*
X110350667Y-53173860D01*
X110263160Y-53049787D01*
X110184472Y-52979050D01*
X110054504Y-52901793D01*
X109896876Y-52846610D01*
X109736261Y-52816431D01*
X109581735Y-52804015D01*
X109498638Y-52802463D01*
X109069992Y-52802463D01*
X109069992Y-52617083D01*
X109092572Y-52467397D01*
X109166879Y-52339080D01*
X109187961Y-52317397D01*
X109314245Y-52240260D01*
X109460218Y-52208523D01*
X109546265Y-52204556D01*
X109698515Y-52211569D01*
X109848802Y-52232606D01*
X109891380Y-52241193D01*
X110042368Y-52279140D01*
X110186590Y-52324926D01*
X110243090Y-52345240D01*
X110243090Y-52016978D01*
X110101797Y-51976406D01*
X110091415Y-51973747D01*
X109944197Y-51941540D01*
X109915560Y-51936378D01*
X109765240Y-51914518D01*
X109721387Y-51910000D01*
X109568888Y-51900382D01*
X109517689Y-51899741D01*
X109360710Y-51907735D01*
X109208394Y-51934043D01*
X109179901Y-51941507D01*
X109040683Y-51993531D01*
X108924912Y-52067536D01*
X108823160Y-52176243D01*
X108765177Y-52280027D01*
X108721725Y-52428519D01*
X108709489Y-52581179D01*
X108098012Y-52581179D01*
X108091088Y-52554630D01*
X108086670Y-52541612D01*
X108030116Y-52406252D01*
X107952029Y-52276164D01*
X107882239Y-52190635D01*
X107765180Y-52085910D01*
X107630707Y-52003920D01*
X107562769Y-51973747D01*
X107416658Y-51928650D01*
X107258595Y-51904367D01*
X107146579Y-51899741D01*
X106994256Y-51907344D01*
X106952406Y-51912198D01*
X106804215Y-51940605D01*
X106763362Y-51951765D01*
X106763362Y-51102533D01*
X106402860Y-51102533D01*
X106402860Y-52279295D01*
X105671486Y-52279295D01*
X105620786Y-52193190D01*
X105531646Y-52097578D01*
X105406559Y-52009714D01*
X105275923Y-51951765D01*
X105128866Y-51914424D01*
X104979120Y-51900199D01*
X104945463Y-51899741D01*
X104799650Y-51912930D01*
X104675086Y-51946636D01*
X103925505Y-51946636D01*
X102882182Y-51946636D01*
X102848840Y-51933802D01*
X102697406Y-51905191D01*
X102589008Y-51899741D01*
X102433795Y-51909221D01*
X102281230Y-51940886D01*
X102205791Y-51967152D01*
X102069709Y-52036295D01*
X101953824Y-52127036D01*
X101924423Y-52156929D01*
X101835064Y-52274878D01*
X101767024Y-52413304D01*
X101751499Y-52456615D01*
X101713546Y-52606390D01*
X101695686Y-52756880D01*
X101694667Y-52790739D01*
X101692881Y-52850090D01*
X98824215Y-52850090D01*
X98824134Y-52848442D01*
X98798758Y-52692783D01*
X98755372Y-52548206D01*
X98689117Y-52404225D01*
X98605758Y-52276730D01*
X98540683Y-52200893D01*
X98429743Y-52101906D01*
X98303553Y-52021466D01*
X98210955Y-51978143D01*
X98061512Y-51930367D01*
X97914929Y-51905943D01*
X97788170Y-51899741D01*
X97632832Y-51905969D01*
X97487752Y-51924654D01*
X97342362Y-51959444D01*
X97219573Y-52005254D01*
X96139184Y-52005254D01*
X96086042Y-51979609D01*
X95941202Y-51930940D01*
X95796303Y-51906059D01*
X95669119Y-51899741D01*
X95521938Y-51907967D01*
X95373818Y-51935702D01*
X95271248Y-51969351D01*
X95136719Y-52036550D01*
X95011858Y-52132720D01*
X94972295Y-52173049D01*
X94881951Y-52292285D01*
X94810957Y-52433288D01*
X94784716Y-52505708D01*
X94747588Y-52649151D01*
X94725872Y-52806447D01*
X94719503Y-52961465D01*
X94358268Y-52961465D01*
X94358268Y-51946636D01*
X94084228Y-51946636D01*
X94067375Y-52339378D01*
X94001658Y-52203480D01*
X93963327Y-52135680D01*
X93875924Y-52016959D01*
X93859280Y-52000125D01*
X93744974Y-51923921D01*
X93610152Y-51899741D01*
X93463240Y-51927585D01*
X93356628Y-52011116D01*
X93291782Y-52152899D01*
X93271517Y-52299147D01*
X93270166Y-52355498D01*
X93206032Y-52222618D01*
X93173446Y-52161325D01*
X93088380Y-52037194D01*
X93071597Y-52018443D01*
X92950697Y-51930516D01*
X92803673Y-51899771D01*
X92798289Y-51899741D01*
X92646400Y-51928492D01*
X92518493Y-52031761D01*
X92446545Y-52183731D01*
X92417994Y-52327486D01*
X92408477Y-52500579D01*
X92003337Y-52500579D01*
X92003337Y-50769200D01*
X136218991Y-50769200D01*
X136218991Y-64470227D01*
G37*
X124867438Y-89360588D02*
X124819819Y-89265350D01*
X124819819Y-89265350D02*
X124819819Y-89122493D01*
X124819819Y-89122493D02*
X124867438Y-88979636D01*
X124867438Y-88979636D02*
X124962676Y-88884398D01*
X124962676Y-88884398D02*
X125057914Y-88836779D01*
X125057914Y-88836779D02*
X125248390Y-88789160D01*
X125248390Y-88789160D02*
X125391247Y-88789160D01*
X125391247Y-88789160D02*
X125581723Y-88836779D01*
X125581723Y-88836779D02*
X125676961Y-88884398D01*
X125676961Y-88884398D02*
X125772200Y-88979636D01*
X125772200Y-88979636D02*
X125819819Y-89122493D01*
X125819819Y-89122493D02*
X125819819Y-89217731D01*
X125819819Y-89217731D02*
X125772200Y-89360588D01*
X125772200Y-89360588D02*
X125724580Y-89408207D01*
X125724580Y-89408207D02*
X125391247Y-89408207D01*
X125391247Y-89408207D02*
X125391247Y-89217731D01*
X125153152Y-89836779D02*
X125819819Y-89836779D01*
X125248390Y-89836779D02*
X125200771Y-89884398D01*
X125200771Y-89884398D02*
X125153152Y-89979636D01*
X125153152Y-89979636D02*
X125153152Y-90122493D01*
X125153152Y-90122493D02*
X125200771Y-90217731D01*
X125200771Y-90217731D02*
X125296009Y-90265350D01*
X125296009Y-90265350D02*
X125819819Y-90265350D01*
X125819819Y-91170112D02*
X124819819Y-91170112D01*
X125772200Y-91170112D02*
X125819819Y-91074874D01*
X125819819Y-91074874D02*
X125819819Y-90884398D01*
X125819819Y-90884398D02*
X125772200Y-90789160D01*
X125772200Y-90789160D02*
X125724580Y-90741541D01*
X125724580Y-90741541D02*
X125629342Y-90693922D01*
X125629342Y-90693922D02*
X125343628Y-90693922D01*
X125343628Y-90693922D02*
X125248390Y-90741541D01*
X125248390Y-90741541D02*
X125200771Y-90789160D01*
X125200771Y-90789160D02*
X125153152Y-90884398D01*
X125153152Y-90884398D02*
X125153152Y-91074874D01*
X125153152Y-91074874D02*
X125200771Y-91170112D01*
D11*
X77195489Y-85470996D02*
X77195489Y-83970996D01*
X77195489Y-83970996D02*
X76838346Y-83970996D01*
X76838346Y-83970996D02*
X76624060Y-84042425D01*
X76624060Y-84042425D02*
X76481203Y-84185282D01*
X76481203Y-84185282D02*
X76409774Y-84328139D01*
X76409774Y-84328139D02*
X76338346Y-84613853D01*
X76338346Y-84613853D02*
X76338346Y-84828139D01*
X76338346Y-84828139D02*
X76409774Y-85113853D01*
X76409774Y-85113853D02*
X76481203Y-85256710D01*
X76481203Y-85256710D02*
X76624060Y-85399568D01*
X76624060Y-85399568D02*
X76838346Y-85470996D01*
X76838346Y-85470996D02*
X77195489Y-85470996D01*
X74838346Y-85328139D02*
X74909774Y-85399568D01*
X74909774Y-85399568D02*
X75124060Y-85470996D01*
X75124060Y-85470996D02*
X75266917Y-85470996D01*
X75266917Y-85470996D02*
X75481203Y-85399568D01*
X75481203Y-85399568D02*
X75624060Y-85256710D01*
X75624060Y-85256710D02*
X75695489Y-85113853D01*
X75695489Y-85113853D02*
X75766917Y-84828139D01*
X75766917Y-84828139D02*
X75766917Y-84613853D01*
X75766917Y-84613853D02*
X75695489Y-84328139D01*
X75695489Y-84328139D02*
X75624060Y-84185282D01*
X75624060Y-84185282D02*
X75481203Y-84042425D01*
X75481203Y-84042425D02*
X75266917Y-83970996D01*
X75266917Y-83970996D02*
X75124060Y-83970996D01*
X75124060Y-83970996D02*
X74909774Y-84042425D01*
X74909774Y-84042425D02*
X74838346Y-84113853D01*
X74338346Y-83970996D02*
X73409774Y-83970996D01*
X73409774Y-83970996D02*
X73909774Y-84542425D01*
X73909774Y-84542425D02*
X73695489Y-84542425D01*
X73695489Y-84542425D02*
X73552632Y-84613853D01*
X73552632Y-84613853D02*
X73481203Y-84685282D01*
X73481203Y-84685282D02*
X73409774Y-84828139D01*
X73409774Y-84828139D02*
X73409774Y-85185282D01*
X73409774Y-85185282D02*
X73481203Y-85328139D01*
X73481203Y-85328139D02*
X73552632Y-85399568D01*
X73552632Y-85399568D02*
X73695489Y-85470996D01*
X73695489Y-85470996D02*
X74124060Y-85470996D01*
X74124060Y-85470996D02*
X74266917Y-85399568D01*
X74266917Y-85399568D02*
X74338346Y-85328139D01*
X72838346Y-84113853D02*
X72766918Y-84042425D01*
X72766918Y-84042425D02*
X72624061Y-83970996D01*
X72624061Y-83970996D02*
X72266918Y-83970996D01*
X72266918Y-83970996D02*
X72124061Y-84042425D01*
X72124061Y-84042425D02*
X72052632Y-84113853D01*
X72052632Y-84113853D02*
X71981203Y-84256710D01*
X71981203Y-84256710D02*
X71981203Y-84399568D01*
X71981203Y-84399568D02*
X72052632Y-84613853D01*
X72052632Y-84613853D02*
X72909775Y-85470996D01*
X72909775Y-85470996D02*
X71981203Y-85470996D01*
X77195489Y-87885912D02*
X77195489Y-86385912D01*
X77195489Y-86385912D02*
X76838346Y-86385912D01*
X76838346Y-86385912D02*
X76624060Y-86457341D01*
X76624060Y-86457341D02*
X76481203Y-86600198D01*
X76481203Y-86600198D02*
X76409774Y-86743055D01*
X76409774Y-86743055D02*
X76338346Y-87028769D01*
X76338346Y-87028769D02*
X76338346Y-87243055D01*
X76338346Y-87243055D02*
X76409774Y-87528769D01*
X76409774Y-87528769D02*
X76481203Y-87671626D01*
X76481203Y-87671626D02*
X76624060Y-87814484D01*
X76624060Y-87814484D02*
X76838346Y-87885912D01*
X76838346Y-87885912D02*
X77195489Y-87885912D01*
X74838346Y-87743055D02*
X74909774Y-87814484D01*
X74909774Y-87814484D02*
X75124060Y-87885912D01*
X75124060Y-87885912D02*
X75266917Y-87885912D01*
X75266917Y-87885912D02*
X75481203Y-87814484D01*
X75481203Y-87814484D02*
X75624060Y-87671626D01*
X75624060Y-87671626D02*
X75695489Y-87528769D01*
X75695489Y-87528769D02*
X75766917Y-87243055D01*
X75766917Y-87243055D02*
X75766917Y-87028769D01*
X75766917Y-87028769D02*
X75695489Y-86743055D01*
X75695489Y-86743055D02*
X75624060Y-86600198D01*
X75624060Y-86600198D02*
X75481203Y-86457341D01*
X75481203Y-86457341D02*
X75266917Y-86385912D01*
X75266917Y-86385912D02*
X75124060Y-86385912D01*
X75124060Y-86385912D02*
X74909774Y-86457341D01*
X74909774Y-86457341D02*
X74838346Y-86528769D01*
X74266917Y-86528769D02*
X74195489Y-86457341D01*
X74195489Y-86457341D02*
X74052632Y-86385912D01*
X74052632Y-86385912D02*
X73695489Y-86385912D01*
X73695489Y-86385912D02*
X73552632Y-86457341D01*
X73552632Y-86457341D02*
X73481203Y-86528769D01*
X73481203Y-86528769D02*
X73409774Y-86671626D01*
X73409774Y-86671626D02*
X73409774Y-86814484D01*
X73409774Y-86814484D02*
X73481203Y-87028769D01*
X73481203Y-87028769D02*
X74338346Y-87885912D01*
X74338346Y-87885912D02*
X73409774Y-87885912D01*
X72981203Y-86528769D02*
X72695489Y-86314484D01*
X72695489Y-86314484D02*
X72409775Y-86528769D01*
X71195489Y-86385912D02*
X71909775Y-86385912D01*
X71909775Y-86385912D02*
X71981203Y-87100198D01*
X71981203Y-87100198D02*
X71909775Y-87028769D01*
X71909775Y-87028769D02*
X71766918Y-86957341D01*
X71766918Y-86957341D02*
X71409775Y-86957341D01*
X71409775Y-86957341D02*
X71266918Y-87028769D01*
X71266918Y-87028769D02*
X71195489Y-87100198D01*
X71195489Y-87100198D02*
X71124060Y-87243055D01*
X71124060Y-87243055D02*
X71124060Y-87600198D01*
X71124060Y-87600198D02*
X71195489Y-87743055D01*
X71195489Y-87743055D02*
X71266918Y-87814484D01*
X71266918Y-87814484D02*
X71409775Y-87885912D01*
X71409775Y-87885912D02*
X71766918Y-87885912D01*
X71766918Y-87885912D02*
X71909775Y-87814484D01*
X71909775Y-87814484D02*
X71981203Y-87743055D01*
X77195489Y-90300828D02*
X77195489Y-88800828D01*
X77195489Y-88800828D02*
X76838346Y-88800828D01*
X76838346Y-88800828D02*
X76624060Y-88872257D01*
X76624060Y-88872257D02*
X76481203Y-89015114D01*
X76481203Y-89015114D02*
X76409774Y-89157971D01*
X76409774Y-89157971D02*
X76338346Y-89443685D01*
X76338346Y-89443685D02*
X76338346Y-89657971D01*
X76338346Y-89657971D02*
X76409774Y-89943685D01*
X76409774Y-89943685D02*
X76481203Y-90086542D01*
X76481203Y-90086542D02*
X76624060Y-90229400D01*
X76624060Y-90229400D02*
X76838346Y-90300828D01*
X76838346Y-90300828D02*
X77195489Y-90300828D01*
X74838346Y-90157971D02*
X74909774Y-90229400D01*
X74909774Y-90229400D02*
X75124060Y-90300828D01*
X75124060Y-90300828D02*
X75266917Y-90300828D01*
X75266917Y-90300828D02*
X75481203Y-90229400D01*
X75481203Y-90229400D02*
X75624060Y-90086542D01*
X75624060Y-90086542D02*
X75695489Y-89943685D01*
X75695489Y-89943685D02*
X75766917Y-89657971D01*
X75766917Y-89657971D02*
X75766917Y-89443685D01*
X75766917Y-89443685D02*
X75695489Y-89157971D01*
X75695489Y-89157971D02*
X75624060Y-89015114D01*
X75624060Y-89015114D02*
X75481203Y-88872257D01*
X75481203Y-88872257D02*
X75266917Y-88800828D01*
X75266917Y-88800828D02*
X75124060Y-88800828D01*
X75124060Y-88800828D02*
X74909774Y-88872257D01*
X74909774Y-88872257D02*
X74838346Y-88943685D01*
X73909774Y-88800828D02*
X73766917Y-88800828D01*
X73766917Y-88800828D02*
X73624060Y-88872257D01*
X73624060Y-88872257D02*
X73552632Y-88943685D01*
X73552632Y-88943685D02*
X73481203Y-89086542D01*
X73481203Y-89086542D02*
X73409774Y-89372257D01*
X73409774Y-89372257D02*
X73409774Y-89729400D01*
X73409774Y-89729400D02*
X73481203Y-90015114D01*
X73481203Y-90015114D02*
X73552632Y-90157971D01*
X73552632Y-90157971D02*
X73624060Y-90229400D01*
X73624060Y-90229400D02*
X73766917Y-90300828D01*
X73766917Y-90300828D02*
X73909774Y-90300828D01*
X73909774Y-90300828D02*
X74052632Y-90229400D01*
X74052632Y-90229400D02*
X74124060Y-90157971D01*
X74124060Y-90157971D02*
X74195489Y-90015114D01*
X74195489Y-90015114D02*
X74266917Y-89729400D01*
X74266917Y-89729400D02*
X74266917Y-89372257D01*
X74266917Y-89372257D02*
X74195489Y-89086542D01*
X74195489Y-89086542D02*
X74124060Y-88943685D01*
X74124060Y-88943685D02*
X74052632Y-88872257D01*
X74052632Y-88872257D02*
X73909774Y-88800828D01*
X72909775Y-90300828D02*
X72124061Y-89300828D01*
X72909775Y-89300828D02*
X72124061Y-90300828D01*
X71624060Y-88943685D02*
X71552632Y-88872257D01*
X71552632Y-88872257D02*
X71409775Y-88800828D01*
X71409775Y-88800828D02*
X71052632Y-88800828D01*
X71052632Y-88800828D02*
X70909775Y-88872257D01*
X70909775Y-88872257D02*
X70838346Y-88943685D01*
X70838346Y-88943685D02*
X70766917Y-89086542D01*
X70766917Y-89086542D02*
X70766917Y-89229400D01*
X70766917Y-89229400D02*
X70838346Y-89443685D01*
X70838346Y-89443685D02*
X71695489Y-90300828D01*
X71695489Y-90300828D02*
X70766917Y-90300828D01*
X69838346Y-88800828D02*
X69695489Y-88800828D01*
X69695489Y-88800828D02*
X69552632Y-88872257D01*
X69552632Y-88872257D02*
X69481204Y-88943685D01*
X69481204Y-88943685D02*
X69409775Y-89086542D01*
X69409775Y-89086542D02*
X69338346Y-89372257D01*
X69338346Y-89372257D02*
X69338346Y-89729400D01*
X69338346Y-89729400D02*
X69409775Y-90015114D01*
X69409775Y-90015114D02*
X69481204Y-90157971D01*
X69481204Y-90157971D02*
X69552632Y-90229400D01*
X69552632Y-90229400D02*
X69695489Y-90300828D01*
X69695489Y-90300828D02*
X69838346Y-90300828D01*
X69838346Y-90300828D02*
X69981204Y-90229400D01*
X69981204Y-90229400D02*
X70052632Y-90157971D01*
X70052632Y-90157971D02*
X70124061Y-90015114D01*
X70124061Y-90015114D02*
X70195489Y-89729400D01*
X70195489Y-89729400D02*
X70195489Y-89372257D01*
X70195489Y-89372257D02*
X70124061Y-89086542D01*
X70124061Y-89086542D02*
X70052632Y-88943685D01*
X70052632Y-88943685D02*
X69981204Y-88872257D01*
X69981204Y-88872257D02*
X69838346Y-88800828D01*
D10*
X131656077Y-67369819D02*
X131084649Y-67369819D01*
X131370363Y-68369819D02*
X131370363Y-67369819D01*
X130608458Y-68369819D02*
X130703696Y-68322200D01*
X130703696Y-68322200D02*
X130751315Y-68274580D01*
X130751315Y-68274580D02*
X130798934Y-68179342D01*
X130798934Y-68179342D02*
X130798934Y-67893628D01*
X130798934Y-67893628D02*
X130751315Y-67798390D01*
X130751315Y-67798390D02*
X130703696Y-67750771D01*
X130703696Y-67750771D02*
X130608458Y-67703152D01*
X130608458Y-67703152D02*
X130465601Y-67703152D01*
X130465601Y-67703152D02*
X130370363Y-67750771D01*
X130370363Y-67750771D02*
X130322744Y-67798390D01*
X130322744Y-67798390D02*
X130275125Y-67893628D01*
X130275125Y-67893628D02*
X130275125Y-68179342D01*
X130275125Y-68179342D02*
X130322744Y-68274580D01*
X130322744Y-68274580D02*
X130370363Y-68322200D01*
X130370363Y-68322200D02*
X130465601Y-68369819D01*
X130465601Y-68369819D02*
X130608458Y-68369819D01*
X129417982Y-67703152D02*
X129417982Y-68369819D01*
X129846553Y-67703152D02*
X129846553Y-68226961D01*
X129846553Y-68226961D02*
X129798934Y-68322200D01*
X129798934Y-68322200D02*
X129703696Y-68369819D01*
X129703696Y-68369819D02*
X129560839Y-68369819D01*
X129560839Y-68369819D02*
X129465601Y-68322200D01*
X129465601Y-68322200D02*
X129417982Y-68274580D01*
X128513220Y-68322200D02*
X128608458Y-68369819D01*
X128608458Y-68369819D02*
X128798934Y-68369819D01*
X128798934Y-68369819D02*
X128894172Y-68322200D01*
X128894172Y-68322200D02*
X128941791Y-68274580D01*
X128941791Y-68274580D02*
X128989410Y-68179342D01*
X128989410Y-68179342D02*
X128989410Y-67893628D01*
X128989410Y-67893628D02*
X128941791Y-67798390D01*
X128941791Y-67798390D02*
X128894172Y-67750771D01*
X128894172Y-67750771D02*
X128798934Y-67703152D01*
X128798934Y-67703152D02*
X128608458Y-67703152D01*
X128608458Y-67703152D02*
X128513220Y-67750771D01*
X128084648Y-68369819D02*
X128084648Y-67369819D01*
X127656077Y-68369819D02*
X127656077Y-67846009D01*
X127656077Y-67846009D02*
X127703696Y-67750771D01*
X127703696Y-67750771D02*
X127798934Y-67703152D01*
X127798934Y-67703152D02*
X127941791Y-67703152D01*
X127941791Y-67703152D02*
X128037029Y-67750771D01*
X128037029Y-67750771D02*
X128084648Y-67798390D01*
X126560838Y-67703152D02*
X126179886Y-67703152D01*
X126417981Y-67369819D02*
X126417981Y-68226961D01*
X126417981Y-68226961D02*
X126370362Y-68322200D01*
X126370362Y-68322200D02*
X126275124Y-68369819D01*
X126275124Y-68369819D02*
X126179886Y-68369819D01*
X125846552Y-68369819D02*
X125846552Y-67369819D01*
X125417981Y-68369819D02*
X125417981Y-67846009D01*
X125417981Y-67846009D02*
X125465600Y-67750771D01*
X125465600Y-67750771D02*
X125560838Y-67703152D01*
X125560838Y-67703152D02*
X125703695Y-67703152D01*
X125703695Y-67703152D02*
X125798933Y-67750771D01*
X125798933Y-67750771D02*
X125846552Y-67798390D01*
X124560838Y-68322200D02*
X124656076Y-68369819D01*
X124656076Y-68369819D02*
X124846552Y-68369819D01*
X124846552Y-68369819D02*
X124941790Y-68322200D01*
X124941790Y-68322200D02*
X124989409Y-68226961D01*
X124989409Y-68226961D02*
X124989409Y-67846009D01*
X124989409Y-67846009D02*
X124941790Y-67750771D01*
X124941790Y-67750771D02*
X124846552Y-67703152D01*
X124846552Y-67703152D02*
X124656076Y-67703152D01*
X124656076Y-67703152D02*
X124560838Y-67750771D01*
X124560838Y-67750771D02*
X124513219Y-67846009D01*
X124513219Y-67846009D02*
X124513219Y-67941247D01*
X124513219Y-67941247D02*
X124989409Y-68036485D01*
X122894171Y-68369819D02*
X122894171Y-67369819D01*
X122894171Y-68322200D02*
X122989409Y-68369819D01*
X122989409Y-68369819D02*
X123179885Y-68369819D01*
X123179885Y-68369819D02*
X123275123Y-68322200D01*
X123275123Y-68322200D02*
X123322742Y-68274580D01*
X123322742Y-68274580D02*
X123370361Y-68179342D01*
X123370361Y-68179342D02*
X123370361Y-67893628D01*
X123370361Y-67893628D02*
X123322742Y-67798390D01*
X123322742Y-67798390D02*
X123275123Y-67750771D01*
X123275123Y-67750771D02*
X123179885Y-67703152D01*
X123179885Y-67703152D02*
X122989409Y-67703152D01*
X122989409Y-67703152D02*
X122894171Y-67750771D01*
X121989409Y-67703152D02*
X121989409Y-68369819D01*
X122417980Y-67703152D02*
X122417980Y-68226961D01*
X122417980Y-68226961D02*
X122370361Y-68322200D01*
X122370361Y-68322200D02*
X122275123Y-68369819D01*
X122275123Y-68369819D02*
X122132266Y-68369819D01*
X122132266Y-68369819D02*
X122037028Y-68322200D01*
X122037028Y-68322200D02*
X121989409Y-68274580D01*
X121084647Y-68369819D02*
X121084647Y-67369819D01*
X121084647Y-68322200D02*
X121179885Y-68369819D01*
X121179885Y-68369819D02*
X121370361Y-68369819D01*
X121370361Y-68369819D02*
X121465599Y-68322200D01*
X121465599Y-68322200D02*
X121513218Y-68274580D01*
X121513218Y-68274580D02*
X121560837Y-68179342D01*
X121560837Y-68179342D02*
X121560837Y-67893628D01*
X121560837Y-67893628D02*
X121513218Y-67798390D01*
X121513218Y-67798390D02*
X121465599Y-67750771D01*
X121465599Y-67750771D02*
X121370361Y-67703152D01*
X121370361Y-67703152D02*
X121179885Y-67703152D01*
X121179885Y-67703152D02*
X121084647Y-67750771D01*
X120227504Y-68322200D02*
X120322742Y-68369819D01*
X120322742Y-68369819D02*
X120513218Y-68369819D01*
X120513218Y-68369819D02*
X120608456Y-68322200D01*
X120608456Y-68322200D02*
X120656075Y-68226961D01*
X120656075Y-68226961D02*
X120656075Y-67846009D01*
X120656075Y-67846009D02*
X120608456Y-67750771D01*
X120608456Y-67750771D02*
X120513218Y-67703152D01*
X120513218Y-67703152D02*
X120322742Y-67703152D01*
X120322742Y-67703152D02*
X120227504Y-67750771D01*
X120227504Y-67750771D02*
X120179885Y-67846009D01*
X120179885Y-67846009D02*
X120179885Y-67941247D01*
X120179885Y-67941247D02*
X120656075Y-68036485D01*
X118846551Y-68369819D02*
X118941789Y-68322200D01*
X118941789Y-68322200D02*
X118989408Y-68274580D01*
X118989408Y-68274580D02*
X119037027Y-68179342D01*
X119037027Y-68179342D02*
X119037027Y-67893628D01*
X119037027Y-67893628D02*
X118989408Y-67798390D01*
X118989408Y-67798390D02*
X118941789Y-67750771D01*
X118941789Y-67750771D02*
X118846551Y-67703152D01*
X118846551Y-67703152D02*
X118703694Y-67703152D01*
X118703694Y-67703152D02*
X118608456Y-67750771D01*
X118608456Y-67750771D02*
X118560837Y-67798390D01*
X118560837Y-67798390D02*
X118513218Y-67893628D01*
X118513218Y-67893628D02*
X118513218Y-68179342D01*
X118513218Y-68179342D02*
X118560837Y-68274580D01*
X118560837Y-68274580D02*
X118608456Y-68322200D01*
X118608456Y-68322200D02*
X118703694Y-68369819D01*
X118703694Y-68369819D02*
X118846551Y-68369819D01*
X118084646Y-67703152D02*
X118084646Y-68369819D01*
X118084646Y-67798390D02*
X118037027Y-67750771D01*
X118037027Y-67750771D02*
X117941789Y-67703152D01*
X117941789Y-67703152D02*
X117798932Y-67703152D01*
X117798932Y-67703152D02*
X117703694Y-67750771D01*
X117703694Y-67750771D02*
X117656075Y-67846009D01*
X117656075Y-67846009D02*
X117656075Y-68369819D01*
X116560836Y-67703152D02*
X116179884Y-67703152D01*
X116417979Y-67369819D02*
X116417979Y-68226961D01*
X116417979Y-68226961D02*
X116370360Y-68322200D01*
X116370360Y-68322200D02*
X116275122Y-68369819D01*
X116275122Y-68369819D02*
X116179884Y-68369819D01*
X115846550Y-68369819D02*
X115846550Y-67369819D01*
X115417979Y-68369819D02*
X115417979Y-67846009D01*
X115417979Y-67846009D02*
X115465598Y-67750771D01*
X115465598Y-67750771D02*
X115560836Y-67703152D01*
X115560836Y-67703152D02*
X115703693Y-67703152D01*
X115703693Y-67703152D02*
X115798931Y-67750771D01*
X115798931Y-67750771D02*
X115846550Y-67798390D01*
X114560836Y-68322200D02*
X114656074Y-68369819D01*
X114656074Y-68369819D02*
X114846550Y-68369819D01*
X114846550Y-68369819D02*
X114941788Y-68322200D01*
X114941788Y-68322200D02*
X114989407Y-68226961D01*
X114989407Y-68226961D02*
X114989407Y-67846009D01*
X114989407Y-67846009D02*
X114941788Y-67750771D01*
X114941788Y-67750771D02*
X114846550Y-67703152D01*
X114846550Y-67703152D02*
X114656074Y-67703152D01*
X114656074Y-67703152D02*
X114560836Y-67750771D01*
X114560836Y-67750771D02*
X114513217Y-67846009D01*
X114513217Y-67846009D02*
X114513217Y-67941247D01*
X114513217Y-67941247D02*
X114989407Y-68036485D01*
X113465597Y-67703152D02*
X113084645Y-67703152D01*
X113322740Y-68369819D02*
X113322740Y-67512676D01*
X113322740Y-67512676D02*
X113275121Y-67417438D01*
X113275121Y-67417438D02*
X113179883Y-67369819D01*
X113179883Y-67369819D02*
X113084645Y-67369819D01*
X112751311Y-68369819D02*
X112751311Y-67703152D01*
X112751311Y-67893628D02*
X112703692Y-67798390D01*
X112703692Y-67798390D02*
X112656073Y-67750771D01*
X112656073Y-67750771D02*
X112560835Y-67703152D01*
X112560835Y-67703152D02*
X112465597Y-67703152D01*
X111989406Y-68369819D02*
X112084644Y-68322200D01*
X112084644Y-68322200D02*
X112132263Y-68274580D01*
X112132263Y-68274580D02*
X112179882Y-68179342D01*
X112179882Y-68179342D02*
X112179882Y-67893628D01*
X112179882Y-67893628D02*
X112132263Y-67798390D01*
X112132263Y-67798390D02*
X112084644Y-67750771D01*
X112084644Y-67750771D02*
X111989406Y-67703152D01*
X111989406Y-67703152D02*
X111846549Y-67703152D01*
X111846549Y-67703152D02*
X111751311Y-67750771D01*
X111751311Y-67750771D02*
X111703692Y-67798390D01*
X111703692Y-67798390D02*
X111656073Y-67893628D01*
X111656073Y-67893628D02*
X111656073Y-68179342D01*
X111656073Y-68179342D02*
X111703692Y-68274580D01*
X111703692Y-68274580D02*
X111751311Y-68322200D01*
X111751311Y-68322200D02*
X111846549Y-68369819D01*
X111846549Y-68369819D02*
X111989406Y-68369819D01*
X111227501Y-67703152D02*
X111227501Y-68369819D01*
X111227501Y-67798390D02*
X111179882Y-67750771D01*
X111179882Y-67750771D02*
X111084644Y-67703152D01*
X111084644Y-67703152D02*
X110941787Y-67703152D01*
X110941787Y-67703152D02*
X110846549Y-67750771D01*
X110846549Y-67750771D02*
X110798930Y-67846009D01*
X110798930Y-67846009D02*
X110798930Y-68369819D01*
X110465596Y-67703152D02*
X110084644Y-67703152D01*
X110322739Y-67369819D02*
X110322739Y-68226961D01*
X110322739Y-68226961D02*
X110275120Y-68322200D01*
X110275120Y-68322200D02*
X110179882Y-68369819D01*
X110179882Y-68369819D02*
X110084644Y-68369819D01*
X109132262Y-67703152D02*
X108751310Y-67703152D01*
X108989405Y-67369819D02*
X108989405Y-68226961D01*
X108989405Y-68226961D02*
X108941786Y-68322200D01*
X108941786Y-68322200D02*
X108846548Y-68369819D01*
X108846548Y-68369819D02*
X108751310Y-68369819D01*
X108275119Y-68369819D02*
X108370357Y-68322200D01*
X108370357Y-68322200D02*
X108417976Y-68274580D01*
X108417976Y-68274580D02*
X108465595Y-68179342D01*
X108465595Y-68179342D02*
X108465595Y-67893628D01*
X108465595Y-67893628D02*
X108417976Y-67798390D01*
X108417976Y-67798390D02*
X108370357Y-67750771D01*
X108370357Y-67750771D02*
X108275119Y-67703152D01*
X108275119Y-67703152D02*
X108132262Y-67703152D01*
X108132262Y-67703152D02*
X108037024Y-67750771D01*
X108037024Y-67750771D02*
X107989405Y-67798390D01*
X107989405Y-67798390D02*
X107941786Y-67893628D01*
X107941786Y-67893628D02*
X107941786Y-68179342D01*
X107941786Y-68179342D02*
X107989405Y-68274580D01*
X107989405Y-68274580D02*
X108037024Y-68322200D01*
X108037024Y-68322200D02*
X108132262Y-68369819D01*
X108132262Y-68369819D02*
X108275119Y-68369819D01*
X106322738Y-68322200D02*
X106417976Y-68369819D01*
X106417976Y-68369819D02*
X106608452Y-68369819D01*
X106608452Y-68369819D02*
X106703690Y-68322200D01*
X106703690Y-68322200D02*
X106751309Y-68274580D01*
X106751309Y-68274580D02*
X106798928Y-68179342D01*
X106798928Y-68179342D02*
X106798928Y-67893628D01*
X106798928Y-67893628D02*
X106751309Y-67798390D01*
X106751309Y-67798390D02*
X106703690Y-67750771D01*
X106703690Y-67750771D02*
X106608452Y-67703152D01*
X106608452Y-67703152D02*
X106417976Y-67703152D01*
X106417976Y-67703152D02*
X106322738Y-67750771D01*
X105894166Y-68369819D02*
X105894166Y-67369819D01*
X105465595Y-68369819D02*
X105465595Y-67846009D01*
X105465595Y-67846009D02*
X105513214Y-67750771D01*
X105513214Y-67750771D02*
X105608452Y-67703152D01*
X105608452Y-67703152D02*
X105751309Y-67703152D01*
X105751309Y-67703152D02*
X105846547Y-67750771D01*
X105846547Y-67750771D02*
X105894166Y-67798390D01*
X104560833Y-68369819D02*
X104560833Y-67846009D01*
X104560833Y-67846009D02*
X104608452Y-67750771D01*
X104608452Y-67750771D02*
X104703690Y-67703152D01*
X104703690Y-67703152D02*
X104894166Y-67703152D01*
X104894166Y-67703152D02*
X104989404Y-67750771D01*
X104560833Y-68322200D02*
X104656071Y-68369819D01*
X104656071Y-68369819D02*
X104894166Y-68369819D01*
X104894166Y-68369819D02*
X104989404Y-68322200D01*
X104989404Y-68322200D02*
X105037023Y-68226961D01*
X105037023Y-68226961D02*
X105037023Y-68131723D01*
X105037023Y-68131723D02*
X104989404Y-68036485D01*
X104989404Y-68036485D02*
X104894166Y-67988866D01*
X104894166Y-67988866D02*
X104656071Y-67988866D01*
X104656071Y-67988866D02*
X104560833Y-67941247D01*
X104084642Y-67703152D02*
X104084642Y-68369819D01*
X104084642Y-67798390D02*
X104037023Y-67750771D01*
X104037023Y-67750771D02*
X103941785Y-67703152D01*
X103941785Y-67703152D02*
X103798928Y-67703152D01*
X103798928Y-67703152D02*
X103703690Y-67750771D01*
X103703690Y-67750771D02*
X103656071Y-67846009D01*
X103656071Y-67846009D02*
X103656071Y-68369819D01*
X102751309Y-67703152D02*
X102751309Y-68512676D01*
X102751309Y-68512676D02*
X102798928Y-68607914D01*
X102798928Y-68607914D02*
X102846547Y-68655533D01*
X102846547Y-68655533D02*
X102941785Y-68703152D01*
X102941785Y-68703152D02*
X103084642Y-68703152D01*
X103084642Y-68703152D02*
X103179880Y-68655533D01*
X102751309Y-68322200D02*
X102846547Y-68369819D01*
X102846547Y-68369819D02*
X103037023Y-68369819D01*
X103037023Y-68369819D02*
X103132261Y-68322200D01*
X103132261Y-68322200D02*
X103179880Y-68274580D01*
X103179880Y-68274580D02*
X103227499Y-68179342D01*
X103227499Y-68179342D02*
X103227499Y-67893628D01*
X103227499Y-67893628D02*
X103179880Y-67798390D01*
X103179880Y-67798390D02*
X103132261Y-67750771D01*
X103132261Y-67750771D02*
X103037023Y-67703152D01*
X103037023Y-67703152D02*
X102846547Y-67703152D01*
X102846547Y-67703152D02*
X102751309Y-67750771D01*
X101894166Y-68322200D02*
X101989404Y-68369819D01*
X101989404Y-68369819D02*
X102179880Y-68369819D01*
X102179880Y-68369819D02*
X102275118Y-68322200D01*
X102275118Y-68322200D02*
X102322737Y-68226961D01*
X102322737Y-68226961D02*
X102322737Y-67846009D01*
X102322737Y-67846009D02*
X102275118Y-67750771D01*
X102275118Y-67750771D02*
X102179880Y-67703152D01*
X102179880Y-67703152D02*
X101989404Y-67703152D01*
X101989404Y-67703152D02*
X101894166Y-67750771D01*
X101894166Y-67750771D02*
X101846547Y-67846009D01*
X101846547Y-67846009D02*
X101846547Y-67941247D01*
X101846547Y-67941247D02*
X102322737Y-68036485D01*
X100703689Y-68322200D02*
X100608451Y-68369819D01*
X100608451Y-68369819D02*
X100417975Y-68369819D01*
X100417975Y-68369819D02*
X100322737Y-68322200D01*
X100322737Y-68322200D02*
X100275118Y-68226961D01*
X100275118Y-68226961D02*
X100275118Y-68179342D01*
X100275118Y-68179342D02*
X100322737Y-68084104D01*
X100322737Y-68084104D02*
X100417975Y-68036485D01*
X100417975Y-68036485D02*
X100560832Y-68036485D01*
X100560832Y-68036485D02*
X100656070Y-67988866D01*
X100656070Y-67988866D02*
X100703689Y-67893628D01*
X100703689Y-67893628D02*
X100703689Y-67846009D01*
X100703689Y-67846009D02*
X100656070Y-67750771D01*
X100656070Y-67750771D02*
X100560832Y-67703152D01*
X100560832Y-67703152D02*
X100417975Y-67703152D01*
X100417975Y-67703152D02*
X100322737Y-67750771D01*
X99465594Y-68322200D02*
X99560832Y-68369819D01*
X99560832Y-68369819D02*
X99751308Y-68369819D01*
X99751308Y-68369819D02*
X99846546Y-68322200D01*
X99846546Y-68322200D02*
X99894165Y-68226961D01*
X99894165Y-68226961D02*
X99894165Y-67846009D01*
X99894165Y-67846009D02*
X99846546Y-67750771D01*
X99846546Y-67750771D02*
X99751308Y-67703152D01*
X99751308Y-67703152D02*
X99560832Y-67703152D01*
X99560832Y-67703152D02*
X99465594Y-67750771D01*
X99465594Y-67750771D02*
X99417975Y-67846009D01*
X99417975Y-67846009D02*
X99417975Y-67941247D01*
X99417975Y-67941247D02*
X99894165Y-68036485D01*
X98846546Y-68369819D02*
X98941784Y-68322200D01*
X98941784Y-68322200D02*
X98989403Y-68226961D01*
X98989403Y-68226961D02*
X98989403Y-67369819D01*
X98084641Y-68322200D02*
X98179879Y-68369819D01*
X98179879Y-68369819D02*
X98370355Y-68369819D01*
X98370355Y-68369819D02*
X98465593Y-68322200D01*
X98465593Y-68322200D02*
X98513212Y-68226961D01*
X98513212Y-68226961D02*
X98513212Y-67846009D01*
X98513212Y-67846009D02*
X98465593Y-67750771D01*
X98465593Y-67750771D02*
X98370355Y-67703152D01*
X98370355Y-67703152D02*
X98179879Y-67703152D01*
X98179879Y-67703152D02*
X98084641Y-67750771D01*
X98084641Y-67750771D02*
X98037022Y-67846009D01*
X98037022Y-67846009D02*
X98037022Y-67941247D01*
X98037022Y-67941247D02*
X98513212Y-68036485D01*
X97179879Y-68322200D02*
X97275117Y-68369819D01*
X97275117Y-68369819D02*
X97465593Y-68369819D01*
X97465593Y-68369819D02*
X97560831Y-68322200D01*
X97560831Y-68322200D02*
X97608450Y-68274580D01*
X97608450Y-68274580D02*
X97656069Y-68179342D01*
X97656069Y-68179342D02*
X97656069Y-67893628D01*
X97656069Y-67893628D02*
X97608450Y-67798390D01*
X97608450Y-67798390D02*
X97560831Y-67750771D01*
X97560831Y-67750771D02*
X97465593Y-67703152D01*
X97465593Y-67703152D02*
X97275117Y-67703152D01*
X97275117Y-67703152D02*
X97179879Y-67750771D01*
X96894164Y-67703152D02*
X96513212Y-67703152D01*
X96751307Y-67369819D02*
X96751307Y-68226961D01*
X96751307Y-68226961D02*
X96703688Y-68322200D01*
X96703688Y-68322200D02*
X96608450Y-68369819D01*
X96608450Y-68369819D02*
X96513212Y-68369819D01*
X96179878Y-68369819D02*
X96179878Y-67703152D01*
X96179878Y-67369819D02*
X96227497Y-67417438D01*
X96227497Y-67417438D02*
X96179878Y-67465057D01*
X96179878Y-67465057D02*
X96132259Y-67417438D01*
X96132259Y-67417438D02*
X96179878Y-67369819D01*
X96179878Y-67369819D02*
X96179878Y-67465057D01*
X95560831Y-68369819D02*
X95656069Y-68322200D01*
X95656069Y-68322200D02*
X95703688Y-68274580D01*
X95703688Y-68274580D02*
X95751307Y-68179342D01*
X95751307Y-68179342D02*
X95751307Y-67893628D01*
X95751307Y-67893628D02*
X95703688Y-67798390D01*
X95703688Y-67798390D02*
X95656069Y-67750771D01*
X95656069Y-67750771D02*
X95560831Y-67703152D01*
X95560831Y-67703152D02*
X95417974Y-67703152D01*
X95417974Y-67703152D02*
X95322736Y-67750771D01*
X95322736Y-67750771D02*
X95275117Y-67798390D01*
X95275117Y-67798390D02*
X95227498Y-67893628D01*
X95227498Y-67893628D02*
X95227498Y-68179342D01*
X95227498Y-68179342D02*
X95275117Y-68274580D01*
X95275117Y-68274580D02*
X95322736Y-68322200D01*
X95322736Y-68322200D02*
X95417974Y-68369819D01*
X95417974Y-68369819D02*
X95560831Y-68369819D01*
X94798926Y-67703152D02*
X94798926Y-68369819D01*
X94798926Y-67798390D02*
X94751307Y-67750771D01*
X94751307Y-67750771D02*
X94656069Y-67703152D01*
X94656069Y-67703152D02*
X94513212Y-67703152D01*
X94513212Y-67703152D02*
X94417974Y-67750771D01*
X94417974Y-67750771D02*
X94370355Y-67846009D01*
X94370355Y-67846009D02*
X94370355Y-68369819D01*
X94539411Y-90617438D02*
X94634649Y-90569819D01*
X94634649Y-90569819D02*
X94777506Y-90569819D01*
X94777506Y-90569819D02*
X94920363Y-90617438D01*
X94920363Y-90617438D02*
X95015601Y-90712676D01*
X95015601Y-90712676D02*
X95063220Y-90807914D01*
X95063220Y-90807914D02*
X95110839Y-90998390D01*
X95110839Y-90998390D02*
X95110839Y-91141247D01*
X95110839Y-91141247D02*
X95063220Y-91331723D01*
X95063220Y-91331723D02*
X95015601Y-91426961D01*
X95015601Y-91426961D02*
X94920363Y-91522200D01*
X94920363Y-91522200D02*
X94777506Y-91569819D01*
X94777506Y-91569819D02*
X94682268Y-91569819D01*
X94682268Y-91569819D02*
X94539411Y-91522200D01*
X94539411Y-91522200D02*
X94491792Y-91474580D01*
X94491792Y-91474580D02*
X94491792Y-91141247D01*
X94491792Y-91141247D02*
X94682268Y-91141247D01*
X94063220Y-90903152D02*
X94063220Y-91569819D01*
X94063220Y-90998390D02*
X94015601Y-90950771D01*
X94015601Y-90950771D02*
X93920363Y-90903152D01*
X93920363Y-90903152D02*
X93777506Y-90903152D01*
X93777506Y-90903152D02*
X93682268Y-90950771D01*
X93682268Y-90950771D02*
X93634649Y-91046009D01*
X93634649Y-91046009D02*
X93634649Y-91569819D01*
X92729887Y-91569819D02*
X92729887Y-90569819D01*
X92729887Y-91522200D02*
X92825125Y-91569819D01*
X92825125Y-91569819D02*
X93015601Y-91569819D01*
X93015601Y-91569819D02*
X93110839Y-91522200D01*
X93110839Y-91522200D02*
X93158458Y-91474580D01*
X93158458Y-91474580D02*
X93206077Y-91379342D01*
X93206077Y-91379342D02*
X93206077Y-91093628D01*
X93206077Y-91093628D02*
X93158458Y-90998390D01*
X93158458Y-90998390D02*
X93110839Y-90950771D01*
X93110839Y-90950771D02*
X93015601Y-90903152D01*
X93015601Y-90903152D02*
X92825125Y-90903152D01*
X92825125Y-90903152D02*
X92729887Y-90950771D01*
X95258458Y-88019819D02*
X94639411Y-88019819D01*
X94639411Y-88019819D02*
X94972744Y-88400771D01*
X94972744Y-88400771D02*
X94829887Y-88400771D01*
X94829887Y-88400771D02*
X94734649Y-88448390D01*
X94734649Y-88448390D02*
X94687030Y-88496009D01*
X94687030Y-88496009D02*
X94639411Y-88591247D01*
X94639411Y-88591247D02*
X94639411Y-88829342D01*
X94639411Y-88829342D02*
X94687030Y-88924580D01*
X94687030Y-88924580D02*
X94734649Y-88972200D01*
X94734649Y-88972200D02*
X94829887Y-89019819D01*
X94829887Y-89019819D02*
X95115601Y-89019819D01*
X95115601Y-89019819D02*
X95210839Y-88972200D01*
X95210839Y-88972200D02*
X95258458Y-88924580D01*
X94306077Y-88353152D02*
X94067982Y-89019819D01*
X94067982Y-89019819D02*
X93829887Y-88353152D01*
X93544172Y-88019819D02*
X92925125Y-88019819D01*
X92925125Y-88019819D02*
X93258458Y-88400771D01*
X93258458Y-88400771D02*
X93115601Y-88400771D01*
X93115601Y-88400771D02*
X93020363Y-88448390D01*
X93020363Y-88448390D02*
X92972744Y-88496009D01*
X92972744Y-88496009D02*
X92925125Y-88591247D01*
X92925125Y-88591247D02*
X92925125Y-88829342D01*
X92925125Y-88829342D02*
X92972744Y-88924580D01*
X92972744Y-88924580D02*
X93020363Y-88972200D01*
X93020363Y-88972200D02*
X93115601Y-89019819D01*
X93115601Y-89019819D02*
X93401315Y-89019819D01*
X93401315Y-89019819D02*
X93496553Y-88972200D01*
X93496553Y-88972200D02*
X93544172Y-88924580D01*
X119669819Y-88841541D02*
X119669819Y-89460588D01*
X119669819Y-89460588D02*
X120050771Y-89127255D01*
X120050771Y-89127255D02*
X120050771Y-89270112D01*
X120050771Y-89270112D02*
X120098390Y-89365350D01*
X120098390Y-89365350D02*
X120146009Y-89412969D01*
X120146009Y-89412969D02*
X120241247Y-89460588D01*
X120241247Y-89460588D02*
X120479342Y-89460588D01*
X120479342Y-89460588D02*
X120574580Y-89412969D01*
X120574580Y-89412969D02*
X120622200Y-89365350D01*
X120622200Y-89365350D02*
X120669819Y-89270112D01*
X120669819Y-89270112D02*
X120669819Y-88984398D01*
X120669819Y-88984398D02*
X120622200Y-88889160D01*
X120622200Y-88889160D02*
X120574580Y-88841541D01*
X120003152Y-89793922D02*
X120669819Y-90032017D01*
X120669819Y-90032017D02*
X120003152Y-90270112D01*
X119669819Y-90555827D02*
X119669819Y-91174874D01*
X119669819Y-91174874D02*
X120050771Y-90841541D01*
X120050771Y-90841541D02*
X120050771Y-90984398D01*
X120050771Y-90984398D02*
X120098390Y-91079636D01*
X120098390Y-91079636D02*
X120146009Y-91127255D01*
X120146009Y-91127255D02*
X120241247Y-91174874D01*
X120241247Y-91174874D02*
X120479342Y-91174874D01*
X120479342Y-91174874D02*
X120574580Y-91127255D01*
X120574580Y-91127255D02*
X120622200Y-91079636D01*
X120622200Y-91079636D02*
X120669819Y-90984398D01*
X120669819Y-90984398D02*
X120669819Y-90698684D01*
X120669819Y-90698684D02*
X120622200Y-90603446D01*
X120622200Y-90603446D02*
X120574580Y-90555827D01*
X95844819Y-89446666D02*
X96559104Y-89446666D01*
X96559104Y-89446666D02*
X96701961Y-89399047D01*
X96701961Y-89399047D02*
X96797200Y-89303809D01*
X96797200Y-89303809D02*
X96844819Y-89160952D01*
X96844819Y-89160952D02*
X96844819Y-89065714D01*
X95940057Y-89875238D02*
X95892438Y-89922857D01*
X95892438Y-89922857D02*
X95844819Y-90018095D01*
X95844819Y-90018095D02*
X95844819Y-90256190D01*
X95844819Y-90256190D02*
X95892438Y-90351428D01*
X95892438Y-90351428D02*
X95940057Y-90399047D01*
X95940057Y-90399047D02*
X96035295Y-90446666D01*
X96035295Y-90446666D02*
X96130533Y-90446666D01*
X96130533Y-90446666D02*
X96273390Y-90399047D01*
X96273390Y-90399047D02*
X96844819Y-89827619D01*
X96844819Y-89827619D02*
X96844819Y-90446666D01*
D12*
G36*
X83561900Y-44482700D02*
G01*
X83835600Y-44484900D01*
X83923000Y-44503000D01*
X84010500Y-44521000D01*
X84091400Y-44563400D01*
X84172300Y-44605600D01*
X84235400Y-44621300D01*
X84298500Y-44637000D01*
X84351200Y-44688000D01*
X84403800Y-44739000D01*
X84519600Y-44801000D01*
X84635300Y-44863000D01*
X84751000Y-44955000D01*
X84866800Y-45047100D01*
X84945600Y-45146400D01*
X85024500Y-45245800D01*
X85149600Y-45406400D01*
X85274800Y-45567000D01*
X85422300Y-45715500D01*
X85569800Y-45864000D01*
X85690800Y-46017400D01*
X85811800Y-46170800D01*
X85826900Y-46170800D01*
X85842000Y-46170800D01*
X85979700Y-46354800D01*
X86117400Y-46538900D01*
X86210700Y-46624400D01*
X86303800Y-46710000D01*
X86381400Y-46819200D01*
X86459000Y-46928300D01*
X86549700Y-47016200D01*
X86640500Y-47104000D01*
X86846100Y-47345500D01*
X87051800Y-47587000D01*
X87127300Y-47612800D01*
X87202900Y-47638600D01*
X87270300Y-47640300D01*
X87337600Y-47641900D01*
X87448200Y-47666700D01*
X87558800Y-47691400D01*
X87619800Y-47755100D01*
X87680900Y-47818800D01*
X87672000Y-48412800D01*
X87663000Y-49006700D01*
X87632900Y-49026600D01*
X87602800Y-49046500D01*
X87539700Y-49046500D01*
X87476500Y-49046500D01*
X87447600Y-49027400D01*
X87418600Y-49008200D01*
X87421100Y-48594100D01*
X87423600Y-48179900D01*
X87410500Y-48084200D01*
X87397400Y-47988600D01*
X87327200Y-47958000D01*
X87256900Y-47927400D01*
X87155700Y-47927400D01*
X87054400Y-47927400D01*
X86970800Y-47856000D01*
X86887300Y-47784700D01*
X86776800Y-47668000D01*
X86666400Y-47551300D01*
X86605700Y-47459200D01*
X86545000Y-47367200D01*
X86415700Y-47235600D01*
X86286500Y-47104000D01*
X86197500Y-46983200D01*
X86108500Y-46862500D01*
X86066400Y-46831100D01*
X86024300Y-46799700D01*
X85929600Y-46697500D01*
X85834900Y-46595400D01*
X85613900Y-46326200D01*
X85393000Y-46057100D01*
X85252400Y-45905000D01*
X85111900Y-45752900D01*
X85038600Y-45648700D01*
X84965300Y-45544600D01*
X84847700Y-45435000D01*
X84730100Y-45325500D01*
X84577500Y-45172100D01*
X84424900Y-45018800D01*
X84218900Y-44914100D01*
X84013000Y-44809500D01*
X83974900Y-44809500D01*
X83936800Y-44809500D01*
X83814500Y-44765600D01*
X83692100Y-44721600D01*
X83542800Y-44721800D01*
X83393600Y-44722000D01*
X83214700Y-44766300D01*
X83035800Y-44810600D01*
X82924700Y-44864900D01*
X82813600Y-44919300D01*
X82785200Y-44919300D01*
X82756800Y-44919300D01*
X82731300Y-44951400D01*
X82705800Y-44983400D01*
X82660300Y-44997700D01*
X82614900Y-45012000D01*
X82295600Y-45173400D01*
X81976400Y-45334700D01*
X81917700Y-45350100D01*
X81859000Y-45365500D01*
X81689700Y-45446900D01*
X81520500Y-45528300D01*
X81415200Y-45552500D01*
X81310000Y-45576600D01*
X81206500Y-45632200D01*
X81102900Y-45687800D01*
X81042500Y-45687800D01*
X80982100Y-45687800D01*
X80898100Y-45732500D01*
X80814100Y-45777200D01*
X80725300Y-45796900D01*
X80636500Y-45816600D01*
X80510300Y-45849400D01*
X80384000Y-45882200D01*
X80236600Y-45918800D01*
X80089300Y-45955400D01*
X79847300Y-46008000D01*
X79605300Y-46060600D01*
X79531600Y-46056900D01*
X79457900Y-46053300D01*
X79412000Y-46079100D01*
X79366000Y-46105000D01*
X77611800Y-46105000D01*
X75857700Y-46105000D01*
X75742600Y-46070600D01*
X75627500Y-46036300D01*
X75406600Y-45981100D01*
X75185600Y-45925800D01*
X75017200Y-45886500D01*
X74848800Y-45847100D01*
X74743600Y-45819800D01*
X74638400Y-45792400D01*
X74522600Y-45749100D01*
X74406900Y-45705900D01*
X74301600Y-45677800D01*
X74196400Y-45649700D01*
X74112200Y-45604700D01*
X74028000Y-45559700D01*
X73935200Y-45544400D01*
X73842300Y-45529000D01*
X73651000Y-45435600D01*
X73459800Y-45342100D01*
X73396600Y-45326600D01*
X73333500Y-45311100D01*
X73301900Y-45283500D01*
X73270400Y-45255900D01*
X73196700Y-45226900D01*
X73123000Y-45197900D01*
X72954700Y-45112200D01*
X72786300Y-45026400D01*
X72681100Y-44975600D01*
X72575800Y-44924700D01*
X72470600Y-44875400D01*
X72365400Y-44826000D01*
X72186500Y-44774100D01*
X72007600Y-44722200D01*
X71846300Y-44721900D01*
X71685100Y-44721600D01*
X71551700Y-44765300D01*
X71418300Y-44808900D01*
X71387400Y-44809200D01*
X71356600Y-44809500D01*
X71145400Y-44918700D01*
X70934200Y-45027900D01*
X70650100Y-45321900D01*
X70366000Y-45615800D01*
X70195300Y-45811000D01*
X70024700Y-46006100D01*
X69827000Y-46244000D01*
X69629400Y-46481900D01*
X69567200Y-46562400D01*
X69505000Y-46642900D01*
X69372300Y-46763700D01*
X69239600Y-46884400D01*
X69208600Y-46942900D01*
X69177600Y-47001400D01*
X69007700Y-47184500D01*
X68837900Y-47367500D01*
X68767000Y-47466300D01*
X68696100Y-47565100D01*
X68596900Y-47663900D01*
X68497700Y-47762700D01*
X68443200Y-47823100D01*
X68388800Y-47883500D01*
X68361900Y-47883500D01*
X68335000Y-47883500D01*
X68335000Y-47905400D01*
X68335000Y-47927400D01*
X68232400Y-47927400D01*
X68129800Y-47927400D01*
X68066500Y-47940600D01*
X68003100Y-47953800D01*
X67979600Y-48007500D01*
X67956200Y-48061200D01*
X67956200Y-48527800D01*
X67956200Y-48994500D01*
X67930900Y-49020800D01*
X67905700Y-49047200D01*
X67845400Y-49047200D01*
X67785100Y-49047200D01*
X67745500Y-49025100D01*
X67705900Y-49003000D01*
X67704300Y-48390100D01*
X67702800Y-47777300D01*
X67761100Y-47734900D01*
X67819400Y-47692500D01*
X67918200Y-47667200D01*
X68016900Y-47641900D01*
X68118100Y-47641900D01*
X68219300Y-47641800D01*
X68282400Y-47601500D01*
X68345500Y-47561200D01*
X68513900Y-47367300D01*
X68682300Y-47173500D01*
X68846900Y-46985000D01*
X69011500Y-46796600D01*
X69199000Y-46588000D01*
X69386600Y-46379400D01*
X69455300Y-46287000D01*
X69524100Y-46194600D01*
X69762700Y-45919200D01*
X70001300Y-45643800D01*
X70016600Y-45643800D01*
X70031800Y-45643800D01*
X70072600Y-45602400D01*
X70113400Y-45561000D01*
X70187100Y-45458400D01*
X70260700Y-45355800D01*
X70405800Y-45181400D01*
X70550800Y-45007000D01*
X70732000Y-44882000D01*
X70913200Y-44757000D01*
X70986800Y-44708000D01*
X71060500Y-44659000D01*
X71134200Y-44625200D01*
X71207800Y-44591500D01*
X71344600Y-44538500D01*
X71481400Y-44485500D01*
X71803600Y-44483400D01*
X72125800Y-44481400D01*
X72287700Y-44523300D01*
X72449500Y-44565200D01*
X72579700Y-44621700D01*
X72709800Y-44678300D01*
X72862000Y-44768300D01*
X73014200Y-44858200D01*
X73130400Y-44900000D01*
X73246700Y-44941700D01*
X73353200Y-45003700D01*
X73459800Y-45065800D01*
X73575500Y-45107500D01*
X73691300Y-45149200D01*
X73796500Y-45212700D01*
X73901700Y-45276200D01*
X74143800Y-45351800D01*
X74385800Y-45427400D01*
X74512100Y-45460400D01*
X74638400Y-45493400D01*
X74743600Y-45555400D01*
X74848800Y-45617400D01*
X74985600Y-45633000D01*
X75122400Y-45648700D01*
X75196100Y-45680400D01*
X75269700Y-45712100D01*
X75438100Y-45735100D01*
X75606500Y-45758000D01*
X75700400Y-45800600D01*
X75794300Y-45843100D01*
X77532800Y-45844400D01*
X79271400Y-45845600D01*
X79396200Y-45830500D01*
X79521100Y-45815400D01*
X79794700Y-45763300D01*
X80068300Y-45711300D01*
X80184000Y-45679800D01*
X80299800Y-45648400D01*
X80415500Y-45632900D01*
X80531300Y-45617400D01*
X80636500Y-45556900D01*
X80741700Y-45496500D01*
X81089000Y-45393500D01*
X81436300Y-45290400D01*
X81617600Y-45192700D01*
X81798900Y-45094900D01*
X81838600Y-45094800D01*
X81878200Y-45094600D01*
X81941400Y-45049900D01*
X82004500Y-45005200D01*
X82078200Y-44971100D01*
X82151900Y-44936900D01*
X82261500Y-44896600D01*
X82371100Y-44856400D01*
X82514100Y-44769300D01*
X82657100Y-44682200D01*
X82851300Y-44602000D01*
X83045600Y-44521800D01*
X83167000Y-44501100D01*
X83288300Y-44480400D01*
X83561900Y-44482700D01*
G37*
G36*
X67930200Y-55218900D02*
G01*
X67966700Y-55242700D01*
X67960200Y-55518600D01*
X67953700Y-55794500D01*
X67978700Y-55857400D01*
X68003600Y-55920300D01*
X68048300Y-55929600D01*
X68093000Y-55939000D01*
X68259400Y-55952600D01*
X68425900Y-55966100D01*
X68483800Y-55997400D01*
X68541800Y-56028600D01*
X68585200Y-56086200D01*
X68628600Y-56143700D01*
X68641600Y-56216500D01*
X68654700Y-56289200D01*
X68639700Y-56338400D01*
X68624800Y-56387600D01*
X68526800Y-56488500D01*
X68428900Y-56589400D01*
X68318800Y-56727800D01*
X68208800Y-56866100D01*
X68208800Y-56900800D01*
X68208800Y-56935500D01*
X68250600Y-57004000D01*
X68292500Y-57072500D01*
X68442400Y-57215200D01*
X68592200Y-57357900D01*
X68710900Y-57486200D01*
X68829600Y-57614500D01*
X69108200Y-57903400D01*
X69386900Y-58192300D01*
X69423900Y-58230100D01*
X69461000Y-58268000D01*
X69892400Y-58725000D01*
X70323900Y-59182000D01*
X70392800Y-59263500D01*
X70461700Y-59345000D01*
X70498000Y-59347500D01*
X70534400Y-59350100D01*
X70576400Y-59345600D01*
X70618500Y-59341200D01*
X70678100Y-59282700D01*
X70737700Y-59224300D01*
X70771200Y-59165500D01*
X70804600Y-59106800D01*
X70889800Y-59066700D01*
X70974900Y-59026600D01*
X77699900Y-59026600D01*
X84424900Y-59026600D01*
X84492200Y-59065100D01*
X84559700Y-59103500D01*
X84626200Y-59204500D01*
X84692800Y-59305500D01*
X84761400Y-59335400D01*
X84829900Y-59365300D01*
X84895700Y-59339300D01*
X84961500Y-59313400D01*
X84961500Y-59289800D01*
X84961500Y-59266200D01*
X85101200Y-59124500D01*
X85240900Y-58982700D01*
X85327500Y-58886900D01*
X85414000Y-58791000D01*
X85540300Y-58663200D01*
X85666600Y-58535400D01*
X85683600Y-58517500D01*
X85700700Y-58499700D01*
X85885000Y-58302100D01*
X86069200Y-58104400D01*
X86152000Y-58025000D01*
X86234800Y-57945500D01*
X86530100Y-57629700D01*
X86825400Y-57314000D01*
X86988000Y-57152500D01*
X87150700Y-56990900D01*
X87163400Y-56938100D01*
X87176000Y-56885400D01*
X87116700Y-56803300D01*
X87057300Y-56721200D01*
X86909700Y-56561500D01*
X86761900Y-56401800D01*
X86735900Y-56352900D01*
X86709800Y-56304000D01*
X86709100Y-56268900D01*
X86708400Y-56233900D01*
X86739100Y-56169500D01*
X86769900Y-56105200D01*
X86832200Y-56042900D01*
X86894600Y-55980500D01*
X86996100Y-55960400D01*
X87097700Y-55940300D01*
X87171400Y-55952300D01*
X87245000Y-55964200D01*
X87308200Y-55946000D01*
X87371300Y-55927800D01*
X87397500Y-55852400D01*
X87423700Y-55777000D01*
X87418500Y-55507200D01*
X87413400Y-55237500D01*
X87445000Y-55216600D01*
X87476500Y-55195800D01*
X87540900Y-55195500D01*
X87605300Y-55195100D01*
X87641600Y-55222900D01*
X87678000Y-55250600D01*
X87670100Y-55634500D01*
X87662300Y-56018500D01*
X87628000Y-56087200D01*
X87593900Y-56155900D01*
X87556200Y-56174300D01*
X87518600Y-56192700D01*
X87276600Y-56204400D01*
X87034600Y-56216100D01*
X87041300Y-56282000D01*
X87048000Y-56347900D01*
X87072900Y-56356800D01*
X87097700Y-56365600D01*
X87178900Y-56455600D01*
X87260200Y-56545500D01*
X87273600Y-56561000D01*
X87287100Y-56576400D01*
X87379800Y-56659800D01*
X87472500Y-56743100D01*
X87501200Y-56814800D01*
X87530000Y-56886400D01*
X87497200Y-56952500D01*
X87464400Y-57018600D01*
X87365300Y-57133000D01*
X87266100Y-57247500D01*
X87184400Y-57324600D01*
X87102700Y-57401800D01*
X86507500Y-58027600D01*
X85912400Y-58653400D01*
X85879600Y-58686300D01*
X85846800Y-58719200D01*
X85409400Y-59170500D01*
X84972000Y-59621800D01*
X84912000Y-59661100D01*
X84851900Y-59700400D01*
X84784100Y-59687100D01*
X84716300Y-59673800D01*
X84611300Y-59580300D01*
X84506200Y-59486700D01*
X84423400Y-59402500D01*
X84340700Y-59318200D01*
X84291900Y-59298700D01*
X84243200Y-59279100D01*
X77651800Y-59279300D01*
X71060500Y-59279500D01*
X70898300Y-59452000D01*
X70736000Y-59624600D01*
X70660500Y-59662000D01*
X70585000Y-59699400D01*
X70518800Y-59684200D01*
X70452600Y-59669000D01*
X70168500Y-59380800D01*
X69884400Y-59092500D01*
X69799000Y-58996700D01*
X69713500Y-58900900D01*
X69631800Y-58821000D01*
X69550100Y-58741200D01*
X69466400Y-58653400D01*
X69382800Y-58565500D01*
X69343000Y-58520900D01*
X69303100Y-58476200D01*
X69303100Y-58452100D01*
X69303100Y-58428100D01*
X69243000Y-58402200D01*
X69182900Y-58376200D01*
X68981700Y-58152500D01*
X68780400Y-57928800D01*
X68579000Y-57714700D01*
X68377600Y-57500600D01*
X68356300Y-57500600D01*
X68335000Y-57500600D01*
X68335000Y-57467700D01*
X68335000Y-57434700D01*
X68318300Y-57434700D01*
X68301500Y-57434700D01*
X68158400Y-57286500D01*
X68015200Y-57138300D01*
X67967100Y-57083400D01*
X67919000Y-57028600D01*
X67884000Y-56970500D01*
X67849000Y-56912400D01*
X67864100Y-56849800D01*
X67879200Y-56787100D01*
X67975600Y-56682900D01*
X68072000Y-56578700D01*
X68093000Y-56577700D01*
X68114000Y-56576700D01*
X68156400Y-56506500D01*
X68198700Y-56436300D01*
X68266800Y-56392100D01*
X68334800Y-56347900D01*
X68329700Y-56282000D01*
X68324500Y-56216100D01*
X68075400Y-56205200D01*
X67826400Y-56194200D01*
X67765000Y-56122500D01*
X67703600Y-56050800D01*
X67703600Y-55679600D01*
X67703600Y-55308500D01*
X67692300Y-55277700D01*
X67681000Y-55246900D01*
X67735400Y-55221000D01*
X67789800Y-55195100D01*
X67841700Y-55195100D01*
X67893600Y-55195100D01*
X67930200Y-55218900D01*
G37*
D13*
X105130000Y-87180000D02*
X105130000Y-92380000D01*
X99990000Y-87180000D02*
X105130000Y-87180000D01*
X99990000Y-87180000D02*
X99990000Y-89780000D01*
X98720000Y-87180000D02*
X97390000Y-87180000D01*
X97390000Y-87180000D02*
X97390000Y-88510000D01*
X99990000Y-89780000D02*
X97390000Y-89780000D01*
X97390000Y-89780000D02*
X97390000Y-92380000D01*
X97390000Y-92380000D02*
X105130000Y-92380000D01*
%LPC*%
D14*
X115060000Y-93050000D03*
D15*
X117600000Y-93050000D03*
D16*
X88824900Y-51996000D03*
X66575100Y-51996000D03*
D17*
X77700000Y-52250000D03*
D14*
X120150000Y-93050000D03*
D15*
X122690000Y-93050000D03*
X125230000Y-93050000D03*
D14*
X98720000Y-88510000D03*
D15*
X98720000Y-91050000D03*
X101260000Y-88510000D03*
X101260000Y-91050000D03*
X103800000Y-88510000D03*
X103800000Y-91050000D03*
%LPD*%
M02*
