G04 #@! TF.GenerationSoftware,KiCad,Pcbnew,7.0.2*
G04 #@! TF.CreationDate,2024-03-21T22:15:59-07:00*
G04 #@! TF.ProjectId,fuck-sao,6675636b-2d73-4616-9f2e-6b696361645f,rev?*
G04 #@! TF.SameCoordinates,Original*
G04 #@! TF.FileFunction,Soldermask,Top*
G04 #@! TF.FilePolarity,Negative*
%FSLAX46Y46*%
G04 Gerber Fmt 4.6, Leading zero omitted, Abs format (unit mm)*
G04 Created by KiCad (PCBNEW 7.0.2) date 2024-03-21 22:15:59*
%MOMM*%
%LPD*%
G01*
G04 APERTURE LIST*
G04 Aperture macros list*
%AMRoundRect*
0 Rectangle with rounded corners*
0 $1 Rounding radius*
0 $2 $3 $4 $5 $6 $7 $8 $9 X,Y pos of 4 corners*
0 Add a 4 corners polygon primitive as box body*
4,1,4,$2,$3,$4,$5,$6,$7,$8,$9,$2,$3,0*
0 Add four circle primitives for the rounded corners*
1,1,$1+$1,$2,$3*
1,1,$1+$1,$4,$5*
1,1,$1+$1,$6,$7*
1,1,$1+$1,$8,$9*
0 Add four rect primitives between the rounded corners*
20,1,$1+$1,$2,$3,$4,$5,0*
20,1,$1+$1,$4,$5,$6,$7,0*
20,1,$1+$1,$6,$7,$8,$9,0*
20,1,$1+$1,$8,$9,$2,$3,0*%
%AMFreePoly0*
4,1,14,0.334644,0.085355,0.385355,0.034644,0.400000,-0.000711,0.400000,-0.050000,0.385355,-0.085355,0.350000,-0.100000,-0.350000,-0.100000,-0.385355,-0.085355,-0.400000,-0.050000,-0.400000,0.050000,-0.385355,0.085355,-0.350000,0.100000,0.299289,0.100000,0.334644,0.085355,0.334644,0.085355,$1*%
%AMFreePoly1*
4,1,14,0.385355,0.085355,0.400000,0.050000,0.400000,0.000711,0.385355,-0.034644,0.334644,-0.085355,0.299289,-0.100000,-0.350000,-0.100000,-0.385355,-0.085355,-0.400000,-0.050000,-0.400000,0.050000,-0.385355,0.085355,-0.350000,0.100000,0.350000,0.100000,0.385355,0.085355,0.385355,0.085355,$1*%
%AMFreePoly2*
4,1,14,0.085355,0.385355,0.100000,0.350000,0.100000,-0.350000,0.085355,-0.385355,0.050000,-0.400000,-0.050000,-0.400000,-0.085355,-0.385355,-0.100000,-0.350000,-0.100000,0.299289,-0.085355,0.334644,-0.034644,0.385355,0.000711,0.400000,0.050000,0.400000,0.085355,0.385355,0.085355,0.385355,$1*%
%AMFreePoly3*
4,1,14,0.034644,0.385355,0.085355,0.334644,0.100000,0.299289,0.100000,-0.350000,0.085355,-0.385355,0.050000,-0.400000,-0.050000,-0.400000,-0.085355,-0.385355,-0.100000,-0.350000,-0.100000,0.350000,-0.085355,0.385355,-0.050000,0.400000,-0.000711,0.400000,0.034644,0.385355,0.034644,0.385355,$1*%
%AMFreePoly4*
4,1,14,0.385355,0.085355,0.400000,0.050000,0.400000,-0.050000,0.385355,-0.085355,0.350000,-0.100000,-0.299289,-0.100000,-0.334644,-0.085355,-0.385355,-0.034644,-0.400000,0.000711,-0.400000,0.050000,-0.385355,0.085355,-0.350000,0.100000,0.350000,0.100000,0.385355,0.085355,0.385355,0.085355,$1*%
%AMFreePoly5*
4,1,14,0.385355,0.085355,0.400000,0.050000,0.400000,-0.050000,0.385355,-0.085355,0.350000,-0.100000,-0.350000,-0.100000,-0.385355,-0.085355,-0.400000,-0.050000,-0.400000,-0.000711,-0.385355,0.034644,-0.334644,0.085355,-0.299289,0.100000,0.350000,0.100000,0.385355,0.085355,0.385355,0.085355,$1*%
%AMFreePoly6*
4,1,14,0.085355,0.385355,0.100000,0.350000,0.100000,-0.299289,0.085355,-0.334644,0.034644,-0.385355,-0.000711,-0.400000,-0.050000,-0.400000,-0.085355,-0.385355,-0.100000,-0.350000,-0.100000,0.350000,-0.085355,0.385355,-0.050000,0.400000,0.050000,0.400000,0.085355,0.385355,0.085355,0.385355,$1*%
%AMFreePoly7*
4,1,14,0.085355,0.385355,0.100000,0.350000,0.100000,-0.350000,0.085355,-0.385355,0.050000,-0.400000,0.000711,-0.400000,-0.034644,-0.385355,-0.085355,-0.334644,-0.100000,-0.299289,-0.100000,0.350000,-0.085355,0.385355,-0.050000,0.400000,0.050000,0.400000,0.085355,0.385355,0.085355,0.385355,$1*%
G04 Aperture macros list end*
%ADD10FreePoly0,180.000000*%
%ADD11RoundRect,0.050000X0.350000X0.050000X-0.350000X0.050000X-0.350000X-0.050000X0.350000X-0.050000X0*%
%ADD12FreePoly1,180.000000*%
%ADD13FreePoly2,180.000000*%
%ADD14RoundRect,0.050000X0.050000X0.350000X-0.050000X0.350000X-0.050000X-0.350000X0.050000X-0.350000X0*%
%ADD15FreePoly3,180.000000*%
%ADD16FreePoly4,180.000000*%
%ADD17FreePoly5,180.000000*%
%ADD18FreePoly6,180.000000*%
%ADD19FreePoly7,180.000000*%
%ADD20R,1.700000X1.700000*%
%ADD21RoundRect,0.200000X0.200000X0.275000X-0.200000X0.275000X-0.200000X-0.275000X0.200000X-0.275000X0*%
%ADD22RoundRect,0.200000X-0.200000X-0.275000X0.200000X-0.275000X0.200000X0.275000X-0.200000X0.275000X0*%
%ADD23RoundRect,0.218750X-0.218750X-0.256250X0.218750X-0.256250X0.218750X0.256250X-0.218750X0.256250X0*%
%ADD24O,1.700000X1.700000*%
%ADD25RoundRect,0.225000X0.250000X-0.225000X0.250000X0.225000X-0.250000X0.225000X-0.250000X-0.225000X0*%
G04 APERTURE END LIST*
D10*
X134375000Y-90725000D03*
D11*
X134375000Y-90325000D03*
X134375000Y-89925000D03*
X134375000Y-89525000D03*
D12*
X134375000Y-89125000D03*
D13*
X133725000Y-88475000D03*
D14*
X133325000Y-88475000D03*
X132925000Y-88475000D03*
X132525000Y-88475000D03*
D15*
X132125000Y-88475000D03*
D16*
X131475000Y-89125000D03*
D11*
X131475000Y-89525000D03*
X131475000Y-89925000D03*
X131475000Y-90325000D03*
D17*
X131475000Y-90725000D03*
D18*
X132125000Y-91375000D03*
D14*
X132525000Y-91375000D03*
X132925000Y-91375000D03*
X133325000Y-91375000D03*
D19*
X133725000Y-91375000D03*
D20*
X132925000Y-89925000D03*
D21*
X127100000Y-89850000D03*
X128750000Y-89850000D03*
D22*
X97975000Y-81000000D03*
X99625000Y-81000000D03*
X79725000Y-92050000D03*
X81375000Y-92050000D03*
D23*
X121162500Y-79250000D03*
X122737500Y-79250000D03*
X66262500Y-84750000D03*
X67837500Y-84750000D03*
D22*
X111625000Y-75500000D03*
X113275000Y-75500000D03*
X121125000Y-81000000D03*
X122775000Y-81000000D03*
D23*
X106312500Y-84750000D03*
X107887500Y-84750000D03*
X81812500Y-79250000D03*
X83387500Y-79250000D03*
X98012500Y-79250000D03*
X99587500Y-79250000D03*
D22*
X106275000Y-86500000D03*
X107925000Y-86500000D03*
D23*
X79762500Y-90300000D03*
X81337500Y-90300000D03*
X78150000Y-84750000D03*
X79725000Y-84750000D03*
X108012500Y-79250000D03*
X109587500Y-79250000D03*
D22*
X66225000Y-86500000D03*
X67875000Y-86500000D03*
X78125000Y-86500000D03*
X79775000Y-86500000D03*
D23*
X66212500Y-79250000D03*
X67787500Y-79250000D03*
D22*
X66175000Y-81000000D03*
X67825000Y-81000000D03*
D23*
X93612500Y-73750000D03*
X95187500Y-73750000D03*
D20*
X116550000Y-92700000D03*
D24*
X119090000Y-92700000D03*
X121630000Y-92700000D03*
D23*
X111662500Y-73750000D03*
X113237500Y-73750000D03*
D22*
X66175000Y-75500000D03*
X67825000Y-75500000D03*
X93575000Y-75500000D03*
X95225000Y-75500000D03*
D23*
X79462500Y-73750000D03*
X81037500Y-73750000D03*
D22*
X79425000Y-75500000D03*
X81075000Y-75500000D03*
D25*
X135800000Y-89525000D03*
X135800000Y-87975000D03*
D22*
X107975000Y-81000000D03*
X109625000Y-81000000D03*
D23*
X66212500Y-73750000D03*
X67787500Y-73750000D03*
D22*
X81775000Y-81000000D03*
X83425000Y-81000000D03*
D20*
X98720000Y-88510000D03*
D24*
X98720000Y-91050000D03*
X101260000Y-88510000D03*
X101260000Y-91050000D03*
X103800000Y-88510000D03*
X103800000Y-91050000D03*
G36*
X74778015Y-44176245D02*
G01*
X74990562Y-44182158D01*
X74993357Y-44182268D01*
X75186457Y-44192022D01*
X75190311Y-44192277D01*
X75355713Y-44205808D01*
X75360653Y-44206312D01*
X75661902Y-44243148D01*
X75666546Y-44243805D01*
X75972633Y-44293043D01*
X75977027Y-44293831D01*
X76287449Y-44355304D01*
X76291614Y-44356204D01*
X76605779Y-44429719D01*
X76609736Y-44430713D01*
X76927264Y-44516124D01*
X76931030Y-44517201D01*
X77251346Y-44614310D01*
X77254940Y-44615460D01*
X77577517Y-44724077D01*
X77580955Y-44725291D01*
X77905350Y-44845250D01*
X77908647Y-44846523D01*
X78234312Y-44977620D01*
X78237484Y-44978948D01*
X78563971Y-45121017D01*
X78567029Y-45122397D01*
X78893796Y-45275231D01*
X78896751Y-45276662D01*
X79223282Y-45440058D01*
X79226147Y-45441538D01*
X79552040Y-45615356D01*
X79554824Y-45616887D01*
X79879472Y-45800874D01*
X79882182Y-45802456D01*
X80205147Y-45996449D01*
X80207794Y-45998084D01*
X80528839Y-46202054D01*
X80530957Y-46203430D01*
X80756794Y-46353455D01*
X80759201Y-46355096D01*
X80974510Y-46505534D01*
X80977104Y-46507396D01*
X81183018Y-46659307D01*
X81185758Y-46661388D01*
X81383263Y-46815737D01*
X81386100Y-46818022D01*
X81576082Y-46975696D01*
X81578958Y-46978158D01*
X81762558Y-47140254D01*
X81765418Y-47142859D01*
X81943545Y-47310295D01*
X81946330Y-47312996D01*
X82120039Y-47486829D01*
X82122697Y-47489573D01*
X82292934Y-47670767D01*
X82295424Y-47673498D01*
X82463191Y-47863081D01*
X82465484Y-47865747D01*
X82631765Y-48064748D01*
X82633840Y-48067299D01*
X82799584Y-48276702D01*
X82801435Y-48279100D01*
X82967590Y-48499897D01*
X82969218Y-48502111D01*
X83137438Y-48736277D01*
X83308541Y-48984703D01*
X83481266Y-49245108D01*
X83483974Y-49249377D01*
X83612014Y-49460658D01*
X83614806Y-49465509D01*
X83755669Y-49723549D01*
X83757504Y-49727042D01*
X83906468Y-50021856D01*
X83907856Y-50024691D01*
X84059729Y-50345281D01*
X84060904Y-50347836D01*
X84210592Y-50683270D01*
X84211690Y-50685806D01*
X84354215Y-51025327D01*
X84355335Y-51028088D01*
X84485708Y-51360847D01*
X84486945Y-51364141D01*
X84599954Y-51678565D01*
X84601832Y-51684215D01*
X84663649Y-51886184D01*
X84664547Y-51889256D01*
X84745712Y-52181159D01*
X84936103Y-52917420D01*
X85115909Y-53666246D01*
X85183939Y-53973893D01*
X85184559Y-53976870D01*
X85228469Y-54201498D01*
X85229261Y-54205987D01*
X85257649Y-54386158D01*
X85258080Y-54389129D01*
X85281063Y-54562137D01*
X85281459Y-54565458D01*
X85298894Y-54730739D01*
X85299228Y-54734439D01*
X85311102Y-54892177D01*
X85311343Y-54896280D01*
X85317669Y-55046852D01*
X85317776Y-55051379D01*
X85318561Y-55194986D01*
X85318489Y-55199947D01*
X85313754Y-55336937D01*
X85313450Y-55342333D01*
X85303216Y-55473040D01*
X85302622Y-55478853D01*
X85286924Y-55603521D01*
X85285985Y-55609712D01*
X85264833Y-55728811D01*
X85263496Y-55735323D01*
X85236918Y-55849148D01*
X85235141Y-55855895D01*
X85203135Y-55964873D01*
X85200896Y-55971750D01*
X85163450Y-56076279D01*
X85160748Y-56083166D01*
X85117798Y-56183723D01*
X85114663Y-56190492D01*
X85066156Y-56287462D01*
X85062643Y-56293989D01*
X85007832Y-56388920D01*
X85005408Y-56392940D01*
X84802087Y-56716179D01*
X84603221Y-57023092D01*
X84409233Y-57312640D01*
X84219297Y-57585775D01*
X84033361Y-57842377D01*
X84031776Y-57844516D01*
X83849163Y-58085434D01*
X83847364Y-58087750D01*
X83666530Y-58314956D01*
X83664516Y-58317421D01*
X83484626Y-58531901D01*
X83482396Y-58534486D01*
X83302676Y-58737158D01*
X83300240Y-58739826D01*
X83119758Y-58931787D01*
X83117133Y-58934496D01*
X82935108Y-59116664D01*
X82932324Y-59119364D01*
X82747884Y-59292750D01*
X82744983Y-59295392D01*
X82557236Y-59461015D01*
X82554267Y-59463552D01*
X82362335Y-59622406D01*
X82359354Y-59624797D01*
X82162416Y-59777818D01*
X82159482Y-59780029D01*
X81955130Y-59929316D01*
X81896409Y-59971704D01*
X81841905Y-60011601D01*
X81791537Y-60049080D01*
X81745218Y-60084214D01*
X81702866Y-60117075D01*
X81664398Y-60147737D01*
X81629729Y-60176274D01*
X81598775Y-60202760D01*
X81597746Y-60203674D01*
X81571525Y-60227204D01*
X81570217Y-60228430D01*
X81547781Y-60249778D01*
X81546163Y-60251402D01*
X81528550Y-60269447D01*
X81526553Y-60271587D01*
X81511529Y-60288468D01*
X81509768Y-60290537D01*
X81503434Y-60298323D01*
X81502104Y-60300049D01*
X81497909Y-60305619D01*
X81496340Y-60307782D01*
X81492325Y-60313562D01*
X81490692Y-60316037D01*
X81487625Y-60320934D01*
X81485875Y-60323909D01*
X81483692Y-60327868D01*
X81481861Y-60331462D01*
X81480515Y-60334332D01*
X81478651Y-60338747D01*
X81478045Y-60340353D01*
X81476296Y-60345709D01*
X81476158Y-60346207D01*
X81474833Y-60352093D01*
X81467740Y-60392785D01*
X81467176Y-60396786D01*
X81459477Y-60468094D01*
X81459295Y-60470348D01*
X81444263Y-60681118D01*
X81444189Y-60682459D01*
X81430703Y-60954914D01*
X81419789Y-61256206D01*
X81412513Y-61551704D01*
X81409867Y-61808140D01*
X81409883Y-61809798D01*
X81412816Y-61990494D01*
X81412966Y-61993934D01*
X81416750Y-62046733D01*
X81422434Y-62070677D01*
X81423378Y-62071493D01*
X81429324Y-62075943D01*
X81434442Y-62078781D01*
X81440084Y-62081041D01*
X81446040Y-62082679D01*
X81446499Y-62082780D01*
X81452136Y-62083743D01*
X81453811Y-62083950D01*
X81458798Y-62084362D01*
X81461621Y-62084481D01*
X81465980Y-62084511D01*
X81469934Y-62084400D01*
X81473717Y-62084176D01*
X81478681Y-62083730D01*
X81481975Y-62083346D01*
X81487893Y-62082494D01*
X81490773Y-62082009D01*
X81497527Y-62080710D01*
X81500079Y-62080164D01*
X81508755Y-62078118D01*
X81510957Y-62077533D01*
X81519151Y-62075255D01*
X81521134Y-62074657D01*
X81529991Y-62071882D01*
X81531736Y-62071296D01*
X81541265Y-62068002D01*
X81542813Y-62067434D01*
X81551347Y-62064226D01*
X81554471Y-62062962D01*
X82663331Y-61579433D01*
X84223492Y-60888872D01*
X84745602Y-60659125D01*
X85352379Y-60394983D01*
X85842333Y-60184011D01*
X86239230Y-60010951D01*
X86405842Y-59937151D01*
X86552864Y-59871045D01*
X86681522Y-59812040D01*
X86793039Y-59759539D01*
X86888645Y-59712948D01*
X86969565Y-59671672D01*
X86970882Y-59670967D01*
X87036981Y-59635138D01*
X87038826Y-59634075D01*
X87090859Y-59603495D01*
X87093441Y-59601894D01*
X87135091Y-59574666D01*
X87137574Y-59572955D01*
X87153687Y-59561270D01*
X87156639Y-59559039D01*
X87169529Y-59548857D01*
X87171848Y-59546941D01*
X87183355Y-59536964D01*
X87185889Y-59534642D01*
X87195127Y-59525693D01*
X87197913Y-59522815D01*
X87205113Y-59514884D01*
X87208052Y-59511397D01*
X87215045Y-59502454D01*
X87215933Y-59501274D01*
X87239085Y-59470132D01*
X87241976Y-59465888D01*
X87249447Y-59453881D01*
X87252116Y-59449138D01*
X87258165Y-59437182D01*
X87260712Y-59431444D01*
X87265681Y-59418526D01*
X87267609Y-59412658D01*
X87271879Y-59397093D01*
X87273080Y-59391834D01*
X87276683Y-59372179D01*
X87277313Y-59367930D01*
X87280128Y-59343103D01*
X87280409Y-59339888D01*
X87282391Y-59307932D01*
X87282470Y-59305655D01*
X87283397Y-59268498D01*
X87283396Y-59266384D01*
X87282515Y-59168584D01*
X87282479Y-59167191D01*
X87278325Y-59034852D01*
X87271490Y-58860396D01*
X87269148Y-58813988D01*
X87267480Y-58772339D01*
X87266609Y-58736309D01*
X87266574Y-58733544D01*
X87266531Y-58703068D01*
X87266585Y-58699235D01*
X87267360Y-58672977D01*
X87267604Y-58668047D01*
X87269174Y-58645432D01*
X87269737Y-58639431D01*
X87272058Y-58619841D01*
X87273070Y-58612959D01*
X87276132Y-58595542D01*
X87277654Y-58588194D01*
X87281543Y-58571919D01*
X87283519Y-58564640D01*
X87288454Y-58548422D01*
X87290681Y-58541781D01*
X87296990Y-58524598D01*
X87299214Y-58518969D01*
X87307261Y-58499973D01*
X87309231Y-58495565D01*
X87319302Y-58474153D01*
X87320863Y-58470953D01*
X87332995Y-58446972D01*
X87334437Y-58444209D01*
X87365940Y-58385640D01*
X87367592Y-58382666D01*
X87381787Y-58357927D01*
X87383471Y-58355082D01*
X87397584Y-58331938D01*
X87399606Y-58328733D01*
X87413683Y-58307160D01*
X87416044Y-58303673D01*
X87430253Y-58283434D01*
X87432923Y-58279775D01*
X87447537Y-58260497D01*
X87450464Y-58256785D01*
X87465689Y-58238216D01*
X87468795Y-58234573D01*
X87484914Y-58216393D01*
X87488087Y-58212948D01*
X87505426Y-58194820D01*
X87508581Y-58191639D01*
X87527383Y-58173352D01*
X87530399Y-58170515D01*
X87550962Y-58151810D01*
X87553774Y-58149328D01*
X87576394Y-58129969D01*
X87578933Y-58127854D01*
X87603728Y-58107753D01*
X87605973Y-58105976D01*
X87634251Y-58084114D01*
X87636240Y-58082608D01*
X87666030Y-58060520D01*
X87700250Y-58035963D01*
X87737182Y-58010188D01*
X87998210Y-57833815D01*
X87998211Y-57833813D01*
X88019380Y-57092983D01*
X88023976Y-56942576D01*
X88029688Y-56797913D01*
X88036309Y-56662430D01*
X88043634Y-56539556D01*
X88051455Y-56432716D01*
X88059370Y-56347439D01*
X88059825Y-56343299D01*
X88067349Y-56284098D01*
X88068321Y-56277765D01*
X88071005Y-56262854D01*
X88072962Y-56253897D01*
X88074263Y-56248845D01*
X88077986Y-56236912D01*
X88095264Y-56190001D01*
X88097329Y-56184765D01*
X88116871Y-56138323D01*
X88118767Y-56134045D01*
X88128249Y-56113695D01*
X88129712Y-56110663D01*
X88139592Y-56090880D01*
X88141239Y-56087699D01*
X88151209Y-56069100D01*
X88153069Y-56065756D01*
X88163051Y-56048440D01*
X88165141Y-56044947D01*
X88175150Y-56028831D01*
X88177513Y-56025171D01*
X88187455Y-56010351D01*
X88190122Y-56006533D01*
X88200005Y-55992934D01*
X88203014Y-55988964D01*
X88212770Y-55976615D01*
X88216158Y-55972510D01*
X88225753Y-55961382D01*
X88229557Y-55957170D01*
X88238923Y-55947263D01*
X88243215Y-55942940D01*
X88252325Y-55934206D01*
X88257121Y-55929843D01*
X88265936Y-55922235D01*
X88271256Y-55917895D01*
X88279706Y-55911382D01*
X88285626Y-55907091D01*
X88293720Y-55901581D01*
X88300209Y-55897452D01*
X88307939Y-55892864D01*
X88315012Y-55888972D01*
X88322359Y-55885235D01*
X88329985Y-55881676D01*
X88337005Y-55878686D01*
X88345130Y-55875558D01*
X88351879Y-55873228D01*
X88360420Y-55870619D01*
X88367003Y-55868865D01*
X88375868Y-55866848D01*
X88382393Y-55865613D01*
X88391426Y-55864246D01*
X88397987Y-55863499D01*
X88407090Y-55862801D01*
X88413884Y-55862531D01*
X88422858Y-55862499D01*
X88429957Y-55862731D01*
X88438737Y-55863330D01*
X88446293Y-55864116D01*
X88454737Y-55865290D01*
X88462805Y-55866695D01*
X88470856Y-55868373D01*
X88479562Y-55870492D01*
X88487095Y-55872580D01*
X88496436Y-55875488D01*
X88503474Y-55877913D01*
X88514158Y-55881957D01*
X88519382Y-55884071D01*
X88525601Y-55886754D01*
X88535287Y-55891441D01*
X88539425Y-55893670D01*
X88548381Y-55898992D01*
X88553187Y-55902128D01*
X88561234Y-55907848D01*
X88566963Y-55912274D01*
X88573905Y-55918052D01*
X88580727Y-55924165D01*
X88586560Y-55929745D01*
X88594498Y-55937849D01*
X88599305Y-55943045D01*
X88608334Y-55953382D01*
X88612257Y-55958104D01*
X88622322Y-55970849D01*
X88625490Y-55975041D01*
X88636531Y-55990310D01*
X88639074Y-55993963D01*
X88651028Y-56011810D01*
X88653071Y-56014962D01*
X88665945Y-56035502D01*
X88667588Y-56038199D01*
X88681313Y-56061389D01*
X88682630Y-56063670D01*
X88697809Y-56090606D01*
X88713715Y-56120031D01*
X88714888Y-56122258D01*
X88749001Y-56188650D01*
X88750198Y-56191042D01*
X88868194Y-56433412D01*
X88880681Y-56485305D01*
X88894269Y-57191760D01*
X88904851Y-57925538D01*
X88904852Y-57925539D01*
X89134157Y-58105456D01*
X89185531Y-58146684D01*
X89188116Y-58148817D01*
X89232106Y-58186127D01*
X89235611Y-58189215D01*
X89273360Y-58223759D01*
X89277828Y-58228059D01*
X89309540Y-58260135D01*
X89314887Y-58265897D01*
X89341061Y-58295964D01*
X89347027Y-58303374D01*
X89368277Y-58331942D01*
X89374402Y-58340982D01*
X89392316Y-58370105D01*
X89396669Y-58377780D01*
X89403278Y-58390466D01*
X89405929Y-58395870D01*
X89412470Y-58410067D01*
X89414856Y-58415597D01*
X89420766Y-58430259D01*
X89422848Y-58435802D01*
X89427719Y-58449776D01*
X89430237Y-58457880D01*
X89439693Y-58492456D01*
X89441983Y-58502431D01*
X89448995Y-58540026D01*
X89450288Y-58548618D01*
X89455223Y-58591600D01*
X89455827Y-58598613D01*
X89458654Y-58647693D01*
X89458848Y-58653166D01*
X89459593Y-58708866D01*
X89459580Y-58712954D01*
X89458350Y-58775707D01*
X89458258Y-58778629D01*
X89455273Y-58847726D01*
X89455024Y-58851879D01*
X89449368Y-58925448D01*
X89446030Y-58960606D01*
X89442391Y-58993895D01*
X89438416Y-59025518D01*
X89434283Y-59054119D01*
X89433900Y-59056585D01*
X89429637Y-59082287D01*
X89429121Y-59085182D01*
X89424627Y-59108793D01*
X89423962Y-59112052D01*
X89419218Y-59133786D01*
X89418362Y-59137439D01*
X89413390Y-59157311D01*
X89412293Y-59161399D01*
X89407142Y-59179359D01*
X89405750Y-59183885D01*
X89400443Y-59200035D01*
X89398687Y-59205018D01*
X89393293Y-59219344D01*
X89391094Y-59224789D01*
X89385666Y-59237365D01*
X89382947Y-59243238D01*
X89377525Y-59254191D01*
X89374216Y-59260423D01*
X89369339Y-59269009D01*
X89364330Y-59277090D01*
X89346128Y-59304084D01*
X89338203Y-59314588D01*
X89311392Y-59346456D01*
X89305110Y-59353375D01*
X89267024Y-59392276D01*
X89262080Y-59397054D01*
X89213717Y-59441261D01*
X89208130Y-59446071D01*
X89075950Y-59553194D01*
X89070781Y-59557162D01*
X88896033Y-59684174D01*
X88892485Y-59686660D01*
X88673357Y-59834514D01*
X88670825Y-59836178D01*
X88405561Y-60005879D01*
X88093194Y-60197989D01*
X87733627Y-60412623D01*
X86204779Y-61312646D01*
X85493490Y-61728482D01*
X84994751Y-62020847D01*
X84435158Y-62352900D01*
X83691678Y-62796076D01*
X82741824Y-63358315D01*
X82308624Y-63614851D01*
X81935284Y-63838975D01*
X81661826Y-64006215D01*
X81575048Y-64060860D01*
X81573687Y-64061756D01*
X81529445Y-64091306D01*
X81527142Y-64092920D01*
X81408323Y-64180287D01*
X81433018Y-64589511D01*
X81475262Y-65256254D01*
X81524245Y-65930893D01*
X81636306Y-67240195D01*
X81696327Y-67843025D01*
X81756967Y-68390084D01*
X81816698Y-68865461D01*
X81816883Y-68866756D01*
X81873990Y-69253231D01*
X81874210Y-69254569D01*
X81888328Y-69337526D01*
X81902048Y-69422241D01*
X81926467Y-69583967D01*
X81944934Y-69720567D01*
X81951069Y-69772656D01*
X81954947Y-69812272D01*
X81955255Y-69816032D01*
X81956910Y-69840863D01*
X81941728Y-69909063D01*
X81892084Y-69958228D01*
X81833382Y-69973109D01*
X75305269Y-69983483D01*
X68772484Y-69990406D01*
X68705424Y-69970792D01*
X68659613Y-69918037D01*
X68648353Y-69866406D01*
X68648353Y-69625078D01*
X68648387Y-69622188D01*
X68654604Y-69355538D01*
X68655170Y-69331234D01*
X68655352Y-69326812D01*
X68665658Y-69152270D01*
X69283345Y-69152270D01*
X69283350Y-69355536D01*
X69283352Y-69355538D01*
X75259408Y-69355538D01*
X79487008Y-69348041D01*
X80777458Y-69339166D01*
X81130755Y-69333592D01*
X81132847Y-69333505D01*
X81256624Y-69327319D01*
X81256630Y-69327314D01*
X81257442Y-69313905D01*
X81257465Y-69306838D01*
X81255650Y-69273085D01*
X81255459Y-69270531D01*
X81242959Y-69139901D01*
X81242792Y-69138431D01*
X81220414Y-68951771D01*
X81189600Y-68727583D01*
X81118881Y-68155374D01*
X81036585Y-67367190D01*
X80954949Y-66485744D01*
X80886400Y-65636077D01*
X80886112Y-65631398D01*
X80869952Y-65253008D01*
X80854022Y-64609350D01*
X80833200Y-63132537D01*
X81348352Y-63132537D01*
X81348862Y-63283495D01*
X81350446Y-63411513D01*
X81351668Y-63467193D01*
X81353190Y-63517455D01*
X81355021Y-63562424D01*
X81357173Y-63602207D01*
X81359659Y-63636918D01*
X81359784Y-63638318D01*
X81362477Y-63666563D01*
X81362715Y-63668548D01*
X81365460Y-63689909D01*
X81365904Y-63692833D01*
X81368911Y-63709911D01*
X81369547Y-63713042D01*
X81370764Y-63718330D01*
X81371492Y-63721185D01*
X81372566Y-63725015D01*
X81373744Y-63728762D01*
X81374309Y-63730379D01*
X81376038Y-63734719D01*
X81379382Y-63741077D01*
X81379679Y-63741566D01*
X81382071Y-63744245D01*
X81384562Y-63745841D01*
X81387158Y-63746371D01*
X81394830Y-63744503D01*
X81406489Y-63739786D01*
X81410246Y-63738119D01*
X81451815Y-63717984D01*
X81453663Y-63717030D01*
X81514840Y-63684794D01*
X81594874Y-63640969D01*
X81795447Y-63527592D01*
X82032743Y-63390066D01*
X83323908Y-62624538D01*
X84759713Y-61774343D01*
X86294296Y-60867705D01*
X87768906Y-59996343D01*
X87968228Y-59878197D01*
X88158291Y-59762239D01*
X88338427Y-59649011D01*
X88507982Y-59539050D01*
X88666293Y-59432891D01*
X88812698Y-59331074D01*
X88946536Y-59234133D01*
X88947634Y-59233309D01*
X89067124Y-59142625D01*
X89067128Y-59142618D01*
X89068368Y-59138551D01*
X89069829Y-59132780D01*
X89072751Y-59118368D01*
X89073121Y-59116266D01*
X89083004Y-59057072D01*
X89083205Y-59055737D01*
X89095902Y-58967996D01*
X89109465Y-58860376D01*
X89116569Y-58801387D01*
X89116703Y-58800104D01*
X89121837Y-58748324D01*
X89121989Y-58746284D01*
X89124996Y-58700611D01*
X89125083Y-58698481D01*
X89125701Y-58678578D01*
X89125719Y-58676844D01*
X89125778Y-58657663D01*
X89125734Y-58655623D01*
X89125194Y-58637791D01*
X89125056Y-58635403D01*
X89124013Y-58620325D01*
X89123764Y-58617546D01*
X89122072Y-58602380D01*
X89121665Y-58599391D01*
X89119405Y-58585372D01*
X89118777Y-58582051D01*
X89115955Y-58569045D01*
X89115083Y-58565528D01*
X89111686Y-58553351D01*
X89110545Y-58549703D01*
X89106567Y-58538236D01*
X89105147Y-58534531D01*
X89100549Y-58523606D01*
X89098851Y-58519913D01*
X89093578Y-58509367D01*
X89091656Y-58505816D01*
X89085603Y-58495445D01*
X89083551Y-58492169D01*
X89076600Y-58481809D01*
X89074464Y-58478821D01*
X89066542Y-58468405D01*
X89064391Y-58465732D01*
X89055372Y-58455138D01*
X89053287Y-58452810D01*
X89043078Y-58441964D01*
X89041124Y-58439978D01*
X89028749Y-58427958D01*
X89026961Y-58426322D01*
X89014212Y-58414907D01*
X89012598Y-58413532D01*
X88998476Y-58401723D01*
X88997057Y-58400586D01*
X88981508Y-58388330D01*
X88979747Y-58387014D01*
X88943739Y-58360627D01*
X88942011Y-58359426D01*
X88900638Y-58331207D01*
X88899513Y-58330465D01*
X88851935Y-58299483D01*
X88755166Y-58236668D01*
X88751752Y-58234371D01*
X88716970Y-58210116D01*
X88711069Y-58205735D01*
X88685043Y-58185191D01*
X88676125Y-58177434D01*
X88658147Y-58160224D01*
X88647208Y-58148290D01*
X88635101Y-58133213D01*
X88624455Y-58117669D01*
X88615310Y-58101862D01*
X88607222Y-58085090D01*
X88599069Y-58064328D01*
X88594237Y-58049260D01*
X88586811Y-58019745D01*
X88584449Y-58007974D01*
X88578330Y-57967385D01*
X88577361Y-57959060D01*
X88573018Y-57906231D01*
X88572688Y-57900721D01*
X88570236Y-57835379D01*
X88570149Y-57830921D01*
X88569877Y-57655112D01*
X88573240Y-57417531D01*
X88576188Y-57240888D01*
X88576988Y-57091764D01*
X88575472Y-56965951D01*
X88573792Y-56910451D01*
X88571474Y-56859235D01*
X88568493Y-56811713D01*
X88564828Y-56767383D01*
X88564700Y-56766105D01*
X88560469Y-56725802D01*
X88560291Y-56724348D01*
X88555380Y-56686295D01*
X88555158Y-56684793D01*
X88549548Y-56648401D01*
X88549286Y-56646882D01*
X88542950Y-56611592D01*
X88542667Y-56610159D01*
X88535567Y-56575341D01*
X88535284Y-56574057D01*
X88527379Y-56539121D01*
X88526826Y-56536950D01*
X88516414Y-56497642D01*
X88505959Y-56460420D01*
X88500903Y-56443379D01*
X88495977Y-56427450D01*
X88491135Y-56412497D01*
X88486389Y-56398572D01*
X88481721Y-56385639D01*
X88481309Y-56384555D01*
X88477205Y-56373895D01*
X88476638Y-56372496D01*
X88472710Y-56362999D01*
X88471991Y-56361358D01*
X88468281Y-56353086D01*
X88467365Y-56351170D01*
X88464544Y-56345431D01*
X88463307Y-56343027D01*
X88460328Y-56337519D01*
X88458791Y-56334841D01*
X88456310Y-56330758D01*
X88454240Y-56327575D01*
X88452431Y-56324973D01*
X88449604Y-56321221D01*
X88448744Y-56320165D01*
X88444825Y-56315793D01*
X88444569Y-56315534D01*
X88441317Y-56312507D01*
X88439680Y-56311199D01*
X88437626Y-56309779D01*
X88435563Y-56308574D01*
X88433471Y-56307575D01*
X88431384Y-56306802D01*
X88429282Y-56306246D01*
X88427170Y-56305909D01*
X88425000Y-56305790D01*
X88422922Y-56305892D01*
X88420766Y-56306219D01*
X88418663Y-56306752D01*
X88416556Y-56307498D01*
X88414443Y-56308455D01*
X88412361Y-56309600D01*
X88410762Y-56310634D01*
X88407262Y-56313303D01*
X88402887Y-56317328D01*
X88402366Y-56317857D01*
X88399126Y-56321407D01*
X88397547Y-56323279D01*
X88395126Y-56326338D01*
X88392775Y-56329507D01*
X88390982Y-56332056D01*
X88388037Y-56336478D01*
X88386678Y-56338614D01*
X88382739Y-56345096D01*
X88377843Y-56367896D01*
X88376808Y-56374376D01*
X88371239Y-56427049D01*
X88370925Y-56430733D01*
X88358487Y-56621583D01*
X88358419Y-56622967D01*
X88346526Y-56896254D01*
X88336880Y-57223516D01*
X88332608Y-57392445D01*
X88327838Y-57550382D01*
X88322740Y-57693933D01*
X88317475Y-57819708D01*
X88312212Y-57924316D01*
X88307222Y-58002655D01*
X88306957Y-58006062D01*
X88306359Y-58012593D01*
X88280644Y-58077558D01*
X88241400Y-58110606D01*
X88227891Y-58117838D01*
X88162622Y-58151657D01*
X88086397Y-58190127D01*
X88006456Y-58231481D01*
X88004220Y-58232698D01*
X87934005Y-58272818D01*
X87931120Y-58274572D01*
X87869519Y-58314378D01*
X87866004Y-58316827D01*
X87812139Y-58357182D01*
X87809099Y-58359611D01*
X87785886Y-58379370D01*
X87783726Y-58381297D01*
X87761952Y-58401651D01*
X87759689Y-58403876D01*
X87739730Y-58424511D01*
X87737466Y-58426981D01*
X87719209Y-58448004D01*
X87716989Y-58450711D01*
X87700358Y-58472206D01*
X87698195Y-58475178D01*
X87683112Y-58497238D01*
X87681106Y-58500369D01*
X87667438Y-58523190D01*
X87665641Y-58526407D01*
X87653334Y-58550094D01*
X87651741Y-58553401D01*
X87640763Y-58578031D01*
X87639379Y-58581395D01*
X87629651Y-58607174D01*
X87628516Y-58610457D01*
X87620007Y-58637508D01*
X87619103Y-58640669D01*
X87611778Y-58669164D01*
X87611089Y-58672151D01*
X87604949Y-58702135D01*
X87604432Y-58704994D01*
X87599549Y-58736033D01*
X87599075Y-58739789D01*
X87592497Y-58809123D01*
X87592242Y-58813354D01*
X87590263Y-58889556D01*
X87590267Y-58892932D01*
X87592673Y-58977305D01*
X87592802Y-58979905D01*
X87599459Y-59073944D01*
X87599645Y-59075905D01*
X87610156Y-59177900D01*
X87616869Y-59251453D01*
X87619231Y-59283420D01*
X87620768Y-59310957D01*
X87620894Y-59313867D01*
X87621628Y-59337164D01*
X87621689Y-59341063D01*
X87621690Y-59361199D01*
X87621596Y-59366036D01*
X87620916Y-59383476D01*
X87620555Y-59389255D01*
X87619258Y-59404357D01*
X87618518Y-59410921D01*
X87616653Y-59424257D01*
X87615458Y-59431310D01*
X87613011Y-59443593D01*
X87611360Y-59450764D01*
X87608239Y-59462688D01*
X87606233Y-59469541D01*
X87602228Y-59481891D01*
X87600066Y-59488007D01*
X87594922Y-59501432D01*
X87592799Y-59506619D01*
X87586271Y-59521593D01*
X87584379Y-59525724D01*
X87576263Y-59542622D01*
X87574715Y-59545734D01*
X87564977Y-59564633D01*
X87563585Y-59567256D01*
X87539510Y-59611353D01*
X87535738Y-59617793D01*
X87511325Y-59656738D01*
X87506400Y-59664009D01*
X87479977Y-59700190D01*
X87474048Y-59707684D01*
X87444468Y-59742248D01*
X87437896Y-59749348D01*
X87403792Y-59783418D01*
X87397067Y-59789656D01*
X87357007Y-59824152D01*
X87350590Y-59829317D01*
X87303285Y-59864867D01*
X87297505Y-59868958D01*
X87241748Y-59906077D01*
X87236776Y-59909219D01*
X87171556Y-59948306D01*
X87167423Y-59950677D01*
X87091793Y-59992140D01*
X87088447Y-59993908D01*
X87001625Y-60038117D01*
X86998973Y-60039428D01*
X86900472Y-60086659D01*
X86897576Y-60088002D01*
X86659747Y-60194600D01*
X86657350Y-60195644D01*
X86361325Y-60320899D01*
X86178597Y-60398234D01*
X86008104Y-60471272D01*
X85868702Y-60531739D01*
X85779239Y-60571374D01*
X85690267Y-60611833D01*
X85556980Y-60670154D01*
X85228905Y-60811260D01*
X84030785Y-61332929D01*
X82946435Y-61809621D01*
X82187964Y-62144759D01*
X81723178Y-62348930D01*
X81555938Y-62423069D01*
X81499301Y-62448963D01*
X81497936Y-62449618D01*
X81466264Y-62465059D01*
X81463265Y-62466471D01*
X81348352Y-62518703D01*
X81348352Y-63132537D01*
X80833200Y-63132537D01*
X80829768Y-62889122D01*
X80820122Y-62030052D01*
X80808160Y-61326755D01*
X80795538Y-60851663D01*
X80795485Y-60850398D01*
X80789495Y-60722329D01*
X80789317Y-60719964D01*
X80786640Y-60688710D01*
X80783907Y-60677204D01*
X80779346Y-60677976D01*
X80774813Y-60679445D01*
X80769946Y-60681250D01*
X80752950Y-60688381D01*
X80750288Y-60689573D01*
X80722764Y-60702692D01*
X80721423Y-60703361D01*
X80686894Y-60720861D01*
X80685800Y-60721437D01*
X80598368Y-60767990D01*
X80494615Y-60825379D01*
X80324284Y-60918384D01*
X80321561Y-60919827D01*
X80129836Y-61018407D01*
X79922002Y-61120180D01*
X79706162Y-61221369D01*
X79488998Y-61318919D01*
X79277208Y-61409774D01*
X79078948Y-61490279D01*
X79076088Y-61491399D01*
X78897860Y-61558654D01*
X78895189Y-61559627D01*
X78725051Y-61619411D01*
X78590086Y-61669050D01*
X78587646Y-61670006D01*
X78469679Y-61719078D01*
X78466458Y-61720527D01*
X78343993Y-61779882D01*
X78341397Y-61781218D01*
X78192851Y-61862110D01*
X78191365Y-61862959D01*
X77998616Y-61974875D01*
X77397240Y-62335261D01*
X76652439Y-62779759D01*
X76321212Y-62975221D01*
X76074323Y-63118428D01*
X75673039Y-63353906D01*
X75351129Y-63541761D01*
X75214091Y-63624171D01*
X75035391Y-63730056D01*
X74645574Y-63958037D01*
X73693075Y-64526009D01*
X73359782Y-64725432D01*
X73079903Y-64891079D01*
X72849961Y-65024895D01*
X72666487Y-65128820D01*
X72591080Y-65170187D01*
X72525999Y-65204804D01*
X72473177Y-65231708D01*
X72404502Y-65244572D01*
X72339774Y-65218265D01*
X72299544Y-65161140D01*
X72296585Y-65091333D01*
X72299159Y-65082404D01*
X72302017Y-65073727D01*
X72305363Y-65064752D01*
X72310452Y-65052561D01*
X72314897Y-65043064D01*
X72321045Y-65031256D01*
X72325288Y-65023754D01*
X72327297Y-65020474D01*
X72330713Y-65015203D01*
X72333355Y-65011343D01*
X72337271Y-65005939D01*
X72339741Y-65002717D01*
X72344235Y-64997191D01*
X72346011Y-64995131D01*
X72352205Y-64988458D01*
X72354365Y-64986296D01*
X72359947Y-64981044D01*
X72365424Y-64976201D01*
X72370532Y-64971923D01*
X72395236Y-64952339D01*
X72399379Y-64949194D01*
X72434181Y-64923907D01*
X72436978Y-64921933D01*
X72480184Y-64892327D01*
X72482388Y-64890852D01*
X72532961Y-64857765D01*
X72589135Y-64822486D01*
X72648249Y-64786819D01*
X72708859Y-64751767D01*
X73516685Y-64275537D01*
X74687467Y-63581448D01*
X75124526Y-63324030D01*
X75358188Y-63188981D01*
X76010825Y-62800926D01*
X76243823Y-62661635D01*
X76493691Y-62514735D01*
X76729664Y-62377758D01*
X76920991Y-62268231D01*
X77086577Y-62172154D01*
X77248196Y-62076407D01*
X77387324Y-61991905D01*
X77442679Y-61957274D01*
X77484324Y-61930285D01*
X77486538Y-61928884D01*
X77628311Y-61841261D01*
X77884958Y-61686147D01*
X78596686Y-61262815D01*
X78826289Y-61127751D01*
X79030555Y-61006155D01*
X79210936Y-60896775D01*
X79368888Y-60798359D01*
X79505861Y-60709655D01*
X79566948Y-60668548D01*
X79623307Y-60629415D01*
X79675166Y-60592075D01*
X79676172Y-60591328D01*
X79722652Y-60556408D01*
X79723796Y-60555517D01*
X79766008Y-60522212D01*
X79767336Y-60521120D01*
X79805390Y-60489351D01*
X79806863Y-60488060D01*
X79840979Y-60457668D01*
X79842661Y-60456085D01*
X79872003Y-60427920D01*
X79873841Y-60426082D01*
X79900477Y-60398281D01*
X79902481Y-60396085D01*
X79925700Y-60369390D01*
X79927831Y-60366803D01*
X79947910Y-60341032D01*
X79950069Y-60338085D01*
X79967248Y-60313100D01*
X79969403Y-60309738D01*
X79983937Y-60285376D01*
X79985978Y-60281673D01*
X79998161Y-60257677D01*
X79999987Y-60253743D01*
X80010072Y-60229869D01*
X80011626Y-60225798D01*
X80019865Y-60201718D01*
X80021077Y-60197742D01*
X80027678Y-60173126D01*
X80028567Y-60169332D01*
X80033673Y-60143964D01*
X80034279Y-60140433D01*
X80038039Y-60114001D01*
X80038397Y-60110938D01*
X80040936Y-60083167D01*
X80041117Y-60080585D01*
X80042599Y-60050278D01*
X80042648Y-60048146D01*
X80043054Y-60018929D01*
X80043032Y-60016131D01*
X80041967Y-59981080D01*
X80041718Y-59977107D01*
X80038568Y-59943934D01*
X80038022Y-59939724D01*
X80032763Y-59907823D01*
X80031877Y-59903437D01*
X80024354Y-59872089D01*
X80023444Y-59868714D01*
X80018770Y-59853116D01*
X80018036Y-59850894D01*
X80012951Y-59836052D01*
X80012141Y-59833881D01*
X80006482Y-59819189D01*
X80005582Y-59817027D01*
X79999355Y-59802515D01*
X79998385Y-59800410D01*
X79991565Y-59786020D01*
X79990532Y-59783981D01*
X79983911Y-59771245D01*
X79982257Y-59768253D01*
X79965235Y-59739353D01*
X79962916Y-59735711D01*
X79943557Y-59707510D01*
X79941147Y-59704233D01*
X79918995Y-59676083D01*
X79916604Y-59673226D01*
X79891528Y-59645038D01*
X79889206Y-59642568D01*
X79861112Y-59614298D01*
X79858861Y-59612144D01*
X79827671Y-59583749D01*
X79825543Y-59581898D01*
X79791193Y-59553341D01*
X79789165Y-59551723D01*
X79750649Y-59522231D01*
X79748856Y-59520933D01*
X79707934Y-59491872D01*
X79706398Y-59490831D01*
X79549689Y-59386374D01*
X79504828Y-59332808D01*
X79494518Y-59286581D01*
X79475102Y-58574649D01*
X79469190Y-58415158D01*
X79462202Y-58261831D01*
X79454390Y-58118177D01*
X79445997Y-57987709D01*
X79437274Y-57873941D01*
X79428467Y-57780379D01*
X79428259Y-57778601D01*
X79419992Y-57711907D01*
X79419612Y-57709295D01*
X79415951Y-57687476D01*
X79415239Y-57683882D01*
X79412414Y-57671550D01*
X79410383Y-57664592D01*
X79402376Y-57642144D01*
X79393342Y-57617808D01*
X79384726Y-57595640D01*
X79376717Y-57576172D01*
X79372967Y-57567550D01*
X79369511Y-57559968D01*
X79368996Y-57558896D01*
X79366401Y-57553545D01*
X79365528Y-57551843D01*
X79364279Y-57549471D01*
X79362735Y-57546678D01*
X79362084Y-57545562D01*
X79359970Y-57542242D01*
X79358182Y-57539920D01*
X79356243Y-57537892D01*
X79355872Y-57537657D01*
X79355154Y-57537481D01*
X79354437Y-57537583D01*
X79354078Y-57537713D01*
X79349342Y-57540957D01*
X79347370Y-57542649D01*
X79345139Y-57544839D01*
X79343095Y-57546956D01*
X79341465Y-57548745D01*
X79341024Y-57549246D01*
X79338732Y-57551926D01*
X79332639Y-57559370D01*
X79330984Y-57561482D01*
X79323152Y-57571933D01*
X79321893Y-57573708D01*
X79313981Y-57585107D01*
X79312887Y-57586762D01*
X79304563Y-57599604D01*
X79303531Y-57601278D01*
X79295199Y-57615058D01*
X79291287Y-57625044D01*
X79289117Y-57631652D01*
X79285807Y-57644038D01*
X79284617Y-57649448D01*
X79276267Y-57697585D01*
X79275740Y-57701298D01*
X79267714Y-57773471D01*
X79267533Y-57775581D01*
X79260348Y-57869093D01*
X79260270Y-57870383D01*
X79253809Y-57986544D01*
X79248055Y-58126082D01*
X79238740Y-58472348D01*
X79234434Y-58652365D01*
X79229425Y-58811178D01*
X79223671Y-58948414D01*
X79217131Y-59063702D01*
X79213553Y-59113019D01*
X79209764Y-59156680D01*
X79205921Y-59193113D01*
X79205562Y-59196143D01*
X79201824Y-59224674D01*
X79201159Y-59229121D01*
X79197914Y-59248426D01*
X79167389Y-59311275D01*
X79149852Y-59327204D01*
X79147261Y-59329140D01*
X79144236Y-59331331D01*
X79136975Y-59336423D01*
X79133077Y-59339047D01*
X79113078Y-59351970D01*
X79108593Y-59354735D01*
X79085719Y-59368174D01*
X79081592Y-59370494D01*
X79056364Y-59384048D01*
X79052237Y-59386167D01*
X79025048Y-59399489D01*
X79021778Y-59401032D01*
X79008831Y-59406914D01*
X79006478Y-59407954D01*
X78992940Y-59413768D01*
X78990673Y-59414797D01*
X78956687Y-59431060D01*
X78954485Y-59432196D01*
X78921599Y-59449607D01*
X78919576Y-59450750D01*
X78886717Y-59469745D01*
X78884856Y-59470887D01*
X78852228Y-59491320D01*
X78850453Y-59492494D01*
X78818318Y-59514177D01*
X78816634Y-59515374D01*
X78785173Y-59538160D01*
X78783560Y-59539389D01*
X78752978Y-59563114D01*
X78751366Y-59564429D01*
X78721921Y-59588885D01*
X78720339Y-59590268D01*
X78692186Y-59615318D01*
X78690579Y-59616825D01*
X78663961Y-59642257D01*
X78662331Y-59643902D01*
X78638317Y-59668633D01*
X78636603Y-59670469D01*
X78613694Y-59696015D01*
X78611918Y-59698085D01*
X78591161Y-59723387D01*
X78589292Y-59725782D01*
X78570890Y-59750598D01*
X78568927Y-59753403D01*
X78553063Y-59777475D01*
X78550997Y-59780838D01*
X78537941Y-59803694D01*
X78535663Y-59808076D01*
X78529884Y-59820369D01*
X78528570Y-59823367D01*
X78523144Y-59836695D01*
X78521908Y-59839998D01*
X78517159Y-59853874D01*
X78516087Y-59857333D01*
X78511930Y-59872258D01*
X78511101Y-59875591D01*
X78507490Y-59892063D01*
X78506881Y-59895234D01*
X78503835Y-59913617D01*
X78503428Y-59916479D01*
X78500817Y-59938449D01*
X78500600Y-59940893D01*
X78498790Y-59964152D01*
X78498678Y-59966234D01*
X78497506Y-59992459D01*
X78497464Y-59994171D01*
X78496957Y-60023676D01*
X78496970Y-60025679D01*
X78498018Y-60096058D01*
X78498085Y-60097866D01*
X78501890Y-60183736D01*
X78508492Y-60289175D01*
X78515085Y-60396767D01*
X78517352Y-60443533D01*
X78518910Y-60486013D01*
X78519745Y-60524611D01*
X78519836Y-60558208D01*
X78519809Y-60561031D01*
X78519216Y-60589602D01*
X78519092Y-60593143D01*
X78517856Y-60618180D01*
X78517574Y-60622423D01*
X78515744Y-60644256D01*
X78515227Y-60649215D01*
X78512869Y-60668159D01*
X78512046Y-60673738D01*
X78509210Y-60690327D01*
X78508013Y-60696409D01*
X78504730Y-60711138D01*
X78503153Y-60717431D01*
X78499381Y-60730974D01*
X78497487Y-60737149D01*
X78493109Y-60750197D01*
X78491037Y-60755905D01*
X78485855Y-60769159D01*
X78483810Y-60774074D01*
X78478365Y-60786411D01*
X78474875Y-60793672D01*
X78459355Y-60823438D01*
X78455646Y-60830050D01*
X78437805Y-60859694D01*
X78433846Y-60865853D01*
X78413686Y-60895269D01*
X78409557Y-60900943D01*
X78387009Y-60930151D01*
X78382768Y-60935347D01*
X78357820Y-60964283D01*
X78353519Y-60969019D01*
X78326104Y-60997684D01*
X78321801Y-61001968D01*
X78291903Y-61030311D01*
X78287634Y-61034174D01*
X78255219Y-61062164D01*
X78251016Y-61065635D01*
X78216117Y-61093188D01*
X78212006Y-61096297D01*
X78174545Y-61123424D01*
X78170541Y-61126205D01*
X78130583Y-61152810D01*
X78126701Y-61155292D01*
X78084203Y-61181363D01*
X78080447Y-61183577D01*
X78035451Y-61209048D01*
X78031836Y-61211016D01*
X77984330Y-61235863D01*
X77980841Y-61237619D01*
X77930871Y-61261782D01*
X77927523Y-61263339D01*
X77873493Y-61287508D01*
X77432517Y-61478009D01*
X76766210Y-61772580D01*
X75668629Y-62247066D01*
X75008936Y-62533697D01*
X74732005Y-62654855D01*
X74539739Y-62740956D01*
X73984337Y-62986300D01*
X73242401Y-63309368D01*
X72589101Y-63590763D01*
X72453730Y-63647035D01*
X72384270Y-63654587D01*
X72321753Y-63623386D01*
X72286029Y-63563340D01*
X72282145Y-63531488D01*
X72282343Y-63507939D01*
X72282469Y-63503301D01*
X72283152Y-63488408D01*
X72283661Y-63481514D01*
X72284124Y-63476972D01*
X72310506Y-63412274D01*
X72341012Y-63384869D01*
X72344941Y-63382374D01*
X72352081Y-63378169D01*
X72365905Y-63370636D01*
X72370715Y-63368149D01*
X72390220Y-63358600D01*
X72393229Y-63357177D01*
X72419042Y-63345388D01*
X72486605Y-63315969D01*
X72804958Y-63173548D01*
X73287380Y-62959677D01*
X74592657Y-62388176D01*
X74713145Y-62335954D01*
X74821013Y-62288889D01*
X74916870Y-62246682D01*
X75001330Y-62209031D01*
X75075000Y-62175639D01*
X75138493Y-62146204D01*
X75192419Y-62120426D01*
X75215996Y-62108807D01*
X75237387Y-62098003D01*
X75256708Y-62087955D01*
X75274032Y-62078626D01*
X75289431Y-62069979D01*
X75290487Y-62069361D01*
X75302829Y-62062064D01*
X75304271Y-62061173D01*
X75314549Y-62054707D01*
X75316316Y-62053532D01*
X75323301Y-62048784D01*
X75325682Y-62047094D01*
X75331481Y-62042778D01*
X75334345Y-62040512D01*
X75337887Y-62037536D01*
X75341527Y-62034223D01*
X75342730Y-62033037D01*
X75347078Y-62028260D01*
X75350007Y-62024236D01*
X75350872Y-62022761D01*
X75351835Y-62020679D01*
X75352516Y-62018633D01*
X75353299Y-62014623D01*
X75353274Y-62013490D01*
X75353098Y-62012498D01*
X75351603Y-62008917D01*
X75350070Y-62006293D01*
X75347604Y-62003650D01*
X75347599Y-62003647D01*
X75337849Y-62000803D01*
X75331543Y-61999316D01*
X75302843Y-61994113D01*
X75300789Y-61993794D01*
X75190616Y-61977632D01*
X75028105Y-61956518D01*
X74832543Y-61933091D01*
X74527064Y-61893169D01*
X74523318Y-61892621D01*
X74224305Y-61844213D01*
X74220511Y-61843538D01*
X73926459Y-61786503D01*
X73922615Y-61785694D01*
X73633718Y-61720102D01*
X73629825Y-61719152D01*
X73346481Y-61645117D01*
X73342539Y-61644017D01*
X73064981Y-61561617D01*
X73060989Y-61560358D01*
X72789531Y-61469693D01*
X72785491Y-61468266D01*
X72518324Y-61368648D01*
X72337622Y-61297260D01*
X72139085Y-61220922D01*
X71781018Y-61086428D01*
X71651672Y-61039908D01*
X71599593Y-61022133D01*
X71597387Y-61021449D01*
X71556114Y-61009093D01*
X71553162Y-61008285D01*
X71535818Y-61003983D01*
X71533121Y-61003379D01*
X71517465Y-61000244D01*
X71513904Y-60999638D01*
X71500411Y-60997741D01*
X71495957Y-60997278D01*
X71484502Y-60996505D01*
X71479112Y-60996378D01*
X71469623Y-60996568D01*
X71463299Y-60997018D01*
X71455482Y-60997979D01*
X71448523Y-60999240D01*
X71441903Y-61000836D01*
X71434720Y-61003035D01*
X71428676Y-61005294D01*
X71421813Y-61008346D01*
X71415734Y-61011503D01*
X71409614Y-61015142D01*
X71403022Y-61019592D01*
X71397920Y-61023431D01*
X71390505Y-61029634D01*
X71386493Y-61033304D01*
X71378203Y-61041587D01*
X71375110Y-61044914D01*
X71365997Y-61055467D01*
X71363651Y-61058353D01*
X71354103Y-61070840D01*
X71351694Y-61074215D01*
X71329065Y-61108269D01*
X71327187Y-61111276D01*
X71301325Y-61155409D01*
X71300406Y-61157063D01*
X71271552Y-61209947D01*
X71198931Y-61347492D01*
X71198119Y-61349117D01*
X71031937Y-61687762D01*
X71030804Y-61690204D01*
X70859001Y-62082418D01*
X70858202Y-62084372D01*
X70685417Y-62517954D01*
X70684815Y-62519563D01*
X70514106Y-62985694D01*
X70513587Y-62987197D01*
X70348583Y-63475759D01*
X70348127Y-63477196D01*
X70192362Y-63978268D01*
X70191935Y-63979737D01*
X70048956Y-64483339D01*
X70048541Y-64484922D01*
X69921880Y-64981093D01*
X69921472Y-64982854D01*
X69798222Y-65531985D01*
X69797936Y-65533361D01*
X69680723Y-66115329D01*
X69572567Y-66710667D01*
X69476938Y-67297524D01*
X69397019Y-67855445D01*
X69396840Y-67856864D01*
X69335993Y-68363957D01*
X69335811Y-68365848D01*
X69297043Y-68802607D01*
X69296911Y-68804702D01*
X69286841Y-68989337D01*
X69286780Y-68991388D01*
X69283352Y-69150927D01*
X69283345Y-69152270D01*
X68665658Y-69152270D01*
X68675430Y-68986760D01*
X68675666Y-68983494D01*
X68708701Y-68597550D01*
X68708948Y-68594975D01*
X68754627Y-68166676D01*
X68812512Y-67700729D01*
X68882014Y-67202708D01*
X68962676Y-66676904D01*
X69053839Y-66128862D01*
X69054280Y-66126371D01*
X69143170Y-65652045D01*
X69143785Y-65648976D01*
X69246493Y-65168263D01*
X69247149Y-65165362D01*
X69362464Y-64682615D01*
X69363172Y-64679797D01*
X69489797Y-64199772D01*
X69490575Y-64196958D01*
X69627206Y-63724412D01*
X69628080Y-63721523D01*
X69773389Y-63261252D01*
X69774395Y-63258202D01*
X69927085Y-62814882D01*
X69928278Y-62811571D01*
X70087686Y-62388176D01*
X70268046Y-61935622D01*
X70342183Y-61754537D01*
X70408715Y-61596186D01*
X70469956Y-61455030D01*
X70528221Y-61325534D01*
X70585824Y-61202158D01*
X70645080Y-61079361D01*
X70663057Y-61042877D01*
X70679931Y-61007584D01*
X70695649Y-60973639D01*
X70710186Y-60941150D01*
X70723508Y-60910249D01*
X70735569Y-60881073D01*
X70746343Y-60853738D01*
X70755791Y-60828371D01*
X70756215Y-60827168D01*
X70763835Y-60805225D01*
X70764357Y-60803623D01*
X70770511Y-60784230D01*
X70771087Y-60782245D01*
X70775354Y-60767012D01*
X70776067Y-60764241D01*
X70779063Y-60751406D01*
X70779843Y-60747508D01*
X70781417Y-60738092D01*
X70781981Y-60733804D01*
X70782135Y-60732204D01*
X70782388Y-60728253D01*
X70782400Y-60727885D01*
X70782353Y-60723775D01*
X70781603Y-60717302D01*
X70780578Y-60714526D01*
X70779130Y-60712481D01*
X70722190Y-60677480D01*
X70720653Y-60676579D01*
X70590835Y-60601799D01*
X70404574Y-60497671D01*
X70182932Y-60377342D01*
X69737994Y-60133045D01*
X69461189Y-59979507D01*
X69458300Y-59977853D01*
X69346313Y-59911743D01*
X69343805Y-59910222D01*
X69228890Y-59838666D01*
X69226661Y-59837245D01*
X69108530Y-59760144D01*
X68988160Y-59678170D01*
X68867416Y-59592654D01*
X68747028Y-59504182D01*
X68627745Y-59413351D01*
X68510317Y-59320765D01*
X68395493Y-59227020D01*
X68284021Y-59132716D01*
X68176653Y-59038454D01*
X68075128Y-58945737D01*
X68073206Y-58943943D01*
X67978324Y-58853499D01*
X67976211Y-58851436D01*
X67887870Y-58763117D01*
X67885520Y-58760703D01*
X67804558Y-58675239D01*
X67801900Y-58672343D01*
X67729178Y-58590533D01*
X67726091Y-58586923D01*
X67599568Y-58433106D01*
X67596356Y-58429031D01*
X67472527Y-58264952D01*
X67469733Y-58261098D01*
X67348875Y-58087477D01*
X67346413Y-58083802D01*
X67229114Y-57901776D01*
X67226919Y-57898240D01*
X67113660Y-57708809D01*
X67111678Y-57705371D01*
X67002990Y-57509622D01*
X67001182Y-57506243D01*
X66897609Y-57305317D01*
X66895941Y-57301958D01*
X66797950Y-57096860D01*
X66796398Y-57093482D01*
X66704508Y-56885331D01*
X66703052Y-56881893D01*
X66617764Y-56671794D01*
X66616389Y-56668254D01*
X66538157Y-56457209D01*
X66536854Y-56453516D01*
X66466188Y-56242684D01*
X66464953Y-56238787D01*
X66402320Y-56029232D01*
X66401155Y-56025069D01*
X66347036Y-55817942D01*
X66345949Y-55813440D01*
X66300793Y-55609810D01*
X66299805Y-55604887D01*
X66264165Y-55406465D01*
X66263162Y-55399862D01*
X66237297Y-55192106D01*
X66236785Y-55187197D01*
X66215763Y-54937684D01*
X66215523Y-54934282D01*
X66199779Y-54656163D01*
X66199655Y-54653432D01*
X66189535Y-54360201D01*
X66189474Y-54357697D01*
X66185251Y-54062423D01*
X66185241Y-54059802D01*
X66185381Y-54039332D01*
X66788922Y-54039332D01*
X66789938Y-54315660D01*
X66790002Y-54317822D01*
X66800293Y-54585560D01*
X66800441Y-54587809D01*
X66819929Y-54847832D01*
X66820170Y-54850162D01*
X66848780Y-55103309D01*
X66849118Y-55105684D01*
X66886776Y-55352823D01*
X66887210Y-55355199D01*
X66933599Y-55595890D01*
X66934157Y-55598488D01*
X66992305Y-55843612D01*
X66992950Y-55846093D01*
X67061175Y-56087548D01*
X67061950Y-56090084D01*
X67140010Y-56327460D01*
X67140881Y-56329934D01*
X67228563Y-56562911D01*
X67229544Y-56565359D01*
X67326608Y-56793535D01*
X67327685Y-56795926D01*
X67433910Y-57018943D01*
X67435082Y-57021275D01*
X67550223Y-57238727D01*
X67551527Y-57241067D01*
X67675319Y-57452518D01*
X67676738Y-57454829D01*
X67809002Y-57659998D01*
X67810511Y-57662231D01*
X67950975Y-57860673D01*
X67952623Y-57862896D01*
X68101048Y-58054236D01*
X68102823Y-58056422D01*
X68259014Y-58240328D01*
X68260858Y-58242402D01*
X68424571Y-58418482D01*
X68426544Y-58420510D01*
X68597545Y-58588386D01*
X68599612Y-58590324D01*
X68777647Y-58749599D01*
X68779878Y-58751502D01*
X68964815Y-58901888D01*
X68966925Y-58903531D01*
X69213562Y-59087224D01*
X69215403Y-59088520D01*
X69480412Y-59271385D01*
X69482056Y-59272461D01*
X69762393Y-59452901D01*
X69763977Y-59453871D01*
X70055495Y-59629455D01*
X70057032Y-59630336D01*
X70355707Y-59798733D01*
X70357302Y-59799588D01*
X70659020Y-59958420D01*
X70660695Y-59959255D01*
X70961424Y-60106201D01*
X70963247Y-60107037D01*
X71258908Y-60239760D01*
X71260360Y-60240379D01*
X71773819Y-60455327D01*
X71775052Y-60455820D01*
X72261403Y-60647328D01*
X72262831Y-60647861D01*
X72723438Y-60816345D01*
X72725073Y-60816905D01*
X73161703Y-60962954D01*
X73163558Y-60963526D01*
X73577974Y-61087735D01*
X73580117Y-61088316D01*
X73974029Y-61191267D01*
X73976410Y-61191814D01*
X74351646Y-61274128D01*
X74353628Y-61274512D01*
X74534095Y-61307988D01*
X74535504Y-61308225D01*
X74712602Y-61336898D01*
X74714524Y-61337162D01*
X74832341Y-61352440D01*
X74834325Y-61352650D01*
X74971025Y-61365988D01*
X74972969Y-61366131D01*
X75291709Y-61387058D01*
X75293531Y-61387138D01*
X75647615Y-61400026D01*
X75649036Y-61400052D01*
X76011706Y-61404808D01*
X76013173Y-61404802D01*
X76356946Y-61401322D01*
X76358752Y-61401264D01*
X76656297Y-61389485D01*
X76658368Y-61389351D01*
X76780316Y-61380409D01*
X76782544Y-61380186D01*
X76880825Y-61369421D01*
X76884602Y-61368890D01*
X76956004Y-61356601D01*
X76964137Y-61354629D01*
X77005628Y-61341548D01*
X77012586Y-61338886D01*
X77225262Y-61242531D01*
X77573630Y-61086428D01*
X77688548Y-61033860D01*
X77790326Y-60985376D01*
X77791693Y-60984694D01*
X77879595Y-60940118D01*
X77881605Y-60939028D01*
X77957055Y-60897195D01*
X77959063Y-60896007D01*
X77991558Y-60876338D01*
X77993181Y-60875304D01*
X78023352Y-60855739D01*
X78025218Y-60854456D01*
X78051395Y-60836078D01*
X78053574Y-60834481D01*
X78077945Y-60815799D01*
X78080301Y-60813899D01*
X78101994Y-60795516D01*
X78104579Y-60793199D01*
X78123693Y-60775077D01*
X78126427Y-60772317D01*
X78143150Y-60754348D01*
X78145945Y-60751129D01*
X78160439Y-60733231D01*
X78163196Y-60729555D01*
X78175663Y-60711579D01*
X78178262Y-60707500D01*
X78188897Y-60689272D01*
X78191225Y-60684886D01*
X78200224Y-60666161D01*
X78202186Y-60661622D01*
X78209690Y-60642160D01*
X78211249Y-60637597D01*
X78217375Y-60617108D01*
X78218512Y-60612726D01*
X78223324Y-60590951D01*
X78224084Y-60586864D01*
X78227612Y-60563571D01*
X78228058Y-60559875D01*
X78230310Y-60534922D01*
X78230518Y-60531645D01*
X78231504Y-60504865D01*
X78231544Y-60502034D01*
X78231271Y-60472127D01*
X78231178Y-60469703D01*
X78229682Y-60439208D01*
X78229535Y-60437183D01*
X78226875Y-60404580D01*
X78226618Y-60402248D01*
X78217931Y-60329768D01*
X78217622Y-60327653D01*
X78205102Y-60246816D01*
X78192757Y-60169795D01*
X78192386Y-60167320D01*
X78187983Y-60135783D01*
X78187662Y-60133298D01*
X78184291Y-60104986D01*
X78183948Y-60101741D01*
X78181635Y-60076723D01*
X78181326Y-60072658D01*
X78180008Y-60050463D01*
X78179814Y-60045570D01*
X78179420Y-60025697D01*
X78179435Y-60020124D01*
X78179890Y-60002018D01*
X78180190Y-59995964D01*
X78181456Y-59978890D01*
X78182070Y-59972717D01*
X78184164Y-59955923D01*
X78185047Y-59950004D01*
X78188064Y-59932669D01*
X78189116Y-59927325D01*
X78193191Y-59908775D01*
X78194273Y-59904254D01*
X78199562Y-59883858D01*
X78200554Y-59880257D01*
X78207162Y-59857606D01*
X78207983Y-59854907D01*
X78216305Y-59828620D01*
X78225708Y-59800463D01*
X78226876Y-59797130D01*
X78241034Y-59758506D01*
X78243648Y-59751957D01*
X78259682Y-59714886D01*
X78262495Y-59708835D01*
X78281016Y-59671644D01*
X78283995Y-59666029D01*
X78304924Y-59628902D01*
X78308039Y-59623679D01*
X78331268Y-59586822D01*
X78334506Y-59581944D01*
X78359954Y-59545501D01*
X78363305Y-59540928D01*
X78390859Y-59505079D01*
X78394325Y-59500772D01*
X78423828Y-59465737D01*
X78427411Y-59461667D01*
X78458819Y-59427519D01*
X78462531Y-59423654D01*
X78495642Y-59390639D01*
X78499494Y-59386960D01*
X78534243Y-59355168D01*
X78538250Y-59351656D01*
X78574445Y-59321292D01*
X78578629Y-59317934D01*
X78616196Y-59289093D01*
X78620577Y-59285879D01*
X78659342Y-59258732D01*
X78663944Y-59255661D01*
X78703770Y-59230341D01*
X78708621Y-59227410D01*
X78750079Y-59203640D01*
X78753738Y-59201623D01*
X78931823Y-59107343D01*
X78952990Y-58331232D01*
X78959516Y-58115294D01*
X78966165Y-57937882D01*
X78969679Y-57862123D01*
X78973393Y-57794203D01*
X78977367Y-57733512D01*
X78981657Y-57679447D01*
X78986183Y-57632801D01*
X78986475Y-57630108D01*
X78991200Y-57590583D01*
X78991654Y-57587183D01*
X78996668Y-57553238D01*
X78997354Y-57549081D01*
X79002644Y-57520113D01*
X79003648Y-57515185D01*
X79009173Y-57490615D01*
X79010586Y-57484955D01*
X79016330Y-57464057D01*
X79018199Y-57457890D01*
X79024219Y-57439737D01*
X79026498Y-57433438D01*
X79032809Y-57417369D01*
X79035645Y-57410726D01*
X79050908Y-57377664D01*
X79052829Y-57373689D01*
X79068803Y-57342094D01*
X79071079Y-57337803D01*
X79086984Y-57309186D01*
X79089696Y-57304547D01*
X79105407Y-57278957D01*
X79108646Y-57273955D01*
X79124067Y-57251350D01*
X79127961Y-57245958D01*
X79142910Y-57226388D01*
X79147599Y-57220617D01*
X79161892Y-57204065D01*
X79167542Y-57197950D01*
X79180994Y-57184337D01*
X79187813Y-57177938D01*
X79200185Y-57167176D01*
X79208356Y-57160652D01*
X79219433Y-57152549D01*
X79229145Y-57146122D01*
X79238756Y-57140392D01*
X79250134Y-57134386D01*
X79258199Y-57130650D01*
X79271231Y-57125486D01*
X79277830Y-57123294D01*
X79292253Y-57119450D01*
X79297697Y-57118345D01*
X79313142Y-57116210D01*
X79317943Y-57115852D01*
X79333749Y-57115684D01*
X79338544Y-57115939D01*
X79354017Y-57117742D01*
X79359488Y-57118731D01*
X79373981Y-57122262D01*
X79380630Y-57124313D01*
X79393726Y-57129176D01*
X79401851Y-57132726D01*
X79413335Y-57138470D01*
X79423052Y-57143976D01*
X79432890Y-57150177D01*
X79444103Y-57158003D01*
X79452393Y-57164324D01*
X79464942Y-57174754D01*
X79471885Y-57180980D01*
X79485557Y-57194202D01*
X79491334Y-57200176D01*
X79505906Y-57216293D01*
X79510715Y-57221943D01*
X79525988Y-57241014D01*
X79529993Y-57246299D01*
X79545773Y-57268320D01*
X79549126Y-57273245D01*
X79565279Y-57298241D01*
X79568097Y-57302816D01*
X79584475Y-57330744D01*
X79586847Y-57334977D01*
X79603351Y-57365826D01*
X79605366Y-57369759D01*
X79621879Y-57403460D01*
X79623596Y-57407113D01*
X79640081Y-57443727D01*
X79641549Y-57447121D01*
X79657595Y-57485801D01*
X79659403Y-57490419D01*
X79682198Y-57552244D01*
X79684541Y-57559230D01*
X79702123Y-57617341D01*
X79704051Y-57624477D01*
X79710742Y-57652524D01*
X79711827Y-57657528D01*
X79717782Y-57688017D01*
X79718922Y-57694867D01*
X79729514Y-57771765D01*
X79730262Y-57778587D01*
X79738368Y-57877791D01*
X79738641Y-57882023D01*
X79744866Y-58013457D01*
X79749703Y-58183655D01*
X79753797Y-58398264D01*
X79757965Y-58577309D01*
X79762671Y-58729325D01*
X79768122Y-58856039D01*
X79771192Y-58910466D01*
X79774524Y-58959199D01*
X79778147Y-59002495D01*
X79782088Y-59040565D01*
X79782277Y-59042101D01*
X79786358Y-59073511D01*
X79786684Y-59075599D01*
X79790753Y-59100212D01*
X79791308Y-59103154D01*
X79795615Y-59123347D01*
X79796599Y-59127314D01*
X79800680Y-59141709D01*
X79802585Y-59147375D01*
X79806231Y-59156704D01*
X79808865Y-59162533D01*
X79809236Y-59163252D01*
X79812027Y-59168109D01*
X79812308Y-59168550D01*
X79815424Y-59173001D01*
X79818049Y-59176421D01*
X79820540Y-59179458D01*
X79825430Y-59185049D01*
X79827304Y-59187098D01*
X79834937Y-59195082D01*
X79836379Y-59196518D01*
X79844912Y-59204853D01*
X79846582Y-59206401D01*
X79868524Y-59226344D01*
X79870233Y-59227816D01*
X79896230Y-59249778D01*
X79897617Y-59250899D01*
X79927077Y-59274369D01*
X79928366Y-59275356D01*
X79960116Y-59299332D01*
X79961378Y-59300247D01*
X79994394Y-59323882D01*
X79995815Y-59324856D01*
X80028962Y-59347232D01*
X80066524Y-59373468D01*
X80071319Y-59376994D01*
X80102935Y-59401433D01*
X80108233Y-59405767D01*
X80136271Y-59430026D01*
X80141915Y-59435224D01*
X80166553Y-59459362D01*
X80172385Y-59465478D01*
X80193977Y-59489728D01*
X80199762Y-59496725D01*
X80218607Y-59521297D01*
X80224110Y-59529074D01*
X80240573Y-59554345D01*
X80245551Y-59562683D01*
X80259926Y-59589055D01*
X80264208Y-59597695D01*
X80276741Y-59625664D01*
X80280227Y-59634296D01*
X80291057Y-59664320D01*
X80293735Y-59672658D01*
X80302945Y-59705232D01*
X80304881Y-59713037D01*
X80312466Y-59748505D01*
X80313772Y-59755623D01*
X80319710Y-59794307D01*
X80320518Y-59800658D01*
X80324775Y-59842797D01*
X80325210Y-59848351D01*
X80327763Y-59894097D01*
X80327938Y-59898877D01*
X80328824Y-59950481D01*
X80328986Y-59974141D01*
X80329458Y-59997322D01*
X80330221Y-60019885D01*
X80331252Y-60041713D01*
X80332531Y-60062676D01*
X80334039Y-60082639D01*
X80335753Y-60101475D01*
X80337655Y-60119046D01*
X80339727Y-60135232D01*
X80339909Y-60136466D01*
X80341915Y-60149677D01*
X80342216Y-60151415D01*
X80344248Y-60162605D01*
X80344717Y-60164845D01*
X80346294Y-60171968D01*
X80347115Y-60175300D01*
X80348542Y-60180497D01*
X80350052Y-60185240D01*
X80350742Y-60187139D01*
X80352483Y-60191282D01*
X80354500Y-60195000D01*
X80355719Y-60196452D01*
X80357047Y-60197425D01*
X80369840Y-60194469D01*
X80397317Y-60181839D01*
X80400754Y-60180128D01*
X80499315Y-60127202D01*
X80500836Y-60126343D01*
X80642983Y-60044754D01*
X80815225Y-59942541D01*
X81001180Y-59829419D01*
X81186023Y-59714229D01*
X81354909Y-59605818D01*
X81355995Y-59605096D01*
X81492990Y-59513037D01*
X81494388Y-59512056D01*
X81643889Y-59405545D01*
X81644996Y-59404728D01*
X81792334Y-59294715D01*
X81793415Y-59293878D01*
X81938350Y-59180515D01*
X81939454Y-59179622D01*
X82081964Y-59062915D01*
X82082996Y-59062040D01*
X82223200Y-58941884D01*
X82224236Y-58940965D01*
X82362084Y-58817390D01*
X82363089Y-58816458D01*
X82498644Y-58689403D01*
X82499634Y-58688443D01*
X82632904Y-58557892D01*
X82633864Y-58556920D01*
X82764890Y-58422825D01*
X82765813Y-58421849D01*
X82894628Y-58284172D01*
X82895497Y-58283212D01*
X83022144Y-58141902D01*
X83023022Y-58140890D01*
X83147464Y-57995983D01*
X83148298Y-57994981D01*
X83270613Y-57846385D01*
X83271400Y-57845398D01*
X83391618Y-57693077D01*
X83392382Y-57692078D01*
X83510504Y-57536027D01*
X83627307Y-57375193D01*
X83832326Y-57081504D01*
X84018002Y-56804967D01*
X84018713Y-56803872D01*
X84183169Y-56547535D01*
X84183976Y-56546225D01*
X84326678Y-56311139D01*
X84327381Y-56309937D01*
X84389947Y-56201440D01*
X84447376Y-56097712D01*
X84447961Y-56096617D01*
X84498792Y-56000251D01*
X84499442Y-55998962D01*
X84544077Y-55909248D01*
X84544828Y-55907654D01*
X84583079Y-55824963D01*
X84583935Y-55822980D01*
X84615130Y-55748880D01*
X84616115Y-55746390D01*
X84641041Y-55679168D01*
X84642173Y-55675827D01*
X84660354Y-55616733D01*
X84661397Y-55612919D01*
X84670337Y-55575656D01*
X84671101Y-55571984D01*
X84678880Y-55527927D01*
X84679316Y-55525078D01*
X84686011Y-55473341D01*
X84686238Y-55471103D01*
X84691290Y-55416185D01*
X84691483Y-55413453D01*
X84697762Y-55284927D01*
X84697837Y-55282106D01*
X84698417Y-55136389D01*
X84698364Y-55134113D01*
X84693215Y-54977191D01*
X84693100Y-54975178D01*
X84682267Y-54809684D01*
X84682096Y-54807759D01*
X84665613Y-54637629D01*
X84665375Y-54635668D01*
X84643471Y-54466138D01*
X84643064Y-54463451D01*
X84583679Y-54122190D01*
X84583193Y-54119698D01*
X84489397Y-53685811D01*
X84489050Y-53684339D01*
X84370197Y-53192804D01*
X84234955Y-52675318D01*
X84092769Y-52166768D01*
X83952732Y-51700549D01*
X83952220Y-51698961D01*
X83823943Y-51310074D01*
X83823258Y-51308157D01*
X83766606Y-51153673D01*
X83765759Y-51151548D01*
X83715492Y-51028733D01*
X83714498Y-51026496D01*
X83642194Y-50867985D01*
X83563351Y-50702018D01*
X83480216Y-50533005D01*
X83394020Y-50363081D01*
X83217410Y-50029099D01*
X83216735Y-50027872D01*
X83043450Y-49717282D01*
X82960553Y-49575041D01*
X82882048Y-49444807D01*
X82809159Y-49328700D01*
X82808356Y-49327470D01*
X82743147Y-49228905D01*
X82741933Y-49227169D01*
X82686232Y-49148940D01*
X82684156Y-49146189D01*
X82638789Y-49089421D01*
X82634228Y-49084317D01*
X82598659Y-49048698D01*
X82584021Y-49038874D01*
X82572490Y-49035538D01*
X82572045Y-49035557D01*
X82568738Y-49035817D01*
X82564083Y-49036575D01*
X82563617Y-49036673D01*
X82557790Y-49038202D01*
X82556164Y-49038714D01*
X82551737Y-49040296D01*
X82548441Y-49041618D01*
X82544985Y-49043128D01*
X82540485Y-49045261D01*
X82537655Y-49046692D01*
X82532283Y-49049580D01*
X82529892Y-49050934D01*
X82522789Y-49055163D01*
X82520802Y-49056424D01*
X82514283Y-49060674D01*
X82512530Y-49061874D01*
X82505611Y-49066723D01*
X82504055Y-49067864D01*
X82496837Y-49073262D01*
X82495383Y-49074396D01*
X82488021Y-49080246D01*
X82486672Y-49081361D01*
X82479225Y-49087628D01*
X82477933Y-49088758D01*
X82470513Y-49095361D01*
X82469276Y-49096507D01*
X82461945Y-49103400D01*
X82460701Y-49104617D01*
X82453583Y-49111696D01*
X82452333Y-49112992D01*
X82445491Y-49120205D01*
X82364351Y-49208398D01*
X82476636Y-49478585D01*
X82477810Y-49481515D01*
X82514488Y-49576529D01*
X82516787Y-49583016D01*
X82546759Y-49675659D01*
X82548769Y-49682543D01*
X82572718Y-49774397D01*
X82574376Y-49781642D01*
X82592362Y-49872655D01*
X82593615Y-49880218D01*
X82605709Y-49970425D01*
X82606507Y-49978246D01*
X82612767Y-50067705D01*
X82613067Y-50075711D01*
X82613532Y-50164376D01*
X82613310Y-50172479D01*
X82608012Y-50260463D01*
X82607255Y-50268576D01*
X82596208Y-50355884D01*
X82594923Y-50363914D01*
X82578123Y-50450587D01*
X82576334Y-50458442D01*
X82553753Y-50544559D01*
X82551498Y-50552160D01*
X82523111Y-50637708D01*
X82520441Y-50644985D01*
X82486190Y-50730019D01*
X82483164Y-50736919D01*
X82443020Y-50821383D01*
X82439702Y-50827866D01*
X82393583Y-50911803D01*
X82390038Y-50917844D01*
X82338349Y-51000488D01*
X82333672Y-51007433D01*
X82273932Y-51089981D01*
X82268776Y-51096619D01*
X82200771Y-51178306D01*
X82195752Y-51183975D01*
X82119856Y-51264580D01*
X82114980Y-51269476D01*
X82031911Y-51348389D01*
X82027161Y-51352675D01*
X81937704Y-51429278D01*
X81933046Y-51433075D01*
X81837892Y-51506875D01*
X81833281Y-51510283D01*
X81733255Y-51580706D01*
X81728644Y-51583800D01*
X81624500Y-51650354D01*
X81619829Y-51653196D01*
X81512338Y-51715392D01*
X81507550Y-51718024D01*
X81397501Y-51775384D01*
X81392524Y-51777838D01*
X81280686Y-51829907D01*
X81275445Y-51832201D01*
X81162662Y-51878506D01*
X81157072Y-51880645D01*
X81044123Y-51920766D01*
X81038084Y-51922739D01*
X80925799Y-51956255D01*
X80919197Y-51958028D01*
X80808415Y-51984545D01*
X80801120Y-51986062D01*
X80691464Y-52005432D01*
X80685822Y-52006295D01*
X80610932Y-52015995D01*
X80608245Y-52016313D01*
X80573728Y-52020020D01*
X80541145Y-52022895D01*
X80538457Y-52023101D01*
X80508942Y-52025038D01*
X80505777Y-52025205D01*
X80477873Y-52026321D01*
X80474388Y-52026411D01*
X80447570Y-52026729D01*
X80443871Y-52026718D01*
X80417562Y-52026245D01*
X80413806Y-52026120D01*
X80387566Y-52024852D01*
X80383890Y-52024620D01*
X80357158Y-52022531D01*
X80353706Y-52022213D01*
X80325957Y-52019262D01*
X80322843Y-52018891D01*
X80293616Y-52015033D01*
X80290905Y-52014644D01*
X80258700Y-52009667D01*
X80224550Y-52003738D01*
X80222053Y-52003277D01*
X80145380Y-51988289D01*
X80087316Y-51976009D01*
X80084691Y-51975423D01*
X80028131Y-51962158D01*
X80025523Y-51961517D01*
X79969321Y-51947045D01*
X79966756Y-51946355D01*
X79910772Y-51930653D01*
X79908245Y-51929915D01*
X79852616Y-51913031D01*
X79850132Y-51912249D01*
X79794801Y-51894178D01*
X79792359Y-51893352D01*
X79737433Y-51874141D01*
X79735024Y-51873270D01*
X79680444Y-51852905D01*
X79678076Y-51851994D01*
X79623978Y-51830538D01*
X79621649Y-51829587D01*
X79567900Y-51806997D01*
X79565600Y-51806003D01*
X79512398Y-51782367D01*
X79510138Y-51781336D01*
X79456306Y-51756117D01*
X79454027Y-51755021D01*
X79401846Y-51729265D01*
X79348023Y-51701385D01*
X79294805Y-51672468D01*
X79244975Y-51644106D01*
X79239660Y-51640899D01*
X79190035Y-51609236D01*
X79184931Y-51605798D01*
X79130032Y-51566807D01*
X79126253Y-51564014D01*
X79066724Y-51518245D01*
X79063755Y-51515889D01*
X79001002Y-51464514D01*
X78998546Y-51462450D01*
X78933660Y-51406464D01*
X78931527Y-51404581D01*
X78865703Y-51345097D01*
X78863774Y-51343315D01*
X78798047Y-51281340D01*
X78796222Y-51279584D01*
X78731670Y-51216177D01*
X78729870Y-51214372D01*
X78667422Y-51150457D01*
X78665571Y-51148522D01*
X78606326Y-51085206D01*
X78604343Y-51083036D01*
X78549367Y-51021417D01*
X78547152Y-51018864D01*
X78497464Y-50960019D01*
X78494876Y-50956850D01*
X78451622Y-50902055D01*
X78448472Y-50897887D01*
X78412851Y-50848629D01*
X78408836Y-50842726D01*
X78382225Y-50801073D01*
X78376910Y-50791914D01*
X78358848Y-50757480D01*
X78355034Y-50749534D01*
X78328079Y-50687852D01*
X78325790Y-50682245D01*
X78301648Y-50618714D01*
X78299614Y-50612935D01*
X78278853Y-50548946D01*
X78277091Y-50543018D01*
X78259655Y-50478477D01*
X78258184Y-50472434D01*
X78244071Y-50407399D01*
X78242904Y-50401279D01*
X78232102Y-50335778D01*
X78231243Y-50329613D01*
X78223730Y-50263551D01*
X78223185Y-50257389D01*
X78218966Y-50190881D01*
X78218939Y-50190191D01*
X78515143Y-50190191D01*
X78515292Y-50224075D01*
X78516053Y-50255714D01*
X78516114Y-50257112D01*
X78517476Y-50285309D01*
X78517600Y-50287095D01*
X78519625Y-50313356D01*
X78519829Y-50315363D01*
X78522554Y-50340065D01*
X78522864Y-50342321D01*
X78526321Y-50365730D01*
X78526743Y-50368120D01*
X78530735Y-50389343D01*
X78531263Y-50391878D01*
X78536310Y-50413878D01*
X78536926Y-50416334D01*
X78543211Y-50439408D01*
X78543912Y-50441717D01*
X78550895Y-50463843D01*
X78551617Y-50465944D01*
X78559699Y-50488707D01*
X78560398Y-50490541D01*
X78569682Y-50514295D01*
X78570321Y-50515839D01*
X78580900Y-50540901D01*
X78581458Y-50542165D01*
X78593410Y-50568819D01*
X78606494Y-50596696D01*
X78608130Y-50599930D01*
X78629260Y-50638828D01*
X78631096Y-50641983D01*
X78656725Y-50683190D01*
X78658408Y-50685755D01*
X78688516Y-50729248D01*
X78690022Y-50731329D01*
X78725008Y-50777599D01*
X78726424Y-50779370D01*
X78764572Y-50826134D01*
X78765877Y-50827658D01*
X78807690Y-50875660D01*
X78808904Y-50876994D01*
X78854117Y-50925931D01*
X78855274Y-50927134D01*
X78903602Y-50976698D01*
X78904716Y-50977799D01*
X78955899Y-51027713D01*
X78956977Y-51028728D01*
X79010758Y-51078728D01*
X79011812Y-51079675D01*
X79067933Y-51129495D01*
X79068994Y-51130406D01*
X79127175Y-51179766D01*
X79128260Y-51180657D01*
X79188236Y-51229292D01*
X79189293Y-51230120D01*
X79250868Y-51277827D01*
X79252000Y-51278675D01*
X79314823Y-51325122D01*
X79315979Y-51325947D01*
X79378470Y-51369955D01*
X79381275Y-51371820D01*
X79510085Y-51452587D01*
X79513955Y-51454824D01*
X79644212Y-51523959D01*
X79648383Y-51525977D01*
X79780249Y-51583777D01*
X79784729Y-51585537D01*
X79918001Y-51632056D01*
X79922683Y-51633485D01*
X80057187Y-51668775D01*
X80062079Y-51669849D01*
X80197596Y-51693938D01*
X80202596Y-51694618D01*
X80338976Y-51707536D01*
X80344015Y-51707807D01*
X80481102Y-51709561D01*
X80486100Y-51709423D01*
X80623705Y-51700005D01*
X80628617Y-51699471D01*
X80766550Y-51678863D01*
X80771313Y-51677959D01*
X80909408Y-51646125D01*
X80913933Y-51644899D01*
X81051997Y-51601791D01*
X81056285Y-51600277D01*
X81194084Y-51545861D01*
X81198102Y-51544108D01*
X81335427Y-51478327D01*
X81339143Y-51476390D01*
X81475799Y-51399179D01*
X81479162Y-51397133D01*
X81614909Y-51308440D01*
X81617963Y-51306309D01*
X81705042Y-51241573D01*
X81707829Y-51239374D01*
X81789808Y-51170781D01*
X81792477Y-51168413D01*
X81869081Y-51096378D01*
X81871626Y-51093840D01*
X81942690Y-51018697D01*
X81945111Y-51015979D01*
X82010423Y-50938120D01*
X82012756Y-50935160D01*
X82072171Y-50854905D01*
X82074339Y-50851778D01*
X82127681Y-50769487D01*
X82129727Y-50766098D01*
X82176826Y-50682134D01*
X82178693Y-50678533D01*
X82219399Y-50593236D01*
X82221088Y-50589362D01*
X82255231Y-50503120D01*
X82256706Y-50498971D01*
X82284159Y-50412082D01*
X82285367Y-50407702D01*
X82305978Y-50320544D01*
X82306899Y-50315848D01*
X82320530Y-50228774D01*
X82321103Y-50223823D01*
X82327632Y-50137103D01*
X82327804Y-50131967D01*
X82327099Y-50045919D01*
X82326824Y-50040570D01*
X82318727Y-49955262D01*
X82318051Y-49950283D01*
X82311991Y-49916072D01*
X82311356Y-49912950D01*
X82302419Y-49874103D01*
X82301813Y-49871693D01*
X82290035Y-49828552D01*
X82289439Y-49826567D01*
X82275661Y-49782105D01*
X82275086Y-49780379D01*
X82259283Y-49734170D01*
X82258731Y-49732652D01*
X82241162Y-49685367D01*
X82240606Y-49683950D01*
X82221564Y-49636316D01*
X82220990Y-49634952D01*
X82200751Y-49587636D01*
X82200130Y-49586253D01*
X82178988Y-49539949D01*
X82178320Y-49538557D01*
X82156537Y-49493875D01*
X82155754Y-49492349D01*
X82133662Y-49450032D01*
X82132726Y-49448336D01*
X82110627Y-49409042D01*
X82109462Y-49407097D01*
X82088440Y-49372741D01*
X82086918Y-49370373D01*
X82066143Y-49339600D01*
X82064029Y-49336659D01*
X82044715Y-49311377D01*
X82041523Y-49307529D01*
X82023674Y-49287695D01*
X82020517Y-49284437D01*
X82011159Y-49275462D01*
X82008311Y-49272894D01*
X81999418Y-49265358D01*
X81995112Y-49262024D01*
X81986898Y-49256221D01*
X81981364Y-49252734D01*
X81972753Y-49247923D01*
X81966663Y-49244944D01*
X81956279Y-49240552D01*
X81950454Y-49238426D01*
X81936960Y-49234255D01*
X81931927Y-49232929D01*
X81914336Y-49229075D01*
X81910284Y-49228326D01*
X81887846Y-49224943D01*
X81884828Y-49224564D01*
X81855888Y-49221666D01*
X81853625Y-49221502D01*
X81820344Y-49219418D01*
X81818090Y-49219338D01*
X81731446Y-49217054D01*
X81729772Y-49217043D01*
X81614603Y-49217089D01*
X81464761Y-49218984D01*
X81020634Y-49225743D01*
X80564799Y-49237339D01*
X80118308Y-49252656D01*
X79702201Y-49270577D01*
X79337524Y-49289986D01*
X79045315Y-49309768D01*
X79043589Y-49309921D01*
X78848404Y-49328635D01*
X78844870Y-49329076D01*
X78788921Y-49337698D01*
X78762491Y-49345982D01*
X78742894Y-49366143D01*
X78724368Y-49391907D01*
X78721172Y-49396827D01*
X78703040Y-49427849D01*
X78701109Y-49431418D01*
X78681925Y-49469849D01*
X78680623Y-49472630D01*
X78660593Y-49518290D01*
X78659668Y-49520582D01*
X78640328Y-49569970D01*
X78639616Y-49571928D01*
X78620703Y-49625411D01*
X78620134Y-49627140D01*
X78601977Y-49683768D01*
X78601491Y-49685399D01*
X78584409Y-49744191D01*
X78583971Y-49745815D01*
X78568257Y-49805835D01*
X78567869Y-49807447D01*
X78553779Y-49867850D01*
X78553416Y-49869567D01*
X78541233Y-49929390D01*
X78540893Y-49931278D01*
X78530879Y-49989606D01*
X78530571Y-49991733D01*
X78523150Y-50046363D01*
X78522855Y-50048915D01*
X78517925Y-50101122D01*
X78517709Y-50104258D01*
X78515547Y-50153845D01*
X78515509Y-50155855D01*
X78515143Y-50190191D01*
X78218939Y-50190191D01*
X78218729Y-50184749D01*
X78217800Y-50117686D01*
X78217864Y-50111627D01*
X78220231Y-50044059D01*
X78220584Y-50038099D01*
X78226255Y-49970071D01*
X78226879Y-49964245D01*
X78235873Y-49895676D01*
X78236751Y-49890008D01*
X78249072Y-49821002D01*
X78250181Y-49815509D01*
X78265856Y-49746026D01*
X78267174Y-49740729D01*
X78286216Y-49670812D01*
X78287720Y-49665723D01*
X78310935Y-49592926D01*
X78323837Y-49554554D01*
X78334688Y-49520051D01*
X78335168Y-49518392D01*
X78343398Y-49489229D01*
X78343861Y-49487438D01*
X78346955Y-49475034D01*
X78347310Y-49473498D01*
X78349961Y-49461628D01*
X78350319Y-49459849D01*
X78352409Y-49448977D01*
X78352764Y-49446847D01*
X78354078Y-49438408D01*
X78354435Y-49435801D01*
X78355429Y-49427268D01*
X78355702Y-49424307D01*
X78356209Y-49416925D01*
X78356351Y-49413479D01*
X78356439Y-49407169D01*
X78356370Y-49403266D01*
X78356114Y-49398030D01*
X78355743Y-49393619D01*
X78355234Y-49389381D01*
X78354466Y-49384581D01*
X78353788Y-49381204D01*
X78352528Y-49376077D01*
X78351762Y-49373449D01*
X78349938Y-49368116D01*
X78349119Y-49366034D01*
X78346730Y-49360711D01*
X78345809Y-49358894D01*
X78342927Y-49353814D01*
X78341810Y-49352046D01*
X78338548Y-49347371D01*
X78337070Y-49345447D01*
X78333626Y-49341344D01*
X78331584Y-49339115D01*
X78328113Y-49335617D01*
X78325357Y-49333052D01*
X78322028Y-49330168D01*
X78318397Y-49327243D01*
X78315307Y-49324911D01*
X78310724Y-49321673D01*
X78307930Y-49319812D01*
X78302331Y-49316299D01*
X78299882Y-49314841D01*
X78292204Y-49310508D01*
X78290044Y-49309372D01*
X78282576Y-49305565D01*
X78280733Y-49304676D01*
X78272234Y-49300678D01*
X78270690Y-49299986D01*
X78261172Y-49295813D01*
X78259384Y-49295076D01*
X78238737Y-49286769D01*
X78234983Y-49285183D01*
X78230407Y-49283161D01*
X78223254Y-49279723D01*
X78219465Y-49277750D01*
X78213511Y-49274438D01*
X78208527Y-49271484D01*
X78203384Y-49268263D01*
X78197581Y-49264428D01*
X78193097Y-49261321D01*
X78186633Y-49256628D01*
X78182630Y-49253596D01*
X78175837Y-49248231D01*
X78172192Y-49245239D01*
X78165142Y-49239222D01*
X78161764Y-49236230D01*
X78154679Y-49229723D01*
X78151506Y-49226704D01*
X78144490Y-49219788D01*
X78141443Y-49216677D01*
X78134680Y-49209525D01*
X78131708Y-49206268D01*
X78125258Y-49198942D01*
X78122327Y-49195488D01*
X78116313Y-49188132D01*
X78113373Y-49184391D01*
X78107936Y-49177194D01*
X78104965Y-49173089D01*
X78100176Y-49166180D01*
X78097152Y-49161606D01*
X78093122Y-49155205D01*
X78090034Y-49150024D01*
X78086845Y-49144366D01*
X78083643Y-49138298D01*
X78076476Y-49123756D01*
X78069700Y-49109370D01*
X78068266Y-49106199D01*
X78063684Y-49095675D01*
X78061647Y-49090704D01*
X78058762Y-49083206D01*
X78056310Y-49076216D01*
X78054623Y-49070905D01*
X78052454Y-49003504D01*
X78053482Y-48999361D01*
X78055719Y-48991469D01*
X78057922Y-48984577D01*
X78059952Y-48978734D01*
X78063699Y-48968757D01*
X78065326Y-48964647D01*
X78070740Y-48951658D01*
X78071918Y-48948925D01*
X78079384Y-48932158D01*
X78088720Y-48911994D01*
X78095685Y-48897530D01*
X78097736Y-48893473D01*
X78103540Y-48882497D01*
X78106201Y-48877723D01*
X78111614Y-48868495D01*
X78114919Y-48863173D01*
X78119916Y-48855563D01*
X78123974Y-48849752D01*
X78128592Y-48843526D01*
X78133427Y-48837419D01*
X78137675Y-48832386D01*
X78143337Y-48826123D01*
X78147354Y-48821973D01*
X78153692Y-48815874D01*
X78157672Y-48812307D01*
X78164536Y-48806587D01*
X78168774Y-48803307D01*
X78175946Y-48798154D01*
X78180719Y-48794976D01*
X78187933Y-48790521D01*
X78193622Y-48787271D01*
X78200597Y-48783576D01*
X78207485Y-48780203D01*
X78214031Y-48777229D01*
X78222394Y-48773719D01*
X78228359Y-48771395D01*
X78238392Y-48767781D01*
X78243688Y-48766007D01*
X78255436Y-48762364D01*
X78260039Y-48761033D01*
X78267421Y-48759053D01*
X78284130Y-48755782D01*
X78332858Y-48749677D01*
X78339015Y-48749061D01*
X78457628Y-48740180D01*
X78460131Y-48740018D01*
X78863032Y-48718038D01*
X79428580Y-48693344D01*
X80095990Y-48668649D01*
X80701218Y-48647848D01*
X81184034Y-48629899D01*
X81557297Y-48614017D01*
X81706866Y-48606605D01*
X81833865Y-48599416D01*
X81939908Y-48592351D01*
X82026606Y-48585310D01*
X82027960Y-48585179D01*
X82095528Y-48578201D01*
X82097613Y-48577931D01*
X82147029Y-48571098D01*
X82149601Y-48570691D01*
X82169182Y-48567183D01*
X82171518Y-48566695D01*
X82184910Y-48563740D01*
X82188178Y-48562933D01*
X82198499Y-48560091D01*
X82203023Y-48558657D01*
X82208586Y-48556658D01*
X82215155Y-48553861D01*
X82220277Y-48551322D01*
X82225976Y-48547068D01*
X82229249Y-48542671D01*
X82230295Y-48538121D01*
X82228708Y-48533768D01*
X82225443Y-48528409D01*
X82222487Y-48523994D01*
X82206992Y-48502865D01*
X82205382Y-48500765D01*
X82178020Y-48466622D01*
X82177172Y-48465599D01*
X82140778Y-48422146D01*
X82095751Y-48369882D01*
X82044254Y-48311399D01*
X81987542Y-48248197D01*
X81926902Y-48181810D01*
X81761109Y-48005183D01*
X81760154Y-48004199D01*
X81595220Y-47836053D01*
X81594203Y-47835053D01*
X81428387Y-47673801D01*
X81427241Y-47672727D01*
X81259771Y-47517823D01*
X81258575Y-47516760D01*
X81088530Y-47367508D01*
X81087244Y-47366424D01*
X80913822Y-47222247D01*
X80912533Y-47221220D01*
X80734804Y-47081431D01*
X80733463Y-47080420D01*
X80550633Y-46944449D01*
X80549272Y-46943478D01*
X80360468Y-46810691D01*
X80359153Y-46809803D01*
X80163467Y-46679549D01*
X80162185Y-46678729D01*
X79958786Y-46550411D01*
X79957557Y-46549664D01*
X79745583Y-46422669D01*
X79744438Y-46422008D01*
X79523017Y-46295712D01*
X79290235Y-46168925D01*
X79288803Y-46168180D01*
X78790713Y-45913456D01*
X78789082Y-45912666D01*
X78364327Y-45710849D01*
X78362521Y-45710044D01*
X77947409Y-45528872D01*
X77945434Y-45528071D01*
X77539503Y-45367318D01*
X77537898Y-45366720D01*
X77338787Y-45294135D01*
X77140141Y-45225974D01*
X76943533Y-45162822D01*
X76942328Y-45162455D01*
X76748909Y-45104650D01*
X76747646Y-45104293D01*
X76556182Y-45051424D01*
X76554897Y-45051091D01*
X76365311Y-45003123D01*
X76363966Y-45002806D01*
X76176238Y-44959721D01*
X76174854Y-44959428D01*
X75988907Y-44921192D01*
X75987507Y-44920930D01*
X75803260Y-44887510D01*
X75801775Y-44887267D01*
X75619241Y-44858650D01*
X75617256Y-44858388D01*
X75454469Y-44838255D01*
X75452493Y-44838058D01*
X75252903Y-44819844D01*
X75251609Y-44819746D01*
X75029013Y-44804080D01*
X74797260Y-44791622D01*
X74572130Y-44783133D01*
X74368079Y-44779275D01*
X74366380Y-44779277D01*
X74199600Y-44780708D01*
X74197435Y-44780784D01*
X74134531Y-44783557D01*
X74131908Y-44783727D01*
X74082406Y-44787984D01*
X74079860Y-44788256D01*
X73690945Y-44837924D01*
X73689499Y-44838134D01*
X73511622Y-44865113D01*
X73340888Y-44894372D01*
X73339564Y-44894622D01*
X73177356Y-44926105D01*
X73175861Y-44926423D01*
X73019551Y-44960735D01*
X73017953Y-44961118D01*
X72866056Y-44998673D01*
X72864424Y-44999112D01*
X72715439Y-45040331D01*
X72713789Y-45040825D01*
X72566269Y-45086123D01*
X72564634Y-45086663D01*
X72417114Y-45136462D01*
X72415553Y-45137023D01*
X72266544Y-45191763D01*
X72265110Y-45192319D01*
X72113126Y-45252438D01*
X72111870Y-45252959D01*
X71955429Y-45318901D01*
X71792007Y-45391571D01*
X71790702Y-45392180D01*
X71442352Y-45557149D01*
X71362081Y-45597051D01*
X71286576Y-45634156D01*
X71156600Y-45696939D01*
X71105621Y-45721038D01*
X71066301Y-45739223D01*
X71042258Y-45749878D01*
X71038516Y-45751460D01*
X71034080Y-45753251D01*
X71030609Y-45754592D01*
X71026063Y-45756270D01*
X70788721Y-45861201D01*
X70258781Y-46103957D01*
X69689157Y-46367878D01*
X69331523Y-46536782D01*
X69326990Y-46539156D01*
X69185025Y-46621075D01*
X69179094Y-46624966D01*
X69040310Y-46727831D01*
X69035412Y-46731865D01*
X68898640Y-46856754D01*
X68894712Y-46860679D01*
X68760022Y-47007910D01*
X68756875Y-47011633D01*
X68624357Y-47181452D01*
X68621865Y-47184880D01*
X68491603Y-47377466D01*
X68489624Y-47380587D01*
X68361669Y-47596108D01*
X68360099Y-47598912D01*
X68234494Y-47837494D01*
X68233241Y-47840008D01*
X68109474Y-48102892D01*
X68108510Y-48105106D01*
X67987694Y-48390093D01*
X67986915Y-48392069D01*
X67868435Y-48700485D01*
X67867807Y-48702238D01*
X67751636Y-49034215D01*
X67751113Y-49035809D01*
X67637234Y-49391427D01*
X67636811Y-49392833D01*
X67525169Y-49772265D01*
X67524827Y-49773502D01*
X67415377Y-50176874D01*
X67307795Y-50605406D01*
X67211625Y-51014117D01*
X67125475Y-51406051D01*
X67049277Y-51782038D01*
X66982965Y-52142912D01*
X66982756Y-52144154D01*
X66926472Y-52489492D01*
X66926276Y-52490839D01*
X66879730Y-52822629D01*
X66879550Y-52824112D01*
X66842672Y-53143146D01*
X66842515Y-53144791D01*
X66815231Y-53451875D01*
X66815111Y-53453657D01*
X66797340Y-53749650D01*
X66797270Y-53751549D01*
X66788931Y-54037300D01*
X66788922Y-54039332D01*
X66185381Y-54039332D01*
X66185395Y-54037296D01*
X66187166Y-53775555D01*
X66187226Y-53772449D01*
X66195500Y-53512530D01*
X66195709Y-53508265D01*
X66210452Y-53286074D01*
X66211016Y-53279908D01*
X66282129Y-52670657D01*
X66282741Y-52666140D01*
X66381395Y-52026201D01*
X66382067Y-52022264D01*
X66505056Y-51365675D01*
X66505794Y-51362035D01*
X66649918Y-50702430D01*
X66650753Y-50698864D01*
X66812770Y-50049918D01*
X66813756Y-50046211D01*
X66990436Y-49421444D01*
X66991670Y-49417353D01*
X67179666Y-48830575D01*
X67181313Y-48825773D01*
X67377673Y-48289505D01*
X67379098Y-48285799D01*
X67447292Y-48116552D01*
X67514140Y-47956027D01*
X67579281Y-47805415D01*
X67643106Y-47664049D01*
X67705435Y-47532452D01*
X67706553Y-47530153D01*
X67767693Y-47407703D01*
X67769013Y-47405134D01*
X67829809Y-47290154D01*
X67831337Y-47287353D01*
X67892099Y-47179264D01*
X67893847Y-47176255D01*
X67955069Y-47074163D01*
X67957030Y-47071001D01*
X68019023Y-46974323D01*
X68021186Y-46971064D01*
X68084370Y-46879050D01*
X68086704Y-46875767D01*
X68151559Y-46787600D01*
X68154015Y-46784373D01*
X68220915Y-46699395D01*
X68223439Y-46696293D01*
X68292874Y-46613720D01*
X68295396Y-46610813D01*
X68367831Y-46529908D01*
X68370282Y-46527250D01*
X68445767Y-46447730D01*
X68448806Y-46444638D01*
X68549426Y-46345801D01*
X68552110Y-46343243D01*
X68598663Y-46300173D01*
X68601022Y-46298046D01*
X68646706Y-46257902D01*
X68649487Y-46255530D01*
X68694688Y-46218113D01*
X68697818Y-46215606D01*
X68743332Y-46180347D01*
X68746708Y-46177822D01*
X68793357Y-46144157D01*
X68796832Y-46141739D01*
X68845526Y-46109067D01*
X68848947Y-46106852D01*
X68900575Y-46074620D01*
X68903799Y-46072674D01*
X68959093Y-46040444D01*
X68962015Y-46038794D01*
X69021880Y-46006037D01*
X69024427Y-46004681D01*
X69089212Y-45971167D01*
X69092268Y-45969640D01*
X69242032Y-45897323D01*
X69244804Y-45896026D01*
X69424463Y-45814679D01*
X69635029Y-45721136D01*
X69881314Y-45608743D01*
X70132887Y-45491720D01*
X70359327Y-45384288D01*
X70706701Y-45219503D01*
X71032249Y-45067449D01*
X71332662Y-44929619D01*
X71604632Y-44807496D01*
X71844853Y-44702571D01*
X72048828Y-44616832D01*
X72051211Y-44615859D01*
X72214729Y-44551096D01*
X72218923Y-44549522D01*
X72338457Y-44507106D01*
X72345491Y-44504844D01*
X72488470Y-44463515D01*
X72491757Y-44462613D01*
X72664286Y-44417843D01*
X72666699Y-44417243D01*
X72855656Y-44372234D01*
X73055438Y-44328158D01*
X73254897Y-44287554D01*
X73443848Y-44252625D01*
X73446626Y-44252145D01*
X73615687Y-44224871D01*
X73619813Y-44224276D01*
X73761017Y-44206342D01*
X73766248Y-44205790D01*
X73926785Y-44192289D01*
X73930814Y-44192016D01*
X74120498Y-44182270D01*
X74123381Y-44182156D01*
X74333891Y-44176245D01*
X74555629Y-44174260D01*
X74778015Y-44176245D01*
G37*
G36*
X75452155Y-48932695D02*
G01*
X75454813Y-48932743D01*
X75487502Y-48933694D01*
X75490629Y-48933825D01*
X75520808Y-48935466D01*
X75524370Y-48935711D01*
X75552180Y-48938028D01*
X75556236Y-48938433D01*
X75581623Y-48941391D01*
X75586225Y-48942015D01*
X75609171Y-48945564D01*
X75614380Y-48946484D01*
X75634892Y-48950559D01*
X75640736Y-48951867D01*
X75658848Y-48956384D01*
X75665377Y-48958203D01*
X75681075Y-48963043D01*
X75688286Y-48965512D01*
X75701643Y-48970548D01*
X75709487Y-48973817D01*
X75720647Y-48978923D01*
X75729008Y-48983137D01*
X75738144Y-48988183D01*
X75746866Y-48993480D01*
X75754263Y-48998400D01*
X75763062Y-49004827D01*
X75769037Y-49009608D01*
X75777605Y-49017136D01*
X75782547Y-49021898D01*
X75790557Y-49030378D01*
X75794812Y-49035330D01*
X75801988Y-49044523D01*
X75805856Y-49049990D01*
X75811972Y-49059531D01*
X75815642Y-49065877D01*
X75820630Y-49075438D01*
X75824172Y-49083014D01*
X75828055Y-49092283D01*
X75831446Y-49101395D01*
X75834330Y-49110118D01*
X75837484Y-49120998D01*
X75839519Y-49129010D01*
X75842313Y-49141775D01*
X75843673Y-49149011D01*
X75845987Y-49163715D01*
X75846830Y-49170166D01*
X75848568Y-49186878D01*
X75849026Y-49192538D01*
X75850106Y-49211195D01*
X75850293Y-49216137D01*
X75850653Y-49236202D01*
X75850635Y-49241489D01*
X75850498Y-49247033D01*
X75850203Y-49253051D01*
X75849818Y-49258294D01*
X75849241Y-49264209D01*
X75848593Y-49269528D01*
X75847750Y-49275307D01*
X75846834Y-49280697D01*
X75845756Y-49286267D01*
X75844568Y-49291731D01*
X75843250Y-49297194D01*
X75841772Y-49302763D01*
X75840254Y-49308013D01*
X75838499Y-49313617D01*
X75836779Y-49318718D01*
X75834732Y-49324380D01*
X75832834Y-49329299D01*
X75830496Y-49334996D01*
X75828417Y-49339776D01*
X75825801Y-49345458D01*
X75823565Y-49350060D01*
X75820652Y-49355756D01*
X75818278Y-49360175D01*
X75815086Y-49365839D01*
X75812572Y-49370100D01*
X75809090Y-49375740D01*
X75806423Y-49379875D01*
X75802690Y-49385417D01*
X75799891Y-49389401D01*
X75795879Y-49394880D01*
X75792961Y-49398707D01*
X75788684Y-49404096D01*
X75785636Y-49407788D01*
X75781124Y-49413043D01*
X75777940Y-49416610D01*
X75773202Y-49421716D01*
X75769907Y-49425132D01*
X75764957Y-49430073D01*
X75761526Y-49433369D01*
X75756317Y-49438184D01*
X75752770Y-49441339D01*
X75747404Y-49445931D01*
X75743713Y-49448969D01*
X75738156Y-49453365D01*
X75734328Y-49456274D01*
X75728586Y-49460465D01*
X75724665Y-49463212D01*
X75718797Y-49467157D01*
X75714683Y-49469807D01*
X75708663Y-49473518D01*
X75704444Y-49476005D01*
X75698249Y-49479494D01*
X75693901Y-49481830D01*
X75687675Y-49485017D01*
X75683170Y-49487210D01*
X75676740Y-49490180D01*
X75672095Y-49492211D01*
X75665662Y-49494869D01*
X75660894Y-49496724D01*
X75654295Y-49499137D01*
X75649388Y-49500816D01*
X75642772Y-49502926D01*
X75637736Y-49504416D01*
X75628460Y-49506947D01*
X75593324Y-49516040D01*
X75589675Y-49517106D01*
X75579956Y-49520271D01*
X75573973Y-49522568D01*
X75568278Y-49525099D01*
X75562058Y-49528328D01*
X75557758Y-49531222D01*
X75553507Y-49534853D01*
X75549768Y-49538995D01*
X75546609Y-49543649D01*
X75544073Y-49548784D01*
X75542120Y-49554487D01*
X75540869Y-49560186D01*
X75540110Y-49567713D01*
X75539800Y-49575922D01*
X75539941Y-49583027D01*
X75540979Y-49596390D01*
X75541486Y-49600833D01*
X75544438Y-49620383D01*
X75544911Y-49623103D01*
X75550069Y-49649327D01*
X75550523Y-49651357D01*
X75566426Y-49719793D01*
X75589244Y-49812235D01*
X75590003Y-49815503D01*
X75608414Y-49899888D01*
X75609981Y-49908528D01*
X75623069Y-49998798D01*
X75623905Y-50006076D01*
X75632268Y-50104349D01*
X75632642Y-50110615D01*
X75636239Y-50215540D01*
X75636305Y-50221059D01*
X75635176Y-50331238D01*
X75635026Y-50336214D01*
X75629262Y-50450480D01*
X75628944Y-50455077D01*
X75618672Y-50572089D01*
X75618213Y-50576435D01*
X75603575Y-50695029D01*
X75602982Y-50699237D01*
X75584143Y-50818181D01*
X75583410Y-50822352D01*
X75560531Y-50940529D01*
X75559636Y-50944755D01*
X75532914Y-51060935D01*
X75531822Y-51065316D01*
X75501476Y-51178256D01*
X75500130Y-51182901D01*
X75466365Y-51291481D01*
X75464684Y-51296506D01*
X75427769Y-51399477D01*
X75425628Y-51405026D01*
X75385885Y-51501112D01*
X75383102Y-51507349D01*
X75340573Y-51596005D01*
X75337641Y-51601731D01*
X75296362Y-51677441D01*
X75293551Y-51682329D01*
X75248655Y-51756444D01*
X75245624Y-51761200D01*
X75197217Y-51833477D01*
X75193994Y-51838062D01*
X75142057Y-51908503D01*
X75138670Y-51912888D01*
X75083098Y-51981607D01*
X75079578Y-51985768D01*
X75020341Y-52052769D01*
X75016719Y-52056693D01*
X74953741Y-52122027D01*
X74950057Y-52125692D01*
X74883261Y-52189413D01*
X74879539Y-52192822D01*
X74808895Y-52254924D01*
X74805171Y-52258070D01*
X74730597Y-52318600D01*
X74726898Y-52321488D01*
X74648351Y-52380456D01*
X74644700Y-52383095D01*
X74562070Y-52440557D01*
X74558487Y-52442956D01*
X74471783Y-52498882D01*
X74468290Y-52501054D01*
X74377501Y-52555438D01*
X74374109Y-52557398D01*
X74279079Y-52610317D01*
X74275802Y-52612078D01*
X74176269Y-52663655D01*
X74173731Y-52664934D01*
X74078901Y-52711349D01*
X74076226Y-52712618D01*
X73983687Y-52755204D01*
X73980740Y-52756515D01*
X73890094Y-52795406D01*
X73886886Y-52796729D01*
X73797823Y-52832023D01*
X73794366Y-52833334D01*
X73706463Y-52865171D01*
X73702795Y-52866435D01*
X73615724Y-52894922D01*
X73611880Y-52896111D01*
X73525147Y-52921403D01*
X73521179Y-52922489D01*
X73434421Y-52944694D01*
X73430382Y-52945656D01*
X73343162Y-52964893D01*
X73339121Y-52965714D01*
X73251015Y-52982095D01*
X73247028Y-52982769D01*
X73157638Y-52996390D01*
X73153766Y-52996918D01*
X73062624Y-53007880D01*
X73058919Y-53008269D01*
X72965654Y-53016653D01*
X72962165Y-53016917D01*
X72866378Y-53022809D01*
X72863130Y-53022966D01*
X72764407Y-53026443D01*
X72761431Y-53026512D01*
X72659560Y-53027653D01*
X72656551Y-53027650D01*
X72478327Y-53025321D01*
X72475101Y-53025237D01*
X72396000Y-53022143D01*
X72393207Y-53022002D01*
X72318806Y-53017410D01*
X72315519Y-53017164D01*
X72245293Y-53010952D01*
X72241567Y-53010565D01*
X72174748Y-53002614D01*
X72170668Y-53002060D01*
X72106212Y-52992210D01*
X72101928Y-52991478D01*
X72038904Y-52979573D01*
X72034583Y-52978677D01*
X71971947Y-52964520D01*
X71967761Y-52963497D01*
X71904544Y-52946880D01*
X71900645Y-52945787D01*
X71835897Y-52926487D01*
X71832411Y-52925392D01*
X71765114Y-52903153D01*
X71762100Y-52902114D01*
X71691480Y-52876745D01*
X71688972Y-52875813D01*
X71614536Y-52847245D01*
X71611709Y-52846120D01*
X71447038Y-52778241D01*
X71442015Y-52776039D01*
X71231955Y-52678369D01*
X71226083Y-52675448D01*
X71030183Y-52571429D01*
X71024130Y-52567994D01*
X70842429Y-52458024D01*
X70836199Y-52453993D01*
X70668248Y-52338076D01*
X70663468Y-52334606D01*
X70586219Y-52275668D01*
X70582987Y-52273116D01*
X70508725Y-52212452D01*
X70505468Y-52209697D01*
X70435031Y-52147999D01*
X70431750Y-52145020D01*
X70365140Y-52082328D01*
X70361850Y-52079114D01*
X70299097Y-52015502D01*
X70295805Y-52012035D01*
X70236945Y-51947578D01*
X70233670Y-51943843D01*
X70178758Y-51878647D01*
X70175513Y-51874627D01*
X70124561Y-51808747D01*
X70121373Y-51804436D01*
X70074369Y-51737904D01*
X70071257Y-51733282D01*
X70028270Y-51666236D01*
X70025262Y-51661295D01*
X69986289Y-51593773D01*
X69983421Y-51588514D01*
X69948444Y-51520528D01*
X69945745Y-51514943D01*
X69914810Y-51446615D01*
X69912320Y-51440713D01*
X69885431Y-51372094D01*
X69883187Y-51365888D01*
X69860326Y-51296960D01*
X69858369Y-51290469D01*
X69839562Y-51221323D01*
X69837928Y-51214575D01*
X69823177Y-51145218D01*
X69821902Y-51138250D01*
X69811218Y-51068701D01*
X69810332Y-51061556D01*
X69803733Y-50991827D01*
X69803260Y-50984559D01*
X69801175Y-50926033D01*
X69801117Y-50924411D01*
X70099414Y-50924411D01*
X70099495Y-50927652D01*
X70102098Y-50978509D01*
X70102342Y-50981684D01*
X70107580Y-51032503D01*
X70107984Y-51035635D01*
X70115848Y-51086356D01*
X70116404Y-51089428D01*
X70126898Y-51140063D01*
X70127604Y-51143087D01*
X70140713Y-51193571D01*
X70141559Y-51196531D01*
X70157311Y-51246939D01*
X70158261Y-51249743D01*
X70176648Y-51300022D01*
X70177703Y-51302712D01*
X70198743Y-51352872D01*
X70199891Y-51355444D01*
X70223580Y-51405439D01*
X70224781Y-51407838D01*
X70251130Y-51457658D01*
X70252405Y-51459950D01*
X70281402Y-51509539D01*
X70282755Y-51511746D01*
X70315059Y-51562104D01*
X70350762Y-51613163D01*
X70352176Y-51615065D01*
X70389151Y-51663798D01*
X70390597Y-51665600D01*
X70430216Y-51713985D01*
X70431664Y-51715661D01*
X70473950Y-51763695D01*
X70475407Y-51765268D01*
X70520342Y-51812903D01*
X70521778Y-51814351D01*
X70569384Y-51861581D01*
X70570826Y-51862945D01*
X70621067Y-51909704D01*
X70622492Y-51910971D01*
X70674333Y-51956328D01*
X70676456Y-51958105D01*
X70790470Y-52049356D01*
X70793332Y-52051513D01*
X70986095Y-52188368D01*
X70989119Y-52190385D01*
X71182833Y-52311554D01*
X71186144Y-52313485D01*
X71380717Y-52418943D01*
X71384375Y-52420772D01*
X71579805Y-52510558D01*
X71583768Y-52512215D01*
X71780111Y-52586392D01*
X71784353Y-52587821D01*
X71981616Y-52646425D01*
X71986138Y-52647586D01*
X72184422Y-52690673D01*
X72189064Y-52691497D01*
X72388475Y-52719104D01*
X72393211Y-52719574D01*
X72593806Y-52731709D01*
X72598555Y-52731813D01*
X72800420Y-52728474D01*
X72805111Y-52728219D01*
X73008340Y-52709387D01*
X73012880Y-52708797D01*
X73217588Y-52674429D01*
X73221889Y-52673547D01*
X73428121Y-52623595D01*
X73432154Y-52622472D01*
X73639955Y-52556878D01*
X73643722Y-52555554D01*
X73853095Y-52474274D01*
X73856578Y-52472798D01*
X74069174Y-52375031D01*
X74071139Y-52374064D01*
X74140187Y-52339292D01*
X74141322Y-52338697D01*
X74207825Y-52303428D01*
X74209108Y-52302719D01*
X74272270Y-52267317D01*
X74273605Y-52266535D01*
X74333702Y-52230833D01*
X74335125Y-52229948D01*
X74392302Y-52193853D01*
X74393802Y-52192861D01*
X74448252Y-52156254D01*
X74449789Y-52155170D01*
X74501731Y-52117910D01*
X74503305Y-52116725D01*
X74552920Y-52078698D01*
X74554486Y-52077436D01*
X74602002Y-52038494D01*
X74603553Y-52037157D01*
X74649156Y-51997173D01*
X74650697Y-51995753D01*
X74694563Y-51954613D01*
X74696023Y-51953174D01*
X74738404Y-51910688D01*
X74739816Y-51909204D01*
X74780861Y-51865275D01*
X74782162Y-51863816D01*
X74822113Y-51818250D01*
X74823314Y-51816816D01*
X74862343Y-51769488D01*
X74863439Y-51768099D01*
X74900431Y-51720535D01*
X74902904Y-51717126D01*
X74976069Y-51608754D01*
X74978347Y-51605114D01*
X75045339Y-51489415D01*
X75047214Y-51485926D01*
X75107911Y-51363808D01*
X75109450Y-51360467D01*
X75163592Y-51233081D01*
X75164864Y-51229836D01*
X75212194Y-51098379D01*
X75213248Y-51095183D01*
X75253544Y-50960799D01*
X75254404Y-50957627D01*
X75287450Y-50821492D01*
X75288142Y-50818269D01*
X75313730Y-50681583D01*
X75314259Y-50678259D01*
X75332197Y-50542190D01*
X75332553Y-50538753D01*
X75342667Y-50404461D01*
X75342834Y-50400798D01*
X75344958Y-50269497D01*
X75344897Y-50265587D01*
X75338889Y-50138483D01*
X75338535Y-50134170D01*
X75324286Y-50012490D01*
X75323548Y-50007769D01*
X75300978Y-49892684D01*
X75299707Y-49887425D01*
X75268576Y-49779382D01*
X75267164Y-49775075D01*
X75248834Y-49725383D01*
X75247636Y-49722379D01*
X75226285Y-49672755D01*
X75225467Y-49670974D01*
X75173375Y-49559870D01*
X75173368Y-49559865D01*
X74795896Y-49566921D01*
X74794635Y-49566963D01*
X73790314Y-49605892D01*
X72442426Y-49677605D01*
X71247337Y-49753948D01*
X70863455Y-49784937D01*
X70860192Y-49785288D01*
X70700147Y-49806809D01*
X70679840Y-49819403D01*
X70675020Y-49822718D01*
X70653186Y-49839304D01*
X70650132Y-49841781D01*
X70624442Y-49864008D01*
X70622346Y-49865907D01*
X70593045Y-49893737D01*
X70591478Y-49895309D01*
X70561089Y-49926359D01*
X70559829Y-49927704D01*
X70527940Y-49962273D01*
X70526883Y-49963463D01*
X70494036Y-50000947D01*
X70493113Y-50002037D01*
X70459816Y-50041848D01*
X70458953Y-50042913D01*
X70425721Y-50084443D01*
X70424939Y-50085453D01*
X70392189Y-50128202D01*
X70391398Y-50129270D01*
X70359660Y-50172591D01*
X70358843Y-50173746D01*
X70328572Y-50217078D01*
X70327738Y-50218320D01*
X70299366Y-50261131D01*
X70298456Y-50262567D01*
X70272479Y-50304218D01*
X70271455Y-50305950D01*
X70248352Y-50345806D01*
X70247201Y-50347932D01*
X70228022Y-50384230D01*
X70226890Y-50386478D01*
X70202349Y-50437778D01*
X70201209Y-50440307D01*
X70179525Y-50491520D01*
X70178453Y-50494228D01*
X70159570Y-50545397D01*
X70158594Y-50548250D01*
X70142455Y-50599437D01*
X70141613Y-50602357D01*
X70128209Y-50653504D01*
X70127489Y-50656561D01*
X70116787Y-50707711D01*
X70116230Y-50710755D01*
X70108215Y-50761883D01*
X70107802Y-50765051D01*
X70102466Y-50816068D01*
X70102213Y-50819293D01*
X70099533Y-50870282D01*
X70099447Y-50873486D01*
X70099414Y-50924411D01*
X69801117Y-50924411D01*
X69800770Y-50914666D01*
X69800725Y-50907330D01*
X69802377Y-50837220D01*
X69802769Y-50829873D01*
X69808606Y-50759623D01*
X69809429Y-50752336D01*
X69819504Y-50681888D01*
X69820747Y-50674710D01*
X69835167Y-50603868D01*
X69836690Y-50597303D01*
X69846836Y-50558407D01*
X69848201Y-50553577D01*
X69861683Y-50509311D01*
X69862883Y-50505582D01*
X69879254Y-50457352D01*
X69880331Y-50454309D01*
X69899132Y-50403321D01*
X69900125Y-50400721D01*
X69920919Y-50348005D01*
X69921864Y-50345678D01*
X69944672Y-50291120D01*
X69969081Y-50235730D01*
X69994171Y-50181591D01*
X70018961Y-50130723D01*
X70020119Y-50128410D01*
X70044081Y-50081787D01*
X70045496Y-50079115D01*
X70068642Y-50036659D01*
X70070453Y-50033451D01*
X70092110Y-49996390D01*
X70094608Y-49992300D01*
X70113940Y-49961972D01*
X70117734Y-49956363D01*
X70133358Y-49934575D01*
X70139934Y-49926191D01*
X70149666Y-49914824D01*
X70175449Y-49892059D01*
X70173292Y-49893528D01*
X70177409Y-49890641D01*
X70179289Y-49889246D01*
X70182045Y-49887075D01*
X70183477Y-49885879D01*
X70186284Y-49883383D01*
X70187238Y-49882481D01*
X70190095Y-49879597D01*
X70190629Y-49879022D01*
X70193444Y-49875766D01*
X70193608Y-49875562D01*
X70196275Y-49871984D01*
X70198620Y-49868269D01*
X70200553Y-49864563D01*
X70202091Y-49860852D01*
X70203231Y-49857167D01*
X70203983Y-49853492D01*
X70204343Y-49849875D01*
X70204318Y-49846299D01*
X70203909Y-49842784D01*
X70203122Y-49839367D01*
X70201958Y-49836039D01*
X70200429Y-49832836D01*
X70198526Y-49829744D01*
X70196270Y-49826802D01*
X70193664Y-49824018D01*
X70190704Y-49821394D01*
X70187383Y-49818936D01*
X70183741Y-49816681D01*
X70179778Y-49814636D01*
X70179685Y-49814592D01*
X70175686Y-49812886D01*
X70175119Y-49812667D01*
X70171230Y-49811314D01*
X70170178Y-49810986D01*
X70166467Y-49809958D01*
X70164946Y-49809587D01*
X70161371Y-49808825D01*
X70159364Y-49808458D01*
X70155945Y-49807930D01*
X70153416Y-49807612D01*
X70150242Y-49807296D01*
X70147205Y-49807074D01*
X70144160Y-49806926D01*
X70139230Y-49806810D01*
X70134949Y-49806648D01*
X70125913Y-49805922D01*
X70125444Y-49805867D01*
X70117369Y-49804649D01*
X70115804Y-49804360D01*
X70108458Y-49802772D01*
X70105770Y-49802105D01*
X70099328Y-49800321D01*
X70095703Y-49799211D01*
X70089945Y-49797292D01*
X70085472Y-49795679D01*
X70080286Y-49793677D01*
X70075164Y-49791566D01*
X70070495Y-49789528D01*
X70065821Y-49787373D01*
X70059593Y-49784287D01*
X70045879Y-49777006D01*
X70038659Y-49772856D01*
X70024941Y-49764346D01*
X70018625Y-49760156D01*
X70004421Y-49750093D01*
X69998698Y-49745785D01*
X69984516Y-49734453D01*
X69979201Y-49729955D01*
X69965518Y-49717702D01*
X69960411Y-49712861D01*
X69947624Y-49700031D01*
X69942598Y-49694681D01*
X69931098Y-49681688D01*
X69926055Y-49675611D01*
X69916195Y-49662928D01*
X69911058Y-49655814D01*
X69902420Y-49642914D01*
X69898520Y-49636700D01*
X69895948Y-49632319D01*
X69893318Y-49627607D01*
X69890711Y-49622688D01*
X69888086Y-49617439D01*
X69886055Y-49613125D01*
X69883486Y-49607281D01*
X69882003Y-49603658D01*
X69879551Y-49597153D01*
X69878587Y-49594361D01*
X69876293Y-49586981D01*
X69875536Y-49584247D01*
X69873927Y-49577761D01*
X69872548Y-49571483D01*
X69871480Y-49566039D01*
X69870318Y-49559329D01*
X69869492Y-49553831D01*
X69868640Y-49547139D01*
X69868060Y-49541595D01*
X69867521Y-49535011D01*
X69867192Y-49529451D01*
X69866952Y-49522925D01*
X69866872Y-49517335D01*
X69866926Y-49510855D01*
X69867096Y-49505319D01*
X69867434Y-49498948D01*
X69867854Y-49493397D01*
X69868479Y-49487033D01*
X69869143Y-49481532D01*
X69870041Y-49475277D01*
X69870948Y-49469830D01*
X69872120Y-49463640D01*
X69873265Y-49458249D01*
X69874714Y-49452104D01*
X69876089Y-49446801D01*
X69877810Y-49440719D01*
X69879421Y-49435470D01*
X69881402Y-49429493D01*
X69883218Y-49424390D01*
X69885470Y-49418474D01*
X69887521Y-49413422D01*
X69890045Y-49407578D01*
X69892297Y-49402662D01*
X69895080Y-49396920D01*
X69897535Y-49392125D01*
X69900573Y-49386494D01*
X69903226Y-49381821D01*
X69906557Y-49376240D01*
X69909401Y-49371701D01*
X69912964Y-49366278D01*
X69915995Y-49361874D01*
X69919848Y-49356527D01*
X69923051Y-49352278D01*
X69927145Y-49347082D01*
X69930512Y-49342990D01*
X69934885Y-49337903D01*
X69938436Y-49333948D01*
X69943069Y-49329004D01*
X69946742Y-49325247D01*
X69951635Y-49320450D01*
X69955481Y-49316837D01*
X69960642Y-49312191D01*
X69964628Y-49308753D01*
X69970052Y-49304272D01*
X69974141Y-49301036D01*
X69979845Y-49296714D01*
X69984092Y-49293635D01*
X69990046Y-49289508D01*
X69994381Y-49286636D01*
X70000617Y-49282690D01*
X70005085Y-49279993D01*
X70011596Y-49276247D01*
X70016109Y-49273774D01*
X70021568Y-49270928D01*
X70049069Y-49260522D01*
X70090622Y-49250226D01*
X70104178Y-49247658D01*
X70216177Y-49232837D01*
X70222154Y-49232193D01*
X70670616Y-49194848D01*
X70673175Y-49194661D01*
X71444839Y-49146454D01*
X72587508Y-49083615D01*
X74343899Y-48991011D01*
X75145146Y-48946031D01*
X75242953Y-48938840D01*
X75245729Y-48938668D01*
X75333128Y-48934227D01*
X75335790Y-48934120D01*
X75376271Y-48932934D01*
X75415984Y-48932442D01*
X75452155Y-48932695D01*
G37*
G36*
X73378105Y-50372695D02*
G01*
X73393838Y-50373372D01*
X73399222Y-50373721D01*
X73414960Y-50375086D01*
X73420275Y-50375663D01*
X73435992Y-50377712D01*
X73441241Y-50378510D01*
X73456799Y-50381220D01*
X73462004Y-50382242D01*
X73477400Y-50385608D01*
X73482552Y-50386850D01*
X73497761Y-50390863D01*
X73502875Y-50392331D01*
X73517760Y-50396950D01*
X73522833Y-50398645D01*
X73537442Y-50403879D01*
X73542494Y-50405814D01*
X73556701Y-50411615D01*
X73561731Y-50413800D01*
X73575506Y-50420149D01*
X73580517Y-50422597D01*
X73593828Y-50429474D01*
X73598809Y-50432194D01*
X73611599Y-50439562D01*
X73616560Y-50442576D01*
X73628770Y-50450393D01*
X73633699Y-50453718D01*
X73645334Y-50461979D01*
X73650230Y-50465640D01*
X73661212Y-50474282D01*
X73666047Y-50478289D01*
X73676385Y-50487308D01*
X73681137Y-50491677D01*
X73690774Y-50501011D01*
X73695430Y-50505769D01*
X73704353Y-50515392D01*
X73708878Y-50520551D01*
X73717100Y-50530466D01*
X73721454Y-50536033D01*
X73728956Y-50546208D01*
X73733090Y-50552172D01*
X73739851Y-50562564D01*
X73743728Y-50568935D01*
X73749275Y-50578699D01*
X73753745Y-50587339D01*
X73765176Y-50611736D01*
X73768498Y-50619505D01*
X73778216Y-50644559D01*
X73781054Y-50652707D01*
X73788797Y-50677701D01*
X73791099Y-50686181D01*
X73796902Y-50711016D01*
X73798622Y-50719797D01*
X73802529Y-50744419D01*
X73803625Y-50753466D01*
X73805669Y-50777784D01*
X73806100Y-50787039D01*
X73806319Y-50811040D01*
X73806048Y-50820446D01*
X73804468Y-50844069D01*
X73803464Y-50853566D01*
X73800107Y-50876747D01*
X73798355Y-50886229D01*
X73793227Y-50908990D01*
X73790711Y-50918413D01*
X73783808Y-50940707D01*
X73780545Y-50949938D01*
X73771850Y-50971755D01*
X73767849Y-50980739D01*
X73756786Y-51003148D01*
X73753345Y-51009628D01*
X73747980Y-51019047D01*
X73745457Y-51023279D01*
X73739024Y-51033597D01*
X73736377Y-51037664D01*
X73729426Y-51047898D01*
X73726609Y-51051874D01*
X73719197Y-51061914D01*
X73716254Y-51065742D01*
X73708319Y-51075658D01*
X73705245Y-51079351D01*
X73696802Y-51089102D01*
X73693584Y-51092677D01*
X73674472Y-51113093D01*
X73668455Y-51119094D01*
X73650120Y-51136169D01*
X73643590Y-51141838D01*
X73624872Y-51156977D01*
X73617877Y-51162237D01*
X73598871Y-51175506D01*
X73591434Y-51180312D01*
X73572151Y-51191820D01*
X73564355Y-51196102D01*
X73544859Y-51205915D01*
X73536729Y-51209645D01*
X73517031Y-51217838D01*
X73508670Y-51220968D01*
X73488854Y-51227582D01*
X73480296Y-51230100D01*
X73460335Y-51235201D01*
X73451653Y-51237091D01*
X73431624Y-51240705D01*
X73422866Y-51241965D01*
X73402803Y-51244123D01*
X73394031Y-51244753D01*
X73373963Y-51245480D01*
X73365231Y-51245488D01*
X73345255Y-51244804D01*
X73336585Y-51244203D01*
X73316710Y-51242122D01*
X73308159Y-51240924D01*
X73288461Y-51237462D01*
X73280050Y-51235681D01*
X73260617Y-51230857D01*
X73252380Y-51228508D01*
X73233271Y-51222336D01*
X73225236Y-51219431D01*
X73206498Y-51211918D01*
X73198696Y-51208474D01*
X73180422Y-51199644D01*
X73172880Y-51195674D01*
X73155120Y-51185532D01*
X73147862Y-51181049D01*
X73130723Y-51169631D01*
X73123786Y-51164657D01*
X73107272Y-51151932D01*
X73100680Y-51146481D01*
X73084916Y-51132500D01*
X73078713Y-51126603D01*
X73063738Y-51111351D01*
X73057947Y-51105030D01*
X73043808Y-51088483D01*
X73038470Y-51081780D01*
X73025260Y-51063962D01*
X73020401Y-51056912D01*
X73008170Y-51037784D01*
X73003823Y-51030441D01*
X72992649Y-51009991D01*
X72988837Y-51002408D01*
X72978802Y-50980620D01*
X72975538Y-50972848D01*
X72966719Y-50949673D01*
X72964019Y-50941791D01*
X72956507Y-50917195D01*
X72954366Y-50909251D01*
X72948324Y-50883453D01*
X72946650Y-50874989D01*
X72945820Y-50869861D01*
X72944754Y-50861471D01*
X72944176Y-50855223D01*
X72943710Y-50847683D01*
X72943471Y-50840052D01*
X72943444Y-50833276D01*
X72943651Y-50824408D01*
X72943945Y-50818289D01*
X72944671Y-50808327D01*
X72945201Y-50802780D01*
X72946490Y-50791878D01*
X72947192Y-50786833D01*
X72949068Y-50775117D01*
X72949898Y-50770494D01*
X72952169Y-50759095D01*
X72953593Y-50752805D01*
X72960557Y-50725379D01*
X72962699Y-50717928D01*
X72971611Y-50690221D01*
X72973985Y-50683508D01*
X72984919Y-50655203D01*
X72987524Y-50648970D01*
X73000217Y-50620783D01*
X73003106Y-50614800D01*
X73017238Y-50587435D01*
X73020515Y-50581495D01*
X73035752Y-50555574D01*
X73039567Y-50549494D01*
X73055456Y-50525728D01*
X73060034Y-50519330D01*
X73076809Y-50497390D01*
X73080946Y-50492266D01*
X73088153Y-50483811D01*
X73091343Y-50480213D01*
X73099017Y-50471887D01*
X73102658Y-50468101D01*
X73110025Y-50460758D01*
X73114209Y-50456777D01*
X73121064Y-50450553D01*
X73125901Y-50446384D01*
X73132152Y-50441270D01*
X73137775Y-50436932D01*
X73143208Y-50432984D01*
X73149814Y-50428501D01*
X73154220Y-50425714D01*
X73161967Y-50421198D01*
X73166609Y-50418712D01*
X73172679Y-50415672D01*
X73186010Y-50409446D01*
X73192005Y-50406836D01*
X73205785Y-50401265D01*
X73211782Y-50399019D01*
X73225918Y-50394137D01*
X73231878Y-50392246D01*
X73246369Y-50388046D01*
X73252287Y-50386488D01*
X73267052Y-50382988D01*
X73272897Y-50381750D01*
X73287949Y-50378940D01*
X73293730Y-50378001D01*
X73308991Y-50375892D01*
X73314683Y-50375239D01*
X73330158Y-50373825D01*
X73335781Y-50373440D01*
X73351407Y-50372726D01*
X73356933Y-50372597D01*
X73372640Y-50372580D01*
X73378105Y-50372695D01*
G37*
G36*
X81037473Y-49812833D02*
G01*
X81052814Y-49813650D01*
X81060812Y-49814337D01*
X81075867Y-49816121D01*
X81083802Y-49817322D01*
X81098785Y-49820090D01*
X81106530Y-49821779D01*
X81121589Y-49825570D01*
X81129018Y-49827688D01*
X81144343Y-49832579D01*
X81151360Y-49835053D01*
X81167028Y-49841111D01*
X81173544Y-49843846D01*
X81189728Y-49851189D01*
X81195712Y-49854101D01*
X81212410Y-49862786D01*
X81217840Y-49865785D01*
X81236315Y-49876601D01*
X81238887Y-49878149D01*
X81267243Y-49895685D01*
X81272412Y-49899062D01*
X81296287Y-49915524D01*
X81302091Y-49919780D01*
X81322533Y-49935701D01*
X81328879Y-49940991D01*
X81346156Y-49956401D01*
X81352854Y-49962843D01*
X81367249Y-49977763D01*
X81374045Y-49985415D01*
X81386841Y-50001080D01*
X81391797Y-50007572D01*
X81396161Y-50013697D01*
X81399310Y-50018336D01*
X81404008Y-50025604D01*
X81406996Y-50030468D01*
X81411286Y-50037827D01*
X81414053Y-50042835D01*
X81417966Y-50050321D01*
X81420509Y-50055473D01*
X81424103Y-50063201D01*
X81426368Y-50068378D01*
X81429143Y-50075134D01*
X81432041Y-50082921D01*
X81438254Y-50101500D01*
X81441151Y-50111556D01*
X81445822Y-50130785D01*
X81447723Y-50140180D01*
X81451245Y-50161870D01*
X81452324Y-50170355D01*
X81454577Y-50194780D01*
X81455039Y-50202238D01*
X81455908Y-50229628D01*
X81455945Y-50236049D01*
X81455334Y-50266481D01*
X81455106Y-50271912D01*
X81453071Y-50303708D01*
X81452291Y-50311760D01*
X81447233Y-50350700D01*
X81446239Y-50357056D01*
X81443211Y-50373597D01*
X81442301Y-50378097D01*
X81438623Y-50394694D01*
X81437489Y-50399380D01*
X81433370Y-50415055D01*
X81431975Y-50419950D01*
X81427449Y-50434685D01*
X81425773Y-50439751D01*
X81420868Y-50453571D01*
X81418877Y-50458803D01*
X81413617Y-50471739D01*
X81411290Y-50477097D01*
X81405706Y-50489167D01*
X81403022Y-50494615D01*
X81397127Y-50505875D01*
X81394060Y-50511386D01*
X81387875Y-50521866D01*
X81384427Y-50527373D01*
X81377946Y-50537146D01*
X81374105Y-50542613D01*
X81367347Y-50551700D01*
X81363130Y-50557056D01*
X81356061Y-50565544D01*
X81351482Y-50570740D01*
X81344091Y-50578669D01*
X81339192Y-50583637D01*
X81331430Y-50591077D01*
X81326232Y-50595785D01*
X81318068Y-50602769D01*
X81312642Y-50607153D01*
X81304018Y-50613728D01*
X81298400Y-50617768D01*
X81289254Y-50623966D01*
X81283517Y-50627628D01*
X81273803Y-50633460D01*
X81268000Y-50636735D01*
X81257650Y-50642215D01*
X81251834Y-50645102D01*
X81240797Y-50650225D01*
X81235040Y-50652722D01*
X81223278Y-50657474D01*
X81217602Y-50659608D01*
X81205034Y-50663984D01*
X81199491Y-50665769D01*
X81186121Y-50669731D01*
X81180745Y-50671193D01*
X81166527Y-50674720D01*
X81161333Y-50675891D01*
X81146274Y-50678947D01*
X81141293Y-50679852D01*
X81125318Y-50682420D01*
X81120558Y-50683091D01*
X81103727Y-50685131D01*
X81099181Y-50685597D01*
X81082506Y-50686997D01*
X81076116Y-50687368D01*
X81035391Y-50688677D01*
X81030605Y-50688738D01*
X81004643Y-50688570D01*
X80980449Y-50687980D01*
X80977310Y-50687861D01*
X80957693Y-50686867D01*
X80953234Y-50686561D01*
X80936983Y-50685149D01*
X80931168Y-50684505D01*
X80917059Y-50682605D01*
X80911783Y-50681778D01*
X80907141Y-50680948D01*
X80903246Y-50680187D01*
X80898393Y-50679158D01*
X80894158Y-50678182D01*
X80889884Y-50677118D01*
X80885462Y-50675930D01*
X80881629Y-50674824D01*
X80876988Y-50673386D01*
X80873531Y-50672240D01*
X80868862Y-50670588D01*
X80865592Y-50669357D01*
X80860873Y-50667469D01*
X80857767Y-50666152D01*
X80853155Y-50664085D01*
X80850009Y-50662597D01*
X80845591Y-50660399D01*
X80842344Y-50658702D01*
X80838159Y-50656411D01*
X80834670Y-50654413D01*
X80830726Y-50652056D01*
X80826936Y-50649695D01*
X80823397Y-50647406D01*
X80820000Y-50645126D01*
X80815301Y-50641812D01*
X80804890Y-50634101D01*
X80799853Y-50630165D01*
X80788426Y-50620752D01*
X80784685Y-50617543D01*
X80771247Y-50605546D01*
X80768582Y-50603096D01*
X80753136Y-50588474D01*
X80751339Y-50586739D01*
X80734201Y-50569848D01*
X80732109Y-50567736D01*
X80714647Y-50549680D01*
X80711349Y-50546134D01*
X80696679Y-50529729D01*
X80692865Y-50525255D01*
X80680526Y-50510065D01*
X80676314Y-50504573D01*
X80666115Y-50490478D01*
X80661689Y-50483932D01*
X80653374Y-50470747D01*
X80648975Y-50463195D01*
X80642205Y-50450568D01*
X80638115Y-50442197D01*
X80632576Y-50429693D01*
X80629047Y-50420821D01*
X80624476Y-50407898D01*
X80621668Y-50398880D01*
X80617902Y-50384936D01*
X80615880Y-50376205D01*
X80612872Y-50360690D01*
X80611571Y-50352537D01*
X80609361Y-50334936D01*
X80608661Y-50327606D01*
X80607347Y-50307577D01*
X80607093Y-50301203D01*
X80606773Y-50278450D01*
X80606816Y-50273017D01*
X80607579Y-50247383D01*
X80607796Y-50242867D01*
X80609696Y-50214217D01*
X80609994Y-50210542D01*
X80613005Y-50179258D01*
X80613466Y-50175183D01*
X80614088Y-50170389D01*
X80615246Y-50163145D01*
X80616028Y-50159039D01*
X80617399Y-50152741D01*
X80618711Y-50147384D01*
X80620193Y-50141881D01*
X80622081Y-50135464D01*
X80623625Y-50130590D01*
X80626081Y-50123358D01*
X80627650Y-50119007D01*
X80630362Y-50111903D01*
X80632695Y-50106217D01*
X80640916Y-50087520D01*
X80643996Y-50081032D01*
X80653816Y-50061804D01*
X80656857Y-50056209D01*
X80668481Y-50036073D01*
X80671528Y-50031072D01*
X80684624Y-50010675D01*
X80687746Y-50006045D01*
X80702007Y-49985891D01*
X80705300Y-49981451D01*
X80720353Y-49962071D01*
X80723942Y-49957663D01*
X80739419Y-49939519D01*
X80743473Y-49934996D01*
X80758930Y-49918577D01*
X80763669Y-49913808D01*
X80778586Y-49899592D01*
X80784340Y-49894441D01*
X80799001Y-49882116D01*
X80804255Y-49877937D01*
X80809602Y-49873915D01*
X80813734Y-49870937D01*
X80819259Y-49867126D01*
X80824014Y-49864005D01*
X80828760Y-49861043D01*
X80834286Y-49857790D01*
X80838034Y-49855712D01*
X80844510Y-49852366D01*
X80847023Y-49851160D01*
X80854660Y-49847806D01*
X80857653Y-49846610D01*
X80862635Y-49844742D01*
X80883653Y-49837372D01*
X80889060Y-49835614D01*
X80909001Y-49829633D01*
X80914931Y-49828014D01*
X80933910Y-49823333D01*
X80940352Y-49821925D01*
X80958330Y-49818493D01*
X80965258Y-49817372D01*
X80982412Y-49815094D01*
X80989746Y-49814341D01*
X81006130Y-49813150D01*
X81013814Y-49812831D01*
X81029573Y-49812665D01*
X81037473Y-49812833D01*
G37*
G36*
X80969885Y-54051017D02*
G01*
X80969892Y-54051019D01*
X80979830Y-54054318D01*
X80984762Y-54056190D01*
X80990418Y-54058498D01*
X80996312Y-54061074D01*
X81001319Y-54063396D01*
X81008103Y-54066728D01*
X81012574Y-54069038D01*
X81019266Y-54072669D01*
X81025059Y-54076018D01*
X81043571Y-54087396D01*
X81049912Y-54091565D01*
X81070078Y-54105729D01*
X81075166Y-54109501D01*
X81097709Y-54127120D01*
X81101829Y-54130485D01*
X81126435Y-54151477D01*
X81130003Y-54154641D01*
X81160218Y-54182495D01*
X81163884Y-54186016D01*
X81192995Y-54215148D01*
X81196493Y-54218794D01*
X81224700Y-54249421D01*
X81227995Y-54253146D01*
X81255401Y-54285409D01*
X81258486Y-54289190D01*
X81285048Y-54323076D01*
X81287899Y-54326859D01*
X81313754Y-54362573D01*
X81316369Y-54366329D01*
X81341515Y-54403909D01*
X81343895Y-54407607D01*
X81368374Y-54447156D01*
X81370522Y-54450761D01*
X81394325Y-54492295D01*
X81396253Y-54495788D01*
X81419489Y-54539538D01*
X81421207Y-54542896D01*
X81443824Y-54588799D01*
X81445348Y-54592007D01*
X81467383Y-54640160D01*
X81468728Y-54643205D01*
X81490225Y-54693724D01*
X81491407Y-54696604D01*
X81512368Y-54749512D01*
X81513406Y-54752223D01*
X81533858Y-54807599D01*
X81534766Y-54810142D01*
X81554119Y-54866273D01*
X81555961Y-54872075D01*
X81584234Y-54969326D01*
X81586212Y-54977046D01*
X81609141Y-55080240D01*
X81610489Y-55087256D01*
X81628355Y-55197254D01*
X81629224Y-55203652D01*
X81641945Y-55319957D01*
X81642445Y-55325808D01*
X81649971Y-55447877D01*
X81650186Y-55453262D01*
X81652493Y-55580619D01*
X81652483Y-55585604D01*
X81649564Y-55717716D01*
X81649374Y-55722362D01*
X81641238Y-55858723D01*
X81640901Y-55863083D01*
X81627565Y-56003253D01*
X81627103Y-56007374D01*
X81608597Y-56150817D01*
X81608027Y-56154739D01*
X81584386Y-56300984D01*
X81583719Y-56304744D01*
X81554968Y-56453389D01*
X81554209Y-56457017D01*
X81520415Y-56607466D01*
X81519569Y-56610992D01*
X81480758Y-56762863D01*
X81479824Y-56766308D01*
X81436031Y-56919185D01*
X81435008Y-56922574D01*
X81386351Y-57075772D01*
X81385168Y-57079312D01*
X81344709Y-57194555D01*
X81343728Y-57197248D01*
X81296232Y-57323144D01*
X81295049Y-57326161D01*
X81182022Y-57603585D01*
X81180731Y-57606637D01*
X81051486Y-57901087D01*
X81050319Y-57903664D01*
X80912781Y-58198542D01*
X80911545Y-58201115D01*
X80773876Y-58479368D01*
X80772307Y-58482432D01*
X80642470Y-58727494D01*
X80640767Y-58730599D01*
X80582059Y-58834148D01*
X80580379Y-58837021D01*
X80526966Y-58925602D01*
X80524403Y-58929672D01*
X80478221Y-58999946D01*
X80473734Y-59006327D01*
X80435272Y-59057522D01*
X80431160Y-59062701D01*
X80418164Y-59078204D01*
X80405520Y-59092746D01*
X80403281Y-59095245D01*
X80397091Y-59101970D01*
X80337206Y-59137964D01*
X80267368Y-59135869D01*
X80255220Y-59131183D01*
X80248505Y-59128179D01*
X80244160Y-59126134D01*
X80231669Y-59119955D01*
X80224784Y-59116275D01*
X80222366Y-59114883D01*
X80217449Y-59111898D01*
X80216066Y-59111014D01*
X80170182Y-59058323D01*
X80160068Y-58989189D01*
X80160844Y-58984383D01*
X80160972Y-58983678D01*
X80162199Y-58977748D01*
X80163086Y-58973933D01*
X80164459Y-58968572D01*
X80165409Y-58965180D01*
X80167682Y-58957928D01*
X80172072Y-58945292D01*
X80175215Y-58937174D01*
X80181249Y-58923083D01*
X80184342Y-58916414D01*
X80192630Y-58899848D01*
X80195565Y-58894334D01*
X80207508Y-58873195D01*
X80208183Y-58871954D01*
X80273928Y-58749216D01*
X80274534Y-58748038D01*
X80375076Y-58550076D01*
X80632605Y-58026529D01*
X80882195Y-57502985D01*
X80973425Y-57303839D01*
X80974131Y-57302206D01*
X81025436Y-57181079D01*
X81026418Y-57178615D01*
X81082794Y-57027958D01*
X81083370Y-57026316D01*
X81134251Y-56877916D01*
X81134788Y-56876232D01*
X81180314Y-56729869D01*
X81180826Y-56728084D01*
X81220971Y-56583946D01*
X81221451Y-56582056D01*
X81256213Y-56440276D01*
X81256646Y-56438305D01*
X81286029Y-56298989D01*
X81286413Y-56296910D01*
X81310408Y-56160212D01*
X81310731Y-56158029D01*
X81329340Y-56024077D01*
X81329596Y-56021761D01*
X81342816Y-55890711D01*
X81342989Y-55888281D01*
X81350746Y-55761514D01*
X81350848Y-55758996D01*
X81353327Y-55634154D01*
X81353321Y-55631450D01*
X81350429Y-55509952D01*
X81350295Y-55507092D01*
X81342045Y-55389038D01*
X81341763Y-55386042D01*
X81328159Y-55271492D01*
X81327714Y-55268420D01*
X81308771Y-55157555D01*
X81308122Y-55154288D01*
X81283478Y-55045560D01*
X81282921Y-55043381D01*
X81268855Y-54990397D01*
X81268518Y-54989200D01*
X81253968Y-54938458D01*
X81253528Y-54937017D01*
X81238636Y-54889414D01*
X81238095Y-54887801D01*
X81222680Y-54842933D01*
X81222004Y-54841104D01*
X81205917Y-54798684D01*
X81205102Y-54796692D01*
X81188167Y-54756337D01*
X81187207Y-54754215D01*
X81169249Y-54715560D01*
X81168157Y-54713377D01*
X81149572Y-54677176D01*
X81147786Y-54673856D01*
X81127186Y-54637398D01*
X81125908Y-54635282D01*
X81103679Y-54599350D01*
X81102382Y-54597379D01*
X81078281Y-54561551D01*
X81076991Y-54559737D01*
X81050811Y-54523669D01*
X81049594Y-54522074D01*
X81021088Y-54485373D01*
X81019953Y-54483975D01*
X80988930Y-54446333D01*
X80987913Y-54445145D01*
X80954158Y-54406218D01*
X80953280Y-54405237D01*
X80916590Y-54364698D01*
X80894742Y-54340800D01*
X80875428Y-54319214D01*
X80859573Y-54300881D01*
X80857649Y-54298598D01*
X80845091Y-54283326D01*
X80843120Y-54280865D01*
X80838525Y-54274978D01*
X80836942Y-54272905D01*
X80832774Y-54267327D01*
X80830979Y-54264863D01*
X80827585Y-54260080D01*
X80825578Y-54257164D01*
X80824514Y-54255570D01*
X80803667Y-54188882D01*
X80813882Y-54137399D01*
X80816500Y-54131361D01*
X80819277Y-54125394D01*
X80821906Y-54120117D01*
X80824684Y-54114861D01*
X80827305Y-54110177D01*
X80830634Y-54104578D01*
X80830938Y-54104096D01*
X80883351Y-54057894D01*
X80952422Y-54047362D01*
X80969885Y-54051017D01*
G37*
G36*
X82253619Y-53348698D02*
G01*
X82345788Y-53350049D01*
X82383239Y-53350962D01*
X82393562Y-53351357D01*
X82459769Y-53373681D01*
X82503398Y-53428255D01*
X82510595Y-53497753D01*
X82479076Y-53560110D01*
X82418849Y-53595527D01*
X82409328Y-53597524D01*
X82343868Y-53608594D01*
X82337318Y-53609523D01*
X81869972Y-53663111D01*
X79184449Y-53920199D01*
X77377512Y-54098461D01*
X75756774Y-54282677D01*
X75001656Y-54378878D01*
X74275603Y-54478800D01*
X73572783Y-54583186D01*
X72887366Y-54692782D01*
X72173214Y-54807710D01*
X71534463Y-54900479D01*
X71236337Y-54939485D01*
X70948631Y-54974066D01*
X70668531Y-55004597D01*
X70393227Y-55031449D01*
X70305376Y-55039329D01*
X70226713Y-55045704D01*
X70156746Y-55050479D01*
X70124852Y-55052237D01*
X70094992Y-55053554D01*
X70067029Y-55054423D01*
X70040935Y-55054829D01*
X70018040Y-55054764D01*
X70015464Y-55054728D01*
X69995851Y-55054246D01*
X69992634Y-55054125D01*
X69975333Y-55053250D01*
X69971531Y-55052999D01*
X69956489Y-55051774D01*
X69951961Y-55051321D01*
X69939287Y-55049819D01*
X69933965Y-55049071D01*
X69929577Y-55048357D01*
X69866569Y-55018161D01*
X69829889Y-54958695D01*
X69831182Y-54888837D01*
X69870037Y-54830768D01*
X69906681Y-54809592D01*
X69925030Y-54802842D01*
X69933747Y-54799996D01*
X69961879Y-54791951D01*
X69968381Y-54790281D01*
X70004965Y-54781931D01*
X70009764Y-54780935D01*
X70054647Y-54772542D01*
X70058187Y-54771933D01*
X70111092Y-54763618D01*
X70114707Y-54763104D01*
X70248289Y-54746122D01*
X70251085Y-54745799D01*
X70421453Y-54728059D01*
X70885577Y-54675639D01*
X71377485Y-54610319D01*
X72038720Y-54511267D01*
X73010841Y-54357643D01*
X74057708Y-54195365D01*
X74472333Y-54133408D01*
X74739456Y-54096586D01*
X75795196Y-53971131D01*
X77332809Y-53802018D01*
X78892252Y-53638197D01*
X80013480Y-53528615D01*
X80883517Y-53448798D01*
X81253217Y-53414017D01*
X81512787Y-53387504D01*
X81611188Y-53378601D01*
X81713878Y-53370525D01*
X81817889Y-53363442D01*
X81920252Y-53357517D01*
X82017983Y-53352915D01*
X82108110Y-53349800D01*
X82186177Y-53348365D01*
X82189103Y-53348347D01*
X82253619Y-53348698D01*
G37*
M02*
