G04 #@! TF.GenerationSoftware,KiCad,Pcbnew,8.0.2*
G04 #@! TF.CreationDate,2024-06-12T11:35:42-07:00*
G04 #@! TF.ProjectId,fuck-sao,6675636b-2d73-4616-9f2e-6b696361645f,rev?*
G04 #@! TF.SameCoordinates,Original*
G04 #@! TF.FileFunction,Paste,Top*
G04 #@! TF.FilePolarity,Positive*
%FSLAX46Y46*%
G04 Gerber Fmt 4.6, Leading zero omitted, Abs format (unit mm)*
G04 Created by KiCad (PCBNEW 8.0.2) date 2024-06-12 11:35:42*
%MOMM*%
%LPD*%
G01*
G04 APERTURE LIST*
G04 Aperture macros list*
%AMRoundRect*
0 Rectangle with rounded corners*
0 $1 Rounding radius*
0 $2 $3 $4 $5 $6 $7 $8 $9 X,Y pos of 4 corners*
0 Add a 4 corners polygon primitive as box body*
4,1,4,$2,$3,$4,$5,$6,$7,$8,$9,$2,$3,0*
0 Add four circle primitives for the rounded corners*
1,1,$1+$1,$2,$3*
1,1,$1+$1,$4,$5*
1,1,$1+$1,$6,$7*
1,1,$1+$1,$8,$9*
0 Add four rect primitives between the rounded corners*
20,1,$1+$1,$2,$3,$4,$5,0*
20,1,$1+$1,$4,$5,$6,$7,0*
20,1,$1+$1,$6,$7,$8,$9,0*
20,1,$1+$1,$8,$9,$2,$3,0*%
%AMFreePoly0*
4,1,14,0.334644,0.085355,0.385355,0.034644,0.400000,-0.000711,0.400000,-0.050000,0.385355,-0.085355,0.350000,-0.100000,-0.350000,-0.100000,-0.385355,-0.085355,-0.400000,-0.050000,-0.400000,0.050000,-0.385355,0.085355,-0.350000,0.100000,0.299289,0.100000,0.334644,0.085355,0.334644,0.085355,$1*%
%AMFreePoly1*
4,1,14,0.385355,0.085355,0.400000,0.050000,0.400000,0.000711,0.385355,-0.034644,0.334644,-0.085355,0.299289,-0.100000,-0.350000,-0.100000,-0.385355,-0.085355,-0.400000,-0.050000,-0.400000,0.050000,-0.385355,0.085355,-0.350000,0.100000,0.350000,0.100000,0.385355,0.085355,0.385355,0.085355,$1*%
%AMFreePoly2*
4,1,14,0.085355,0.385355,0.100000,0.350000,0.100000,-0.350000,0.085355,-0.385355,0.050000,-0.400000,-0.050000,-0.400000,-0.085355,-0.385355,-0.100000,-0.350000,-0.100000,0.299289,-0.085355,0.334644,-0.034644,0.385355,0.000711,0.400000,0.050000,0.400000,0.085355,0.385355,0.085355,0.385355,$1*%
%AMFreePoly3*
4,1,14,0.034644,0.385355,0.085355,0.334644,0.100000,0.299289,0.100000,-0.350000,0.085355,-0.385355,0.050000,-0.400000,-0.050000,-0.400000,-0.085355,-0.385355,-0.100000,-0.350000,-0.100000,0.350000,-0.085355,0.385355,-0.050000,0.400000,-0.000711,0.400000,0.034644,0.385355,0.034644,0.385355,$1*%
%AMFreePoly4*
4,1,14,0.385355,0.085355,0.400000,0.050000,0.400000,-0.050000,0.385355,-0.085355,0.350000,-0.100000,-0.299289,-0.100000,-0.334644,-0.085355,-0.385355,-0.034644,-0.400000,0.000711,-0.400000,0.050000,-0.385355,0.085355,-0.350000,0.100000,0.350000,0.100000,0.385355,0.085355,0.385355,0.085355,$1*%
%AMFreePoly5*
4,1,14,0.385355,0.085355,0.400000,0.050000,0.400000,-0.050000,0.385355,-0.085355,0.350000,-0.100000,-0.350000,-0.100000,-0.385355,-0.085355,-0.400000,-0.050000,-0.400000,-0.000711,-0.385355,0.034644,-0.334644,0.085355,-0.299289,0.100000,0.350000,0.100000,0.385355,0.085355,0.385355,0.085355,$1*%
%AMFreePoly6*
4,1,14,0.085355,0.385355,0.100000,0.350000,0.100000,-0.299289,0.085355,-0.334644,0.034644,-0.385355,-0.000711,-0.400000,-0.050000,-0.400000,-0.085355,-0.385355,-0.100000,-0.350000,-0.100000,0.350000,-0.085355,0.385355,-0.050000,0.400000,0.050000,0.400000,0.085355,0.385355,0.085355,0.385355,$1*%
%AMFreePoly7*
4,1,14,0.085355,0.385355,0.100000,0.350000,0.100000,-0.350000,0.085355,-0.385355,0.050000,-0.400000,0.000711,-0.400000,-0.034644,-0.385355,-0.085355,-0.334644,-0.100000,-0.299289,-0.100000,0.350000,-0.085355,0.385355,-0.050000,0.400000,0.050000,0.400000,0.085355,0.385355,0.085355,0.385355,$1*%
G04 Aperture macros list end*
%ADD10RoundRect,0.200000X0.335876X0.053033X0.053033X0.335876X-0.335876X-0.053033X-0.053033X-0.335876X0*%
%ADD11RoundRect,0.200000X-0.053033X0.335876X-0.335876X0.053033X0.053033X-0.335876X0.335876X-0.053033X0*%
%ADD12RoundRect,0.218750X-0.218750X-0.256250X0.218750X-0.256250X0.218750X0.256250X-0.218750X0.256250X0*%
%ADD13RoundRect,0.200000X-0.200000X-0.275000X0.200000X-0.275000X0.200000X0.275000X-0.200000X0.275000X0*%
%ADD14RoundRect,0.172500X0.172500X0.172500X-0.172500X0.172500X-0.172500X-0.172500X0.172500X-0.172500X0*%
%ADD15FreePoly0,180.000000*%
%ADD16RoundRect,0.050000X0.350000X0.050000X-0.350000X0.050000X-0.350000X-0.050000X0.350000X-0.050000X0*%
%ADD17FreePoly1,180.000000*%
%ADD18FreePoly2,180.000000*%
%ADD19RoundRect,0.050000X0.050000X0.350000X-0.050000X0.350000X-0.050000X-0.350000X0.050000X-0.350000X0*%
%ADD20FreePoly3,180.000000*%
%ADD21FreePoly4,180.000000*%
%ADD22FreePoly5,180.000000*%
%ADD23FreePoly6,180.000000*%
%ADD24FreePoly7,180.000000*%
%ADD25RoundRect,0.200000X0.200000X0.275000X-0.200000X0.275000X-0.200000X-0.275000X0.200000X-0.275000X0*%
%ADD26RoundRect,0.200000X0.053033X-0.335876X0.335876X-0.053033X-0.053033X0.335876X-0.335876X0.053033X0*%
%ADD27RoundRect,0.200000X0.275000X-0.200000X0.275000X0.200000X-0.275000X0.200000X-0.275000X-0.200000X0*%
%ADD28RoundRect,0.225000X0.250000X-0.225000X0.250000X0.225000X-0.250000X0.225000X-0.250000X-0.225000X0*%
G04 APERTURE END LIST*
D10*
X129133363Y-85983363D03*
X127966637Y-84816637D03*
D11*
X132583363Y-93216637D03*
X131416637Y-94383363D03*
D12*
X121162500Y-79250000D03*
X122737500Y-79250000D03*
X66262500Y-84750000D03*
X67837500Y-84750000D03*
D13*
X134275000Y-92800000D03*
X135925000Y-92800000D03*
D10*
X133083363Y-85683363D03*
X131916637Y-84516637D03*
D14*
X132975000Y-90375000D03*
X132975000Y-89525000D03*
X132125000Y-90375000D03*
X132125000Y-89525000D03*
D15*
X134000000Y-90750000D03*
D16*
X134000000Y-90350000D03*
X134000000Y-89950000D03*
X134000000Y-89550000D03*
D17*
X134000000Y-89150000D03*
D18*
X133350000Y-88500000D03*
D19*
X132950000Y-88500000D03*
X132550000Y-88500000D03*
X132150000Y-88500000D03*
D20*
X131750000Y-88500000D03*
D21*
X131100000Y-89150000D03*
D16*
X131100000Y-89550000D03*
X131100000Y-89950000D03*
X131100000Y-90350000D03*
D22*
X131100000Y-90750000D03*
D23*
X131750000Y-91400000D03*
D19*
X132150000Y-91400000D03*
X132550000Y-91400000D03*
X132950000Y-91400000D03*
D24*
X133350000Y-91400000D03*
D25*
X129725000Y-91150000D03*
X128075000Y-91150000D03*
D12*
X106312500Y-84750000D03*
X107887500Y-84750000D03*
X81812500Y-79250000D03*
X83387500Y-79250000D03*
X98012500Y-79250000D03*
X99587500Y-79250000D03*
D25*
X129775000Y-89250000D03*
X128125000Y-89250000D03*
D12*
X79762500Y-90300000D03*
X81337500Y-90300000D03*
X78150000Y-84750000D03*
X79725000Y-84750000D03*
X108012500Y-79250000D03*
X109587500Y-79250000D03*
D25*
X129725000Y-92650000D03*
X128075000Y-92650000D03*
X126675000Y-90200000D03*
X125025000Y-90200000D03*
D12*
X66212500Y-79250000D03*
X67787500Y-79250000D03*
D25*
X126675000Y-88500000D03*
X125025000Y-88500000D03*
D12*
X93612500Y-73750000D03*
X95187500Y-73750000D03*
X111662500Y-73750000D03*
X113237500Y-73750000D03*
D26*
X134166637Y-86633363D03*
X135333363Y-85466637D03*
D13*
X135375000Y-90900000D03*
X137025000Y-90900000D03*
D12*
X79462500Y-73750000D03*
X81037500Y-73750000D03*
D27*
X137000000Y-88475000D03*
X137000000Y-86825000D03*
D28*
X135450000Y-89375000D03*
X135450000Y-87825000D03*
D10*
X132033363Y-86783363D03*
X130866637Y-85616637D03*
D12*
X66212500Y-73750000D03*
X67787500Y-73750000D03*
D25*
X129775000Y-87700000D03*
X128125000Y-87700000D03*
M02*
