G04 #@! TF.GenerationSoftware,KiCad,Pcbnew,7.0.2*
G04 #@! TF.CreationDate,2024-03-21T22:15:59-07:00*
G04 #@! TF.ProjectId,fuck-sao,6675636b-2d73-4616-9f2e-6b696361645f,rev?*
G04 #@! TF.SameCoordinates,Original*
G04 #@! TF.FileFunction,Copper,L2,Bot*
G04 #@! TF.FilePolarity,Positive*
%FSLAX46Y46*%
G04 Gerber Fmt 4.6, Leading zero omitted, Abs format (unit mm)*
G04 Created by KiCad (PCBNEW 7.0.2) date 2024-03-21 22:15:59*
%MOMM*%
%LPD*%
G01*
G04 APERTURE LIST*
G04 #@! TA.AperFunction,ComponentPad*
%ADD10R,1.700000X1.700000*%
G04 #@! TD*
G04 #@! TA.AperFunction,ComponentPad*
%ADD11O,1.700000X1.700000*%
G04 #@! TD*
G04 #@! TA.AperFunction,ViaPad*
%ADD12C,0.800000*%
G04 #@! TD*
G04 #@! TA.AperFunction,Conductor*
%ADD13C,0.200000*%
G04 #@! TD*
G04 APERTURE END LIST*
D10*
X116550000Y-92700000D03*
D11*
X119090000Y-92700000D03*
X121630000Y-92700000D03*
D10*
X98720000Y-88510000D03*
D11*
X98720000Y-91050000D03*
X101260000Y-88510000D03*
X101260000Y-91050000D03*
X103800000Y-88510000D03*
X103800000Y-91050000D03*
D12*
X135800000Y-87000000D03*
X136800000Y-89500000D03*
X132925000Y-89925000D03*
X98000000Y-78200000D03*
X108000000Y-78250000D03*
X106350000Y-83650000D03*
X111700000Y-72650000D03*
X66250000Y-83600000D03*
X93600000Y-72550000D03*
X121200000Y-78200000D03*
X79450000Y-72550000D03*
X66200000Y-72600000D03*
X79800000Y-89250000D03*
X66200000Y-78100000D03*
X81800000Y-78200000D03*
X78144287Y-83599500D03*
D13*
X100010000Y-89800000D02*
X113650000Y-89800000D01*
X113650000Y-89800000D02*
X116550000Y-92700000D01*
X98720000Y-88510000D02*
X100010000Y-89800000D01*
X132450000Y-93850000D02*
X136800000Y-89500000D01*
X117700000Y-93850000D02*
X132450000Y-93850000D01*
X116550000Y-92700000D02*
X117700000Y-93850000D01*
G04 #@! TA.AperFunction,Conductor*
G36*
X132698145Y-42150493D02*
G01*
X132698169Y-42150500D01*
X132747575Y-42150500D01*
X132752443Y-42150596D01*
X132991852Y-42160002D01*
X133222173Y-42169529D01*
X133231571Y-42170278D01*
X133473133Y-42198870D01*
X133702368Y-42227444D01*
X133711156Y-42228864D01*
X133949979Y-42276370D01*
X134176277Y-42323819D01*
X134184457Y-42325828D01*
X134342253Y-42370331D01*
X134418993Y-42391974D01*
X134640895Y-42458037D01*
X134648400Y-42460535D01*
X134877265Y-42544968D01*
X135093148Y-42629207D01*
X135099967Y-42632106D01*
X135320464Y-42733756D01*
X135322903Y-42734914D01*
X135530180Y-42836245D01*
X135536241Y-42839421D01*
X135748057Y-42958044D01*
X135750853Y-42959659D01*
X135949040Y-43077753D01*
X135954420Y-43081150D01*
X136156284Y-43216031D01*
X136159373Y-43218166D01*
X136347098Y-43352199D01*
X136351768Y-43355704D01*
X136430682Y-43417914D01*
X136542387Y-43505976D01*
X136545748Y-43508722D01*
X136721759Y-43657796D01*
X136725764Y-43661341D01*
X136903973Y-43826076D01*
X136907483Y-43829451D01*
X137070547Y-43992515D01*
X137073922Y-43996025D01*
X137238657Y-44174234D01*
X137242208Y-44178246D01*
X137385021Y-44346865D01*
X137391266Y-44354238D01*
X137394022Y-44357611D01*
X137544285Y-44548218D01*
X137547810Y-44552915D01*
X137681814Y-44740599D01*
X137683982Y-44743737D01*
X137818845Y-44945574D01*
X137822259Y-44950980D01*
X137937625Y-45144589D01*
X137940298Y-45149074D01*
X137941964Y-45151959D01*
X137973577Y-45208407D01*
X138059864Y-45362484D01*
X138060559Y-45363724D01*
X138063771Y-45369853D01*
X138165059Y-45577042D01*
X138166268Y-45579589D01*
X138267890Y-45800026D01*
X138270797Y-45806864D01*
X138355041Y-46022763D01*
X138439459Y-46251588D01*
X138441964Y-46259114D01*
X138508025Y-46481006D01*
X138574167Y-46715528D01*
X138576182Y-46723733D01*
X138623630Y-46950022D01*
X138671128Y-47188811D01*
X138672558Y-47197661D01*
X138701137Y-47426927D01*
X138729718Y-47668401D01*
X138730471Y-47677851D01*
X138740014Y-47908577D01*
X138749404Y-48147555D01*
X138749500Y-48152424D01*
X138749500Y-89262292D01*
X138749404Y-89267161D01*
X138740003Y-89506400D01*
X138730470Y-89736850D01*
X138729717Y-89746299D01*
X138701135Y-89987792D01*
X138672554Y-90217061D01*
X138671124Y-90225913D01*
X138623645Y-90464602D01*
X138576176Y-90690991D01*
X138574160Y-90699200D01*
X138508019Y-90933715D01*
X138441964Y-91155585D01*
X138439457Y-91163114D01*
X138355031Y-91391963D01*
X138270793Y-91607846D01*
X138267889Y-91614674D01*
X138166232Y-91835182D01*
X138165024Y-91837728D01*
X138063782Y-92044823D01*
X138060570Y-92050952D01*
X137941957Y-92262749D01*
X137940291Y-92265634D01*
X137822250Y-92463733D01*
X137818829Y-92469150D01*
X137683985Y-92670955D01*
X137681800Y-92674117D01*
X137547815Y-92861775D01*
X137544277Y-92866490D01*
X137394002Y-93057113D01*
X137391245Y-93060487D01*
X137242240Y-93236415D01*
X137238674Y-93240445D01*
X137073894Y-93418702D01*
X137070519Y-93422211D01*
X136907487Y-93585243D01*
X136903977Y-93588618D01*
X136725755Y-93753364D01*
X136721725Y-93756931D01*
X136545751Y-93905973D01*
X136542378Y-93908729D01*
X136351790Y-94058977D01*
X136347075Y-94062516D01*
X136159375Y-94196530D01*
X136156213Y-94198714D01*
X135954445Y-94333531D01*
X135949028Y-94336952D01*
X135750904Y-94455008D01*
X135748019Y-94456674D01*
X135536257Y-94575267D01*
X135530128Y-94578479D01*
X135322962Y-94679756D01*
X135320416Y-94680965D01*
X135099967Y-94782593D01*
X135093128Y-94785500D01*
X134877236Y-94869742D01*
X134648397Y-94954165D01*
X134640871Y-94956670D01*
X134418965Y-95022734D01*
X134184476Y-95088865D01*
X134176272Y-95090879D01*
X133949913Y-95138343D01*
X133711184Y-95185828D01*
X133702335Y-95187258D01*
X133473072Y-95215836D01*
X133231586Y-95244419D01*
X133222141Y-95245172D01*
X132995802Y-95254542D01*
X132752000Y-95264120D01*
X132747118Y-95264216D01*
X69745057Y-95256859D01*
X69740203Y-95256763D01*
X69501218Y-95247373D01*
X69270492Y-95237830D01*
X69261045Y-95237077D01*
X69019646Y-95208505D01*
X68872407Y-95190152D01*
X68790303Y-95179918D01*
X68781452Y-95178487D01*
X68542727Y-95131002D01*
X68316357Y-95083537D01*
X68308148Y-95081521D01*
X68073665Y-95015390D01*
X67851758Y-94949325D01*
X67844229Y-94946818D01*
X67615411Y-94862404D01*
X67399469Y-94778143D01*
X67392675Y-94775254D01*
X67188146Y-94680965D01*
X67172255Y-94673639D01*
X67169709Y-94672430D01*
X66962514Y-94571139D01*
X66956385Y-94567928D01*
X66744589Y-94449317D01*
X66741704Y-94447650D01*
X66616044Y-94372773D01*
X66543611Y-94329612D01*
X66538200Y-94326195D01*
X66336388Y-94191348D01*
X66333226Y-94189163D01*
X66145571Y-94055180D01*
X66140856Y-94051642D01*
X65950238Y-93901370D01*
X65946865Y-93898614D01*
X65821375Y-93792330D01*
X65770919Y-93749595D01*
X65766896Y-93746035D01*
X65588639Y-93581256D01*
X65585129Y-93577881D01*
X65422117Y-93414869D01*
X65418742Y-93411359D01*
X65253963Y-93233102D01*
X65250409Y-93229086D01*
X65101382Y-93053131D01*
X65098628Y-93049760D01*
X64948356Y-92859142D01*
X64944818Y-92854427D01*
X64810835Y-92666772D01*
X64808650Y-92663610D01*
X64673786Y-92461771D01*
X64670400Y-92456409D01*
X64552333Y-92258268D01*
X64550681Y-92255409D01*
X64547706Y-92250097D01*
X64432070Y-92043613D01*
X64428859Y-92037484D01*
X64427102Y-92033891D01*
X64327568Y-91830289D01*
X64326360Y-91827744D01*
X64314551Y-91802128D01*
X64224731Y-91607293D01*
X64221868Y-91600559D01*
X64137598Y-91384596D01*
X64053163Y-91155725D01*
X64050678Y-91148258D01*
X63984609Y-90926333D01*
X63926192Y-90719202D01*
X63918476Y-90691844D01*
X63916462Y-90683643D01*
X63868997Y-90457272D01*
X63834561Y-90284151D01*
X63821507Y-90218521D01*
X63820081Y-90209696D01*
X63791511Y-89980492D01*
X63762916Y-89738904D01*
X63762170Y-89729534D01*
X63752643Y-89499211D01*
X63748925Y-89404578D01*
X97369500Y-89404578D01*
X97369501Y-89407872D01*
X97369853Y-89411152D01*
X97369854Y-89411159D01*
X97375909Y-89467484D01*
X97387534Y-89498651D01*
X97426204Y-89602331D01*
X97512454Y-89717546D01*
X97627669Y-89803796D01*
X97759598Y-89853002D01*
X97815532Y-89894873D01*
X97839949Y-89960337D01*
X97825097Y-90028610D01*
X97803947Y-90056865D01*
X97681888Y-90178924D01*
X97546400Y-90372421D01*
X97446569Y-90586507D01*
X97389364Y-90799999D01*
X97389364Y-90800000D01*
X98286314Y-90800000D01*
X98260507Y-90840156D01*
X98220000Y-90978111D01*
X98220000Y-91121889D01*
X98260507Y-91259844D01*
X98286314Y-91300000D01*
X97389364Y-91300000D01*
X97446569Y-91513492D01*
X97546399Y-91727576D01*
X97681893Y-91921081D01*
X97848918Y-92088106D01*
X98042423Y-92223600D01*
X98256509Y-92323430D01*
X98470000Y-92380634D01*
X98470000Y-91485501D01*
X98577685Y-91534680D01*
X98684237Y-91550000D01*
X98755763Y-91550000D01*
X98862315Y-91534680D01*
X98970000Y-91485501D01*
X98970000Y-92380633D01*
X99183490Y-92323430D01*
X99397576Y-92223600D01*
X99591081Y-92088106D01*
X99758109Y-91921078D01*
X99888119Y-91735405D01*
X99942696Y-91691780D01*
X100012194Y-91684586D01*
X100074549Y-91716109D01*
X100091265Y-91735400D01*
X100221505Y-91921401D01*
X100388599Y-92088495D01*
X100582170Y-92224035D01*
X100796337Y-92323903D01*
X101024592Y-92385063D01*
X101260000Y-92405659D01*
X101495408Y-92385063D01*
X101723663Y-92323903D01*
X101937830Y-92224035D01*
X102131401Y-92088495D01*
X102298495Y-91921401D01*
X102428427Y-91735838D01*
X102483001Y-91692216D01*
X102552499Y-91685022D01*
X102614854Y-91716545D01*
X102631572Y-91735838D01*
X102761505Y-91921401D01*
X102928599Y-92088495D01*
X103122170Y-92224035D01*
X103336337Y-92323903D01*
X103564592Y-92385063D01*
X103800000Y-92405659D01*
X104035408Y-92385063D01*
X104263663Y-92323903D01*
X104477830Y-92224035D01*
X104671401Y-92088495D01*
X104838495Y-91921401D01*
X104974035Y-91727830D01*
X105073903Y-91513663D01*
X105135063Y-91285408D01*
X105155659Y-91050000D01*
X105141432Y-90887394D01*
X105135063Y-90814592D01*
X105131153Y-90799999D01*
X105073903Y-90586337D01*
X105069505Y-90576905D01*
X105059013Y-90507827D01*
X105087533Y-90444043D01*
X105146009Y-90405804D01*
X105181887Y-90400500D01*
X113349903Y-90400500D01*
X113416942Y-90420185D01*
X113437584Y-90436819D01*
X115163181Y-92162416D01*
X115196666Y-92223739D01*
X115199500Y-92250097D01*
X115199500Y-93594560D01*
X115199500Y-93594578D01*
X115199501Y-93597872D01*
X115199853Y-93601152D01*
X115199854Y-93601159D01*
X115205909Y-93657484D01*
X115231056Y-93724906D01*
X115256204Y-93792331D01*
X115342454Y-93907546D01*
X115457669Y-93993796D01*
X115592517Y-94044091D01*
X115652127Y-94050500D01*
X116999902Y-94050499D01*
X117066941Y-94070184D01*
X117087583Y-94086818D01*
X117241799Y-94241034D01*
X117252494Y-94253229D01*
X117271717Y-94278282D01*
X117394862Y-94372773D01*
X117394863Y-94372774D01*
X117397159Y-94374536D01*
X117543238Y-94435044D01*
X117621619Y-94445363D01*
X117699999Y-94455682D01*
X117699999Y-94455681D01*
X117700000Y-94455682D01*
X117731302Y-94451560D01*
X117747487Y-94450500D01*
X132402513Y-94450500D01*
X132418697Y-94451560D01*
X132450000Y-94455682D01*
X132606762Y-94435044D01*
X132752841Y-94374536D01*
X132755137Y-94372774D01*
X132878282Y-94278282D01*
X132897509Y-94253223D01*
X132908190Y-94241043D01*
X136712415Y-90436819D01*
X136773739Y-90403334D01*
X136800097Y-90400500D01*
X136894648Y-90400500D01*
X137026748Y-90372421D01*
X137079803Y-90361144D01*
X137252730Y-90284151D01*
X137296366Y-90252448D01*
X137405870Y-90172889D01*
X137532533Y-90032216D01*
X137627179Y-89868284D01*
X137629708Y-89860500D01*
X137685674Y-89688256D01*
X137705460Y-89500000D01*
X137685674Y-89311744D01*
X137654225Y-89214956D01*
X137627179Y-89131715D01*
X137532533Y-88967783D01*
X137405870Y-88827110D01*
X137252730Y-88715848D01*
X137079802Y-88638855D01*
X136894648Y-88599500D01*
X136894646Y-88599500D01*
X136705354Y-88599500D01*
X136705352Y-88599500D01*
X136520197Y-88638855D01*
X136347269Y-88715848D01*
X136194129Y-88827110D01*
X136067466Y-88967783D01*
X135972820Y-89131715D01*
X135914326Y-89311742D01*
X135914325Y-89311744D01*
X135914326Y-89311744D01*
X135897958Y-89467484D01*
X135893178Y-89512961D01*
X135889944Y-89512621D01*
X135881132Y-89560792D01*
X135858065Y-89592698D01*
X132237584Y-93213181D01*
X132176261Y-93246666D01*
X132149903Y-93249500D01*
X123041985Y-93249500D01*
X122974946Y-93229815D01*
X122929191Y-93177011D01*
X122919247Y-93107853D01*
X122922210Y-93093406D01*
X122960636Y-92950000D01*
X122063686Y-92950000D01*
X122089493Y-92909844D01*
X122130000Y-92771889D01*
X122130000Y-92628111D01*
X122089493Y-92490156D01*
X122063686Y-92450000D01*
X122960636Y-92450000D01*
X122960635Y-92449999D01*
X122903430Y-92236507D01*
X122803599Y-92022421D01*
X122668109Y-91828921D01*
X122501081Y-91661893D01*
X122307576Y-91526399D01*
X122093492Y-91426569D01*
X121880000Y-91369364D01*
X121880000Y-92264498D01*
X121772315Y-92215320D01*
X121665763Y-92200000D01*
X121594237Y-92200000D01*
X121487685Y-92215320D01*
X121379999Y-92264498D01*
X121379999Y-91369364D01*
X121379998Y-91369364D01*
X121166507Y-91426569D01*
X120952421Y-91526400D01*
X120758921Y-91661890D01*
X120591893Y-91828918D01*
X120461880Y-92014596D01*
X120407303Y-92058220D01*
X120337804Y-92065413D01*
X120275450Y-92033891D01*
X120258730Y-92014595D01*
X120128494Y-91828598D01*
X119961404Y-91661508D01*
X119961401Y-91661505D01*
X119767830Y-91525965D01*
X119553663Y-91426097D01*
X119492501Y-91409709D01*
X119325407Y-91364936D01*
X119090000Y-91344340D01*
X118854592Y-91364936D01*
X118626336Y-91426097D01*
X118412170Y-91525965D01*
X118218601Y-91661503D01*
X118096673Y-91783431D01*
X118035350Y-91816915D01*
X117965658Y-91811931D01*
X117909725Y-91770059D01*
X117892810Y-91739082D01*
X117875167Y-91691780D01*
X117843796Y-91607669D01*
X117757546Y-91492454D01*
X117642331Y-91406204D01*
X117507483Y-91355909D01*
X117447873Y-91349500D01*
X117444551Y-91349500D01*
X116100097Y-91349500D01*
X116033058Y-91329815D01*
X116012416Y-91313181D01*
X114108199Y-89408964D01*
X114097503Y-89396768D01*
X114078281Y-89371716D01*
X113952840Y-89275463D01*
X113806762Y-89214956D01*
X113689361Y-89199500D01*
X113650000Y-89194317D01*
X113622163Y-89197982D01*
X113618697Y-89198439D01*
X113602513Y-89199500D01*
X105163234Y-89199500D01*
X105096195Y-89179815D01*
X105050440Y-89127011D01*
X105040496Y-89057853D01*
X105050852Y-89023095D01*
X105073903Y-88973663D01*
X105135063Y-88745408D01*
X105155659Y-88510000D01*
X105135063Y-88274592D01*
X105073903Y-88046337D01*
X104974035Y-87832171D01*
X104838495Y-87638599D01*
X104671401Y-87471505D01*
X104477830Y-87335965D01*
X104263663Y-87236097D01*
X104202501Y-87219709D01*
X104035407Y-87174936D01*
X103799999Y-87154340D01*
X103564592Y-87174936D01*
X103336336Y-87236097D01*
X103122170Y-87335965D01*
X102928598Y-87471505D01*
X102761505Y-87638598D01*
X102631575Y-87824159D01*
X102576998Y-87867784D01*
X102507500Y-87874978D01*
X102445145Y-87843455D01*
X102428425Y-87824159D01*
X102298494Y-87638598D01*
X102131404Y-87471508D01*
X102131401Y-87471505D01*
X101937830Y-87335965D01*
X101723663Y-87236097D01*
X101662502Y-87219709D01*
X101495407Y-87174936D01*
X101260000Y-87154340D01*
X101024592Y-87174936D01*
X100796336Y-87236097D01*
X100582170Y-87335965D01*
X100388601Y-87471503D01*
X100266673Y-87593431D01*
X100205350Y-87626915D01*
X100135658Y-87621931D01*
X100079725Y-87580059D01*
X100062810Y-87549082D01*
X100055658Y-87529907D01*
X100013796Y-87417669D01*
X99927546Y-87302454D01*
X99812331Y-87216204D01*
X99677483Y-87165909D01*
X99617873Y-87159500D01*
X99614550Y-87159500D01*
X97825439Y-87159500D01*
X97825420Y-87159500D01*
X97822128Y-87159501D01*
X97818848Y-87159853D01*
X97818840Y-87159854D01*
X97762515Y-87165909D01*
X97627669Y-87216204D01*
X97512454Y-87302454D01*
X97426204Y-87417668D01*
X97426203Y-87417669D01*
X97426204Y-87417669D01*
X97375909Y-87552517D01*
X97369500Y-87612127D01*
X97369500Y-87615448D01*
X97369500Y-87615449D01*
X97369500Y-89404560D01*
X97369500Y-89404578D01*
X63748925Y-89404578D01*
X63743237Y-89259802D01*
X63743141Y-89254934D01*
X63743141Y-48145065D01*
X63743237Y-48140197D01*
X63752632Y-47901069D01*
X63762170Y-47670463D01*
X63762919Y-47661073D01*
X63791508Y-47419526D01*
X63820086Y-47190264D01*
X63821504Y-47181491D01*
X63869004Y-46942688D01*
X63916467Y-46716330D01*
X63918468Y-46708182D01*
X63984616Y-46473639D01*
X64050678Y-46251741D01*
X64053174Y-46244246D01*
X64137611Y-46015367D01*
X64221874Y-45799424D01*
X64224719Y-45792731D01*
X64326422Y-45572120D01*
X64327539Y-45569768D01*
X64428874Y-45362484D01*
X64432054Y-45356415D01*
X64550733Y-45144497D01*
X64552295Y-45141795D01*
X64670421Y-44943554D01*
X64673763Y-44938263D01*
X64808695Y-44736322D01*
X64810789Y-44733292D01*
X64944848Y-44545530D01*
X64948324Y-44540897D01*
X65098648Y-44350212D01*
X65101336Y-44346923D01*
X65250448Y-44170866D01*
X65253933Y-44166928D01*
X65418791Y-43988587D01*
X65422066Y-43985181D01*
X65585181Y-43822066D01*
X65588587Y-43818791D01*
X65766928Y-43653933D01*
X65770866Y-43650448D01*
X65946923Y-43501336D01*
X65950212Y-43498648D01*
X66140897Y-43348324D01*
X66145530Y-43344848D01*
X66333292Y-43210789D01*
X66336322Y-43208695D01*
X66538263Y-43073763D01*
X66543554Y-43070421D01*
X66741795Y-42952295D01*
X66744497Y-42950733D01*
X66956415Y-42832054D01*
X66962484Y-42828874D01*
X67169767Y-42727540D01*
X67172159Y-42726404D01*
X67392730Y-42624719D01*
X67399400Y-42621883D01*
X67615400Y-42537599D01*
X67844265Y-42453167D01*
X67851722Y-42450684D01*
X68073599Y-42384627D01*
X68308175Y-42318470D01*
X68316344Y-42316464D01*
X68542706Y-42269001D01*
X68781487Y-42221505D01*
X68790282Y-42220084D01*
X69019545Y-42191506D01*
X69261099Y-42162916D01*
X69270460Y-42162170D01*
X69501213Y-42152626D01*
X69740204Y-42143236D01*
X69745056Y-42143141D01*
X132698145Y-42150493D01*
G37*
G04 #@! TD.AperFunction*
M02*
