M48
; DRILL file {KiCad 7.0.2} date Thu Mar 21 22:16:05 2024
; FORMAT={-:-/ absolute / metric / decimal}
; #@! TF.CreationDate,2024-03-21T22:16:05-07:00
; #@! TF.GenerationSoftware,Kicad,Pcbnew,7.0.2
; #@! TF.FileFunction,Plated,1,2,PTH
FMAT,2
METRIC
; #@! TA.AperFunction,Plated,PTH,ViaDrill
T1C0.400
; #@! TA.AperFunction,Plated,PTH,ComponentDrill
T2C1.000
%
G90
G05
T1
X66.2Y-72.6
X66.2Y-78.1
X66.25Y-83.6
X78.144Y-83.599
X79.45Y-72.55
X79.8Y-89.25
X81.8Y-78.2
X93.6Y-72.55
X98.0Y-78.2
X106.35Y-83.65
X108.0Y-78.25
X111.7Y-72.65
X121.2Y-78.2
X132.925Y-89.925
X135.8Y-87.0
X136.8Y-89.5
T2
X98.72Y-88.51
X98.72Y-91.05
X101.26Y-88.51
X101.26Y-91.05
X103.8Y-88.51
X103.8Y-91.05
X116.55Y-92.7
X119.09Y-92.7
X121.63Y-92.7
T0
M30
