G04 #@! TF.GenerationSoftware,KiCad,Pcbnew,7.0.2*
G04 #@! TF.CreationDate,2024-01-30T17:08:08-08:00*
G04 #@! TF.ProjectId,fuck-sao,6675636b-2d73-4616-9f2e-6b696361645f,rev?*
G04 #@! TF.SameCoordinates,Original*
G04 #@! TF.FileFunction,Paste,Top*
G04 #@! TF.FilePolarity,Positive*
%FSLAX46Y46*%
G04 Gerber Fmt 4.6, Leading zero omitted, Abs format (unit mm)*
G04 Created by KiCad (PCBNEW 7.0.2) date 2024-01-30 17:08:08*
%MOMM*%
%LPD*%
G01*
G04 APERTURE LIST*
G04 Aperture macros list*
%AMRoundRect*
0 Rectangle with rounded corners*
0 $1 Rounding radius*
0 $2 $3 $4 $5 $6 $7 $8 $9 X,Y pos of 4 corners*
0 Add a 4 corners polygon primitive as box body*
4,1,4,$2,$3,$4,$5,$6,$7,$8,$9,$2,$3,0*
0 Add four circle primitives for the rounded corners*
1,1,$1+$1,$2,$3*
1,1,$1+$1,$4,$5*
1,1,$1+$1,$6,$7*
1,1,$1+$1,$8,$9*
0 Add four rect primitives between the rounded corners*
20,1,$1+$1,$2,$3,$4,$5,0*
20,1,$1+$1,$4,$5,$6,$7,0*
20,1,$1+$1,$6,$7,$8,$9,0*
20,1,$1+$1,$8,$9,$2,$3,0*%
%AMFreePoly0*
4,1,14,0.085355,0.385355,0.100000,0.350000,0.100000,-0.350000,0.085355,-0.385355,0.050000,-0.400000,0.000711,-0.400000,-0.034644,-0.385355,-0.085355,-0.334644,-0.100000,-0.299289,-0.100000,0.350000,-0.085355,0.385355,-0.050000,0.400000,0.050000,0.400000,0.085355,0.385355,0.085355,0.385355,$1*%
%AMFreePoly1*
4,1,14,0.085355,0.385355,0.100000,0.350000,0.100000,-0.299289,0.085355,-0.334644,0.034644,-0.385355,-0.000711,-0.400000,-0.050000,-0.400000,-0.085355,-0.385355,-0.100000,-0.350000,-0.100000,0.350000,-0.085355,0.385355,-0.050000,0.400000,0.050000,0.400000,0.085355,0.385355,0.085355,0.385355,$1*%
%AMFreePoly2*
4,1,14,0.385355,0.085355,0.400000,0.050000,0.400000,-0.050000,0.385355,-0.085355,0.350000,-0.100000,-0.350000,-0.100000,-0.385355,-0.085355,-0.400000,-0.050000,-0.400000,-0.000711,-0.385355,0.034644,-0.334644,0.085355,-0.299289,0.100000,0.350000,0.100000,0.385355,0.085355,0.385355,0.085355,$1*%
%AMFreePoly3*
4,1,14,0.385355,0.085355,0.400000,0.050000,0.400000,-0.050000,0.385355,-0.085355,0.350000,-0.100000,-0.299289,-0.100000,-0.334644,-0.085355,-0.385355,-0.034644,-0.400000,0.000711,-0.400000,0.050000,-0.385355,0.085355,-0.350000,0.100000,0.350000,0.100000,0.385355,0.085355,0.385355,0.085355,$1*%
%AMFreePoly4*
4,1,14,0.034644,0.385355,0.085355,0.334644,0.100000,0.299289,0.100000,-0.350000,0.085355,-0.385355,0.050000,-0.400000,-0.050000,-0.400000,-0.085355,-0.385355,-0.100000,-0.350000,-0.100000,0.350000,-0.085355,0.385355,-0.050000,0.400000,-0.000711,0.400000,0.034644,0.385355,0.034644,0.385355,$1*%
%AMFreePoly5*
4,1,14,0.085355,0.385355,0.100000,0.350000,0.100000,-0.350000,0.085355,-0.385355,0.050000,-0.400000,-0.050000,-0.400000,-0.085355,-0.385355,-0.100000,-0.350000,-0.100000,0.299289,-0.085355,0.334644,-0.034644,0.385355,0.000711,0.400000,0.050000,0.400000,0.085355,0.385355,0.085355,0.385355,$1*%
%AMFreePoly6*
4,1,14,0.385355,0.085355,0.400000,0.050000,0.400000,0.000711,0.385355,-0.034644,0.334644,-0.085355,0.299289,-0.100000,-0.350000,-0.100000,-0.385355,-0.085355,-0.400000,-0.050000,-0.400000,0.050000,-0.385355,0.085355,-0.350000,0.100000,0.350000,0.100000,0.385355,0.085355,0.385355,0.085355,$1*%
%AMFreePoly7*
4,1,14,0.334644,0.085355,0.385355,0.034644,0.400000,-0.000711,0.400000,-0.050000,0.385355,-0.085355,0.350000,-0.100000,-0.350000,-0.100000,-0.385355,-0.085355,-0.400000,-0.050000,-0.400000,0.050000,-0.385355,0.085355,-0.350000,0.100000,0.299289,0.100000,0.334644,0.085355,0.334644,0.085355,$1*%
G04 Aperture macros list end*
%ADD10FreePoly0,180.000000*%
%ADD11RoundRect,0.050000X0.050000X0.350000X-0.050000X0.350000X-0.050000X-0.350000X0.050000X-0.350000X0*%
%ADD12FreePoly1,180.000000*%
%ADD13FreePoly2,180.000000*%
%ADD14RoundRect,0.050000X0.350000X0.050000X-0.350000X0.050000X-0.350000X-0.050000X0.350000X-0.050000X0*%
%ADD15FreePoly3,180.000000*%
%ADD16FreePoly4,180.000000*%
%ADD17FreePoly5,180.000000*%
%ADD18FreePoly6,180.000000*%
%ADD19FreePoly7,180.000000*%
%ADD20RoundRect,0.172500X0.172500X0.172500X-0.172500X0.172500X-0.172500X-0.172500X0.172500X-0.172500X0*%
%ADD21R,1.250000X1.000000*%
%ADD22RoundRect,0.200000X-0.200000X-0.275000X0.200000X-0.275000X0.200000X0.275000X-0.200000X0.275000X0*%
%ADD23RoundRect,0.218750X-0.218750X-0.256250X0.218750X-0.256250X0.218750X0.256250X-0.218750X0.256250X0*%
%ADD24RoundRect,0.225000X-0.250000X0.225000X-0.250000X-0.225000X0.250000X-0.225000X0.250000X0.225000X0*%
G04 APERTURE END LIST*
D10*
X123300000Y-101350000D03*
D11*
X122900000Y-101350000D03*
X122500000Y-101350000D03*
X122100000Y-101350000D03*
D12*
X121700000Y-101350000D03*
D13*
X121050000Y-100700000D03*
D14*
X121050000Y-100300000D03*
X121050000Y-99900000D03*
X121050000Y-99500000D03*
D15*
X121050000Y-99100000D03*
D16*
X121700000Y-98450000D03*
D11*
X122100000Y-98450000D03*
X122500000Y-98450000D03*
X122900000Y-98450000D03*
D17*
X123300000Y-98450000D03*
D18*
X123950000Y-99100000D03*
D14*
X123950000Y-99500000D03*
X123950000Y-99900000D03*
X123950000Y-100300000D03*
D19*
X123950000Y-100700000D03*
D20*
X122075000Y-100325000D03*
X122925000Y-99475000D03*
X122925000Y-100325000D03*
X122075000Y-99475000D03*
D21*
X92800000Y-110250000D03*
X100550000Y-110250000D03*
D22*
X106275000Y-86500000D03*
X107925000Y-86500000D03*
X78125000Y-86500000D03*
X79775000Y-86500000D03*
X66225000Y-86500000D03*
X67875000Y-86500000D03*
X121125000Y-81000000D03*
X122775000Y-81000000D03*
X107975000Y-81000000D03*
X109625000Y-81000000D03*
X97975000Y-81000000D03*
X99625000Y-81000000D03*
X81775000Y-81000000D03*
X83425000Y-81000000D03*
X66175000Y-81000000D03*
X67825000Y-81000000D03*
X111625000Y-75500000D03*
X113275000Y-75500000D03*
X93575000Y-75500000D03*
X95225000Y-75500000D03*
X79425000Y-75500000D03*
X81075000Y-75500000D03*
X66175000Y-75500000D03*
X67825000Y-75500000D03*
X101825000Y-69800000D03*
X103475000Y-69800000D03*
D23*
X106312500Y-84750000D03*
X107887500Y-84750000D03*
X78150000Y-84750000D03*
X79725000Y-84750000D03*
X66262500Y-84750000D03*
X67837500Y-84750000D03*
X121162500Y-79250000D03*
X122737500Y-79250000D03*
X108012500Y-79250000D03*
X109587500Y-79250000D03*
X98012500Y-79250000D03*
X99587500Y-79250000D03*
X81812500Y-79250000D03*
X83387500Y-79250000D03*
X66212500Y-79250000D03*
X67787500Y-79250000D03*
X111662500Y-73750000D03*
X113237500Y-73750000D03*
X95187500Y-73750000D03*
X93612500Y-73750000D03*
X79462500Y-73750000D03*
X81037500Y-73750000D03*
X66212500Y-73750000D03*
X67787500Y-73750000D03*
X101862500Y-68050000D03*
X103437500Y-68050000D03*
D24*
X125900000Y-101075000D03*
X125900000Y-99525000D03*
M02*
